<?xml version="1.0" encoding="utf-8"?>
<!-- Generator: Adobe Illustrator 23.0.2, SVG Export Plug-In . SVG Version: 6.00 Build 0)  -->
<svg version="1.1" xmlns="http://www.w3.org/2000/svg" xmlns:xlink="http://www.w3.org/1999/xlink" x="0px" y="0px"
	 viewBox="0 0 1872 1872" style="enable-background:new 0 0 1872 1872;" xml:space="preserve">
<style type="text/css">
	.st0{display:none;}
	.st1{display:inline;fill:#FFE2CC;}
	.st2{display:inline;}
	.st3{fill:#75D5FF;}
	.st4{fill:#7A9AB3;}
	.st5{fill:#59B2D1;}
	.st6{fill:#B4D996;}
	.st7{fill:#FFFFFF;}
	.st8{fill:#212121;}
	.st9{fill:#ED8A6B;}
	.st10{opacity:0.3;fill:#98EDF4;}
	.st11{display:inline;fill:#919390;}
	.st12{opacity:0.5;fill:#FFE600;}
	.st13{fill:#FFF9B3;}
	.st14{fill:#B4620E;}
	.st15{opacity:0.5;fill:#09A2DC;}
	.st16{fill:#FF7C00;}
	.st17{fill:#FFC80B;}
	.st18{fill:#A0BE88;}
	.st19{fill:#DF781B;}
	.st20{fill:#C1661B;}
	.st21{fill:#F9CF58;}
	.st22{opacity:0.1;fill:#333333;}
	.st23{fill:#333333;}
	.st24{display:inline;fill:#B4D996;}
	.st25{display:inline;fill:#A0BE88;}
	.st26{display:inline;fill:#212121;}
	.st27{fill:#BC5037;}
	.st28{fill:#E26644;}
	.st29{display:inline;fill:#E26644;}
	.st30{display:inline;fill:#BC5037;}
</style>
<g id="Back" class="st0">
	<rect x="-200" class="st1" width="2272" height="1872"/>
</g>
<g id="_x36_" class="st0">
	<g class="st2">
		<g>
			<g>
				<g>
					
						<rect x="1390.5" y="1370.3" transform="matrix(0.3289 -0.9444 0.9444 0.3289 -342.5186 2271.1895)" class="st3" width="72.6" height="12.6"/>
				</g>
			</g>
			<path class="st4" d="M1427.8,1420.5c-2.9,8.4-12.1,12.8-20.4,9.9c-8.4-2.9-12.8-12.1-9.9-20.4c2.9-8.4,12.1-12.8,20.4-9.9
				C1426.2,1403,1430.7,1412.2,1427.8,1420.5z"/>
			<g>
				<g>
					
						<rect x="1348.5" y="1356.5" transform="matrix(0.6569 -0.754 0.754 0.6569 -552.4166 1511.5831)" class="st3" width="72.6" height="12.6"/>
				</g>
			</g>
			<path class="st4" d="M1369.3,1403.9c-5.8,6.7-16,7.4-22.6,1.6s-7.4-16-1.6-22.6c5.8-6.7,16-7.4,22.6-1.6
				S1375.1,1397.2,1369.3,1403.9z"/>
			<g>
				<g>
					
						<rect x="1461.7" y="1355.5" transform="matrix(0.9989 -4.641189e-02 4.641189e-02 0.9989 -63.0132 69.6305)" class="st3" width="12.6" height="72.6"/>
				</g>
			</g>
			<path class="st4" d="M1454.5,1433.6c0.4,8.9,7.9,15.7,16.8,15.3c8.9-0.4,15.7-7.9,15.3-16.8c-0.4-8.9-7.9-15.7-16.8-15.3
				C1461,1417.3,1454.1,1424.8,1454.5,1433.6z"/>
		</g>
		<path class="st4" d="M1730.8,1374.6c-41.4-35.4-139.7-84.1-258.8-125.6c-119.1-41.5-226.4-64.3-280.8-62.3l-28.7-10l-8.3,23.7
			c-10.6,30.6,114.4,101.9,279.3,159.3s307.2,79.2,317.8,48.6l8.3-23.7L1730.8,1374.6z"/>
		<path class="st3" d="M1759.5,1384.6c-10.6,30.6-152.9,8.8-317.8-48.6c-164.9-57.4-289.9-128.8-279.3-159.3
			c10.6-30.6,152.9-8.8,317.8,48.6S1770.1,1354,1759.5,1384.6z"/>
		<path class="st5" d="M1628.6,1325.7c-5.8,16.7-83.8,4.8-174-26.6c-90.3-31.4-158.8-70.5-152.9-87.3c5.8-16.7,83.8-4.8,174,26.6
			C1565.9,1269.9,1634.4,1308.9,1628.6,1325.7z"/>
		<g>
			<g>
				<g>
					<g>
						<g>
							
								<rect x="1539" y="1122.2" transform="matrix(0.8336 -0.5524 0.5524 0.8336 -361.9349 1052.0402)" class="st6" width="52.2" height="9"/>
						</g>
					</g>
					<g>
						<g>
							<path class="st7" d="M1617.1,1113.3c-4.1,11.8-17,18-28.8,13.9c-11.8-4.1-18-17-13.9-28.8c4.1-11.8,17-18,28.8-13.9
								C1615,1088.6,1621.2,1101.5,1617.1,1113.3z"/>
						</g>
						<g>
							<path class="st6" d="M1587.3,1130.2c-13.4-4.7-20.5-19.4-15.9-32.8s19.4-20.5,32.8-15.9s20.5,19.4,15.9,32.8
								S1600.7,1134.8,1587.3,1130.2z M1602.2,1087.5c-10.1-3.5-21.2,1.8-24.7,12c-3.5,10.1,1.8,21.2,12,24.7s21.2-1.8,24.7-12
								C1617.7,1102.1,1612.3,1091,1602.2,1087.5z"/>
						</g>
					</g>
					<path class="st8" d="M1599.1,1107.5c-0.6,1.6-2.4,2.5-4,1.9c-1.6-0.6-2.5-2.4-1.9-4c0.6-1.6,2.4-2.5,4-1.9
						C1598.8,1104,1599.6,1105.8,1599.1,1107.5z"/>
				</g>
				<g>
					<g>
						<g>
							
								<rect x="1459.6" y="1065.4" transform="matrix(0.9507 -0.3101 0.3101 0.9507 -266.3034 507.7998)" class="st6" width="9" height="52.2"/>
						</g>
					</g>
					<g>
						<g>
							<path class="st7" d="M1431.7,1048.7c-4.1,11.8,2.1,24.7,13.9,28.8c11.8,4.1,24.7-2.1,28.8-13.9c4.1-11.8-2.1-24.7-13.9-28.8
								S1435.8,1036.9,1431.7,1048.7z"/>
						</g>
						<g>
							<path class="st6" d="M1428.7,1047.6c4.7-13.4,19.4-20.5,32.8-15.9c13.4,4.7,20.5,19.4,15.9,32.8
								c-4.7,13.4-19.4,20.5-32.8,15.9C1431.2,1075.8,1424,1061.1,1428.7,1047.6z M1434.7,1049.7c-3.5,10.1,1.8,21.2,12,24.7
								c10.1,3.5,21.2-1.8,24.7-12c3.5-10.1-1.8-21.2-12-24.7C1449.3,1034.2,1438.2,1039.6,1434.7,1049.7z"/>
						</g>
					</g>
					<path class="st8" d="M1449.5,1055.4c-0.6,1.6,0.3,3.5,1.9,4c1.6,0.6,3.5-0.3,4-1.9c0.6-1.6-0.3-3.5-1.9-4
						C1451.8,1052.8,1450,1053.7,1449.5,1055.4z"/>
				</g>
			</g>
			<path class="st6" d="M1522.4,1293.1l43.8-125.9c12.3-35.3-6.4-73.9-41.7-86.2l0,0c-35.3-12.3-73.9,6.4-86.2,41.7l-43.8,125.9
				L1522.4,1293.1z"/>
			<g>
				<path class="st8" d="M1488.1,1186c25.9,9,54.1-4.7,63.1-30.5l-93.6-32.6C1448.5,1148.7,1462.2,1177,1488.1,1186z"/>
				<path class="st9" d="M1520.5,1186c-3.5-12.5-11.6-22.5-23.2-26.5c-11.6-4-24.2-1.3-34.6,6.4c5.8,9,14.5,16.3,25.4,20.1
					C1499,1189.8,1510.3,1189.5,1520.5,1186z"/>
			</g>
		</g>
		<g>
			<path class="st10" d="M1575.3,952.4L1575.3,952.4c-90.6-31.6-189.7,16.3-221.2,106.9l-53,152.2l0.6,0.2
				c-5.8,16.7,62.6,55.8,152.9,87.3c90.3,31.4,168.2,43.4,174,26.6l0.6,0.2l53-152.2C1713.8,1083,1665.9,984,1575.3,952.4z"/>
			<g>
				<path class="st7" d="M1368.2,1103.5c-2.9-1-4.5-4.2-3.4-7.1c18.7-53.6,44.3-91.9,76.2-113.7c24.4-16.7,43.4-17,44.2-17
					c3.1,0,5.6,2.5,5.6,5.6c0,3.1-2.5,5.6-5.5,5.6c-0.3,0-17.1,0.5-38.7,15.6c-20.3,14.1-49.1,44.3-71.2,107.6
					C1374.3,1102.9,1371.1,1104.5,1368.2,1103.5z"/>
			</g>
			<g>
				<path class="st7" d="M1671.6,1123.4c0,0,2.2,36.2-23.4,101.2"/>
				<path class="st7" d="M1646.6,1229.2c-0.1,0-0.1,0-0.2-0.1c-2.5-1-3.7-3.8-2.8-6.3c24.9-63.2,23.1-98.8,23.1-99.1
					c-0.2-2.7,1.9-5,4.6-5.2c2.7-0.2,5,1.9,5.2,4.6c0.1,1.5,1.9,38-23.8,103.3C1651.8,1228.9,1649.1,1230.1,1646.6,1229.2z"/>
			</g>
		</g>
	</g>
	<path class="st11" d="M1523.9,1544.2c0,7.4-56.1,13.4-125.2,13.4c-69.2,0-125.2-6-125.2-13.4c0-7.4,56.1-13.4,125.2-13.4
		C1467.8,1530.8,1523.9,1536.8,1523.9,1544.2z"/>
</g>
<g id="_x35__1_" class="st0">
	<g class="st2">
		<path class="st12" d="M1050.3,1187.4l-0.5-0.1c7-35.6-38.9-75.5-103-89.4c-63.8-13.8-121.5,3.4-129.7,38.5l-1-0.2l-127.8,411.6
			h375.6L1050.3,1187.4z"/>
		<g>
			<path class="st13" d="M998.1,1349.6c1.8,8.3,2.6,16.4,3.3,24.6c0.6,8.1,0.9,16.2,0.9,24.3c0,16.1-1,32.1-2.8,48
				c-1.8,15.9-4.4,31.7-8,47.3c-3.8,15.6-8.1,31.2-15.1,46.4c-3.3-16.5-4.1-32.7-4.2-48.9c0-16.1,1-32.1,2.8-48
				c1.8-15.9,4.4-31.7,8.1-47.3c1.8-7.8,3.9-15.6,6.3-23.4C991.9,1365,994.5,1357.2,998.1,1349.6z"/>
			<path class="st13" d="M834.9,1202c2.4,10,2.8,19.5,2.8,28.9c-0.1,9.4-0.9,18.5-2.4,27.5c-1.5,9-3.5,17.8-6.3,26.4
				c-2.9,8.6-6.3,17-11.6,24.9c-2.4-10-2.9-19.6-2.9-28.9c0.1-9.3,1-18.5,2.4-27.4c1.5-9,3.5-17.8,6.3-26.3
				C826.2,1218.3,829.6,1209.9,834.9,1202z"/>
			<path class="st13" d="M847.2,1427.8c2.4,10,2.8,19.5,2.8,28.9c-0.1,9.4-0.9,18.5-2.4,27.5c-1.5,9-3.5,17.8-6.3,26.4
				c-2.9,8.6-6.3,17-11.6,24.9c-2.4-10-2.9-19.6-2.9-28.9c0.1-9.3,1-18.5,2.4-27.4c1.5-9,3.5-17.8,6.3-26.3
				C838.6,1444.1,841.9,1435.6,847.2,1427.8z"/>
			<path class="st13" d="M931.2,1187.9c1,11.5,1.2,22.8,1.1,34.2c-0.1,11.3-0.6,22.6-1.3,33.8c-1.4,22.5-3.8,44.8-7.1,67
				c-3.2,22.2-7.3,44.3-12.3,66.2c-2.5,11-5.3,21.9-8.5,32.8c-3.2,10.9-6.6,21.7-10.9,32.4c-1-11.5-1.2-22.8-1.2-34.2
				c0.1-11.3,0.6-22.6,1.2-33.8c1.4-22.5,3.8-44.8,7.1-67c3.2-22.2,7.3-44.3,12.3-66.2c2.5-11,5.3-21.9,8.5-32.8
				C923.6,1209.4,926.9,1198.6,931.2,1187.9z"/>
		</g>
	</g>
	<g class="st2">
		<path class="st14" d="M987.8,1034.1c-0.8,4.8-14.2,7.5-29.9,5.9c-15.7-1.6-27.8-6.8-26.9-11.6c0.8-4.8,14.2-7.5,29.9-5.9
			C976.5,1024.1,988.6,1029.3,987.8,1034.1z"/>
		<path class="st15" d="M822.5,1062l59.3-23.6c22.2-8.8,48-12.4,73.3-9.7c0.3,0,0.6,0.1,1,0.1c28.7,3.2,54.9,14.2,73.7,30.3l43,37
			L822.5,1062z"/>
		<path class="st16" d="M962.3,1057.8c-94.8-12.9-180.5,3.4-191.5,36.3c-6.1,18.4,12.5,38.2,46.6,54.3c-4.5-4.1-6.4-8.2-5.2-12
			c5.3-15.8,62.3-21.5,127.4-12.6c65.1,8.8,113.6,28.8,108.3,44.7c-1.4,4.1-6.3,7.6-13.9,10.2c43-5.6,73.8-19,80.1-37.8
			C1125,1107.8,1057.1,1070.7,962.3,1057.8z"/>
		<path class="st17" d="M962.3,1057.8c-94.8-12.9-180.5,3.4-191.5,36.3c-1.7,5.2-1.5,10.4,0.5,15.7c27.9-22.9,101.1-32.7,180.7-21.9
			c79.9,10.9,140.7,39,151.3,67.2c5.3-4.4,9-9.2,10.7-14.5C1125,1107.8,1057.1,1070.7,962.3,1057.8z"/>
		<path class="st14" d="M1048,1168.3c5.3-15.8-43.2-35.8-108.3-44.7c-65.1-8.8-122.1-3.2-127.4,12.6c-1.3,3.8,0.6,7.9,5.2,12
			c26.9,12.6,63.4,23,105.1,28.7c40.5,5.5,79.3,5.7,111.4,1.5C1041.7,1175.9,1046.6,1172.4,1048,1168.3z"/>
		<path class="st16" d="M975.5,1177.2c-1,8.6-20.1,13.5-42.7,10.9c-22.6-2.6-40.1-11.6-39.1-20.2c1-8.6,20.1-13.5,42.7-10.9
			C958.9,1159.6,976.4,1168.6,975.5,1177.2z"/>
	</g>
</g>
<g id="_x34_" class="st0">
	<g class="st2">
		<g>
			<path class="st18" d="M324.6,1128c4.5-2.7,7.6-9.2,7.2-16.5c-0.5-9.5-6.4-17-13.2-16.6c-6.8,0.3-11.9,8.4-11.4,17.9
				c0.3,6,2.7,11.1,6.2,14c3,47.6,43,76.1,44.9,77.5l6.4-9.1C364.2,1194.9,328.4,1169.3,324.6,1128z"/>
			<path class="st18" d="M493.9,1128c-4.5-2.7-7.6-9.2-7.2-16.5c0.5-9.5,6.4-17,13.2-16.6c6.8,0.3,11.9,8.4,11.4,17.9
				c-0.3,6-2.7,11.1-6.2,14c-3,47.6-43,76.1-44.9,77.5l-6.4-9.1C454.3,1194.9,490.1,1169.3,493.9,1128z"/>
		</g>
		<ellipse class="st19" cx="410.1" cy="1349.6" rx="120.3" ry="99.3"/>
		<path class="st20" d="M410.1,1249c-66.4,0-120.3,44.5-120.3,99.3c0,14,3.5,27.3,9.8,39.4c30.3,13.6,68.7,21.7,110.5,21.7
			s80.2-8.1,110.5-21.7c6.3-12.1,9.8-25.4,9.8-39.4C530.4,1293.5,476.6,1249,410.1,1249z"/>
		<ellipse class="st17" cx="415.1" cy="1273.1" rx="279.5" ry="69.7"/>
		<g>
			<g>
				<g>
					<path class="st19" d="M135.6,1258.9"/>
				</g>
				<g>
					<path class="st19" d="M694.5,1258.9"/>
				</g>
				<g>
					<path class="st19" d="M415.1,1328.6c-154.3,0-279.5-31.2-279.5-69.7c0,61,125.1,110.4,279.5,110.4s279.5-49.4,279.5-110.4
						C694.5,1297.4,569.4,1328.6,415.1,1328.6z"/>
				</g>
			</g>
		</g>
		<path class="st21" d="M568.1,1230.5c0,15.7-68.5,28.4-153,28.4s-153-12.7-153-28.4c0-15.7,68.5-28.4,153-28.4
			S568.1,1214.9,568.1,1230.5z"/>
		<g>
			<path class="st6" d="M470,1255.2v-117.8c0-33-26.8-59.8-59.8-59.8l0,0c-33,0-59.8,26.8-59.8,59.8v117.8H470z"/>
			<g>
				<path class="st8" d="M410.2,1175.7c24.2,0,43.8-19.6,43.8-43.8h-87.7C366.3,1156.1,385.9,1175.7,410.2,1175.7z"/>
				<path class="st9" d="M437.2,1166.4c-6.5-9.4-16.2-15.4-27.1-15.4c-10.8,0-20.5,6-27.1,15.4c7.5,5.9,16.8,9.4,27.1,9.4
					C420.4,1175.7,429.8,1172.2,437.2,1166.4z"/>
			</g>
			<g>
				<g>
					<g>
						<path class="st7" d="M389.7,1056.2c-9,11.9-6.7,28.7,5.2,37.7c11.9,9,28.7,6.7,37.7-5.2c9-11.9,6.7-28.7-5.2-37.7
							C415.6,1042,398.7,1044.3,389.7,1056.2z"/>
					</g>
					<g>
						<path class="st6" d="M386.7,1053.9c10.2-13.5,29.5-16.1,43-5.9c13.5,10.2,16.1,29.5,5.9,43c-10.2,13.5-29.5,16.1-43,5.9
							C379.1,1086.7,376.5,1067.4,386.7,1053.9z M392.7,1058.5c-7.7,10.2-5.7,24.7,4.5,32.4s24.7,5.7,32.5-4.5
							c7.7-10.2,5.7-24.7-4.5-32.4C415,1046.3,400.4,1048.3,392.7,1058.5z"/>
					</g>
				</g>
				<path class="st8" d="M407.4,1070.3c-1.3,1.7-0.9,4,0.7,5.3c1.7,1.3,4,0.9,5.3-0.7s0.9-4-0.7-5.3
					C411,1068.3,408.7,1068.6,407.4,1070.3z"/>
			</g>
		</g>
		<g>
			<path class="st10" d="M410.1,960.3L410.1,960.3c-84.8,0-153.6,68.8-153.6,153.6v142.5h0.6c0,15.7,68.5,28.4,153,28.4
				c84.5,0,153-12.7,153-28.4h0.6v-142.5C563.7,1029.1,495,960.3,410.1,960.3z"/>
			<g>
				<path class="st7" d="M281.2,1146.6c-2.7,0-4.9-2.2-4.9-4.9c0-50.2,10.3-89.6,30.6-117.1c15.5-21,31.3-26.8,31.9-27
					c2.6-0.9,5.4,0.4,6.3,3c0.9,2.6-0.4,5.4-3,6.3c-0.2,0.1-14.1,5.4-27.8,24.3c-12.8,17.7-28.1,51.2-28.1,110.5
					C286.1,1144.4,283.9,1146.6,281.2,1146.6z"/>
			</g>
			<g>
				<path class="st7" d="M540.3,1075.1c0,0,12.3,29.6,9.9,91.3"/>
				<path class="st7" d="M550.2,1170.7c-0.1,0-0.1,0-0.2,0c-2.4-0.1-4.2-2.1-4.1-4.5c2.4-60-9.4-89.2-9.5-89.5
					c-0.9-2.2,0.1-4.7,2.3-5.6c2.2-0.9,4.7,0.1,5.6,2.3c0.5,1.2,12.7,31.2,10.2,93.1C554.4,1168.9,552.5,1170.7,550.2,1170.7z"/>
			</g>
		</g>
	</g>
	<ellipse class="st11" cx="414.4" cy="1548.9" rx="181.7" ry="18.2"/>
</g>
<g id="Layer_8">
	<path class="st22" d="M1382.8,113.3c199.3,171.6,325.5,425.8,325.5,709.5c0,516.9-419.1,936-936,936c-161.8,0-314-41.1-446.8-113.3
		C489.4,1786.6,702.7,1872,936,1872c516.9,0,936-419.1,936-936C1872,580.9,1674.2,271.9,1382.8,113.3z"/>
</g>
<g id="_x33_">
	<g>
		<path class="st23" d="M936,1739.4c253.1,0,458.2-211.9,458.2-473.2H477.8C477.8,1527.5,682.9,1739.4,936,1739.4z"/>
		<path class="st9" d="M1219,1638.2c-68.2-101.7-169.6-166.3-283-166.3s-214.8,64.6-283,166.3c77.9,63.3,176.1,101.2,283,101.2
			S1141,1701.5,1219,1638.2z"/>
	</g>
	<g>
		<ellipse class="st7" cx="936" cy="762.1" rx="364.4" ry="394.8"/>
		<ellipse class="st23" cx="936" cy="677.4" rx="260.5" ry="282.3"/>
		<ellipse class="st7" cx="1032.5" cy="572.9" rx="96.5" ry="104.5"/>
	</g>
	<g>
		<path class="st7" d="M846.1,1397.8c49.7,0,89.9-59,89.9-131.7H756.1C756.1,1338.8,796.4,1397.8,846.1,1397.8z"/>
		<path class="st7" d="M1025.9,1397.8c49.7,0,89.9-59,89.9-131.7H936C936,1338.8,976.3,1397.8,1025.9,1397.8z"/>
	</g>
	<path class="st22" d="M220.2,1308.1c-46.9,0-89.3,19.8-119.1,51.4c49.3,97,115.1,184.3,193.6,258.2c53-27.1,89.3-82.2,89.3-145.9
		C383.9,1381.4,310.6,1308.1,220.2,1308.1z"/>
	<circle class="st22" cx="1669.8" cy="1032.1" r="163.7"/>
	<path class="st22" d="M1484.4,1694.6c-16.5-7.6-34.9-11.9-54.3-11.9c-66.8,0-121.8,50.5-128.9,115.3
		C1366.3,1770.4,1427.7,1735.6,1484.4,1694.6z"/>
	<path class="st22" d="M229.5,322c23.8,27.8,59.1,45.4,98.5,45.4c71.7,0,129.7-58.1,129.7-129.7c0-33-12.3-63.1-32.6-86
		C352.3,199.1,286.4,256.6,229.5,322z"/>
	
		<ellipse transform="matrix(9.853756e-02 -0.9951 0.9951 9.853756e-02 161.6159 2663.1584)" class="st22" cx="1550.8" cy="1242.4" rx="45.7" ry="45.7"/>
	
		<ellipse transform="matrix(9.853756e-02 -0.9951 0.9951 9.853756e-02 -1238.3052 1868.4799)" class="st22" cx="412.2" cy="1617.7" rx="45.7" ry="45.7"/>
</g>
<g id="_x32_" class="st0">
	<g class="st2">
		<g>
			
				<rect x="870.8" y="422.6" transform="matrix(0.7958 -0.6055 0.6055 0.7958 -100.2586 625.5873)" class="st6" width="13.4" height="77.7"/>
		</g>
	</g>
	<g class="st2">
		<g>
			
				<rect x="959.6" y="448" transform="matrix(0.6055 -0.7958 0.7958 0.6055 31.9773 974.0014)" class="st6" width="77.7" height="13.4"/>
		</g>
	</g>
	<g class="st2">
		<path class="st18" d="M816.6,705.4c-0.5-14.6,2.6-47.1,32.1-89.6l-11-7.7c-32.6,46.9-35.5,82.9-34.5,99.3c-2.6,3.2-4.3,8-4.3,13.4
			c0,9.6,5.4,17.5,12.1,17.5c6.7,0,12.1-7.8,12.1-17.5C823.1,714.1,820.5,708.3,816.6,705.4z"/>
		<path class="st18" d="M1076.8,707.5c1-16.4-1.9-52.4-34.5-99.3l-11,7.7c29.5,42.5,32.6,75,32.1,89.6c-3.8,2.9-6.5,8.7-6.5,15.5
			c0,9.6,5.4,17.5,12.1,17.5c6.7,0,12.1-7.8,12.1-17.5C1081.1,715.5,1079.5,710.7,1076.8,707.5z"/>
	</g>
	<g class="st2">
		<path class="st18" d="M915.5,694l-2.7-6.1l-2.6-6.2c-2,0.9-47.4,21.7-48.5,133.3c-3.5-1.4-7.6-2.1-12-2.1
			c-13.4,0-24.2,7.2-24.2,16.1h36.3c0,0.1,0,0.1,0,0.1l6.7-0.1h5.4c0,0,0-0.1,0-0.1l1.4,0C872.6,715.1,915,694.2,915.5,694z"/>
		<path class="st18" d="M967.8,694l2.7-6.1l2.6-6.2c2,0.9,47.4,21.7,48.5,133.3c3.5-1.4,7.6-2.1,12-2.1c13.4,0,24.2,7.2,24.2,16.1
			h-36.3c0,0.1,0,0.1,0,0.1l-6.7-0.1h-5.4c0,0,0-0.1,0-0.1l-1.4,0C1010.7,715.1,968.2,694.2,967.8,694z"/>
	</g>
	<g class="st2">
		<g>
			
				<ellipse transform="matrix(3.564572e-02 -0.9994 0.9994 3.564572e-02 395.0595 1243.6333)" class="st7" cx="841.9" cy="417.1" rx="33.6" ry="33.6"/>
		</g>
		<g>
			<path class="st6" d="M841.9,454.7c-20.7,0-37.6-16.9-37.6-37.6c0-20.7,16.9-37.6,37.6-37.6c20.7,0,37.6,16.9,37.6,37.6
				C879.5,437.9,862.7,454.7,841.9,454.7z M841.9,387.6c-16.3,0-29.6,13.3-29.6,29.6c0,16.3,13.3,29.6,29.6,29.6
				c16.3,0,29.6-13.3,29.6-29.6C871.5,400.8,858.2,387.6,841.9,387.6z"/>
		</g>
	</g>
	<g class="st2">
		<g>
			<path class="st7" d="M1065,410.4c0,18.6-15,33.6-33.6,33.6c-18.6,0-33.6-15-33.6-33.6c0-18.6,15-33.6,33.6-33.6
				C1050,376.8,1065,391.8,1065,410.4z"/>
		</g>
		<g>
			<path class="st6" d="M1031.4,448.7c-21.1,0-38.3-17.2-38.3-38.3c0-21.1,17.2-38.3,38.3-38.3c21.1,0,38.3,17.2,38.3,38.3
				C1069.7,431.5,1052.5,448.7,1031.4,448.7z M1031.4,381.5c-15.9,0-28.9,13-28.9,28.9c0,15.9,13,28.9,28.9,28.9
				c15.9,0,28.9-13,28.9-28.9C1060.3,394.5,1047.3,381.5,1031.4,381.5z"/>
		</g>
	</g>
	<path class="st24" d="M1062.3,552.2c0,66.4-53.9,218.4-120.3,218.4c-66.4,0-120.3-152-120.3-218.4c0-66.4,53.9-120.3,120.3-120.3
		C1008.5,431.9,1062.3,485.7,1062.3,552.2z"/>
	<path class="st25" d="M942,718.7c-46.4,0-88-59.1-115.7-125.9C840.6,666.3,887,770.6,942,770.6c55,0,101.4-104.3,115.7-177.8
		C1030,659.5,988.5,718.7,942,718.7z"/>
	<circle class="st26" cx="841.2" cy="415.1" r="4.7"/>
	<path class="st26" d="M1036.8,411.1c0,2.6-2.1,4.7-4.7,4.7s-4.7-2.1-4.7-4.7c0-2.6,2.1-4.7,4.7-4.7S1036.8,408.5,1036.8,411.1z"/>
	<g class="st2">
		<path class="st8" d="M942.7,590.5c38.6,0,69.9-31.3,69.9-69.9H872.8C872.8,559.2,904.1,590.5,942.7,590.5z"/>
		<path class="st9" d="M985.9,575.5c-10.4-15-25.9-24.6-43.2-24.6c-17.3,0-32.8,9.5-43.2,24.6c11.9,9.3,26.9,14.9,43.2,14.9
			C959,590.5,974,584.9,985.9,575.5z"/>
	</g>
</g>
<g id="_x31_" class="st0">
	<g class="st2">
		<g>
			<g>
				<g>
					<path class="st27" d="M330.6,827.4c-3.5-111,24.7-209.3,25-210.3l13.5,3.9c-0.3,1-27.9,97.3-24.4,205.9L330.6,827.4z"/>
				</g>
				<g>
					<path class="st27" d="M314.7,808.7c-16.6,0-30,8.3-30,18.5h60C344.7,817,331.3,808.7,314.7,808.7z"/>
				</g>
			</g>
		</g>
		<g>
			<g>
				<g>
					<path class="st27" d="M505,827.4c3.5-111-24.7-209.3-25-210.3l-13.5,3.9c0.3,1,27.9,97.3,24.4,205.9L505,827.4z"/>
				</g>
				<g>
					<path class="st27" d="M520.8,808.7c16.6,0,30,8.3,30,18.5h-60C490.8,817,504.3,808.7,520.8,808.7z"/>
				</g>
			</g>
		</g>
	</g>
	<g class="st2">
		<g>
			<path class="st27" d="M325.9,471.8l-3.2-5.3l-3.1-5.3c-2.5,1.5-59.9,37.1-62.9,195.1c-2.7,2.9-4.5,7.6-4.5,13
				c0,8.8,4.7,15.9,10.6,15.9c5.8,0,10.6-7.1,10.6-15.9c0-5.2-1.7-9.8-4.3-12.7C271.9,506.5,325.3,472.1,325.9,471.8z"/>
			<path class="st27" d="M506.1,471.8l3.2-5.3l3.1-5.3c2.5,1.5,59.9,37.1,62.9,195.1c2.7,2.9,4.5,7.6,4.5,13
				c0,8.8-4.7,15.9-10.6,15.9c-5.8,0-10.6-7.1-10.6-15.9c0-5.2,1.7-9.8,4.3-12.7C560.1,506.5,506.7,472.1,506.1,471.8z"/>
		</g>
	</g>
	<g class="st2">
		<g>
			
				<rect x="414.9" y="272.5" transform="matrix(1 -7.581342e-03 7.581342e-03 1 -2.3482 3.2051)" class="st28" width="13.4" height="77.7"/>
		</g>
	</g>
	<g class="st2">
		<g>
			<path class="st7" d="M446.6,274.6c-11.1,14.9-32.2,17.9-47,6.8c-14.9-11.1-17.9-32.2-6.8-47c11.1-14.9,32.2-17.9,47-6.8
				C454.7,238.7,457.7,259.8,446.6,274.6z"/>
		</g>
		<g>
			<g>
				<path class="st28" d="M397.1,284.6c-16.6-12.4-20-36.1-7.6-52.7c12.4-16.6,36.1-20,52.7-7.6c16.6,12.4,20,36.1,7.6,52.7
					C437.3,293.6,413.7,297,397.1,284.6z M437.4,230.8c-13-9.8-31.6-7.1-41.4,5.9c-9.8,13-7.1,31.6,5.9,41.4
					c13,9.8,31.6,7.1,41.4-5.9C453.1,259.2,450.4,240.6,437.4,230.8z"/>
			</g>
		</g>
	</g>
	<path class="st26" d="M424.1,255.3c-1.6,2.1-4.5,2.5-6.6,0.9c-2.1-1.6-2.5-4.5-0.9-6.6s4.5-2.5,6.6-0.9
		C425.2,250.3,425.7,253.2,424.1,255.3z"/>
	<path class="st29" d="M419.7,739.9L419.7,739.9c-64.3,0-116.4-103.1-116.4-154.2V387.9c0-51.1,52.1-92.5,116.4-92.5h0
		c64.3,0,116.4,41.4,116.4,92.5v197.7C536.1,636.7,484,739.9,419.7,739.9z"/>
	<path class="st30" d="M419.7,681.7L419.7,681.7c-48,0-90.4-40.1-115.4-82.8c7.5,53.8,56.3,141,115.4,141l0,0
		c59.1,0,107.9-87.2,115.4-141C510,641.5,467.7,681.7,419.7,681.7z"/>
	<g class="st2">
		<g>
			<g>
				<path class="st7" d="M337.5,387.1c0,18.6-15,33.6-33.6,33.6c-18.6,0-33.6-15-33.6-33.6c0-18.6,15-33.6,33.6-33.6
					C322.5,353.5,337.5,368.6,337.5,387.1z"/>
			</g>
			<g>
				<g>
					<path class="st28" d="M303.9,424.8c-20.7,0-37.6-16.9-37.6-37.6c0-20.7,16.9-37.6,37.6-37.6c20.7,0,37.6,16.9,37.6,37.6
						C341.6,407.9,324.7,424.8,303.9,424.8z M303.9,357.6c-16.3,0-29.6,13.3-29.6,29.6c0,16.3,13.3,29.6,29.6,29.6
						c16.3,0,29.6-13.3,29.6-29.6C333.5,370.8,320.2,357.6,303.9,357.6z"/>
				</g>
			</g>
		</g>
		<path class="st8" d="M308,385.1c0,2.6-2.1,4.7-4.7,4.7c-2.6,0-4.7-2.1-4.7-4.7c0-2.6,2.1-4.7,4.7-4.7
			C305.9,380.4,308,382.5,308,385.1z"/>
	</g>
	<g class="st2">
		<g>
			<g>
				
					<ellipse transform="matrix(0.7071 -0.7071 0.7071 0.7071 -117.0414 491.6979)" class="st7" cx="535" cy="387.1" rx="33.6" ry="33.6"/>
			</g>
			<g>
				<g>
					<path class="st28" d="M535,424.8c-20.7,0-37.6-16.9-37.6-37.6c0-20.7,16.9-37.6,37.6-37.6c20.7,0,37.6,16.9,37.6,37.6
						C572.6,407.9,555.8,424.8,535,424.8z M535,357.6c-16.3,0-29.6,13.3-29.6,29.6c0,16.3,13.3,29.6,29.6,29.6
						c16.3,0,29.6-13.3,29.6-29.6C564.6,370.8,551.3,357.6,535,357.6z"/>
				</g>
			</g>
		</g>
		<path class="st8" d="M539,385.1c0,2.6-2.1,4.7-4.7,4.7s-4.7-2.1-4.7-4.7c0-2.6,2.1-4.7,4.7-4.7S539,382.5,539,385.1z"/>
	</g>
	<g class="st2">
		<path class="st8" d="M418.8,474.6c38.6,0,69.9-31.3,69.9-69.9H349C349,443.3,380.3,474.6,418.8,474.6z"/>
		<path class="st9" d="M462,459.7c-10.4-15-25.9-24.6-43.2-24.6s-32.8,9.5-43.2,24.6c11.9,9.3,26.9,14.9,43.2,14.9
			C435.1,474.6,450.1,469,462,459.7z"/>
	</g>
</g>
</svg>
