<?xml version="1.0" encoding="utf-8"?>
<!-- Generator: Adobe Illustrator 23.0.2, SVG Export Plug-In . SVG Version: 6.00 Build 0)  -->
<svg version="1.1" xmlns="http://www.w3.org/2000/svg" xmlns:xlink="http://www.w3.org/1999/xlink" x="0px" y="0px"
	 viewBox="0 0 1001 151" style="enable-background:new 0 0 1001 151;" xml:space="preserve">
<style type="text/css">
	.st0{display:none;}
	.st1{display:inline;fill:#333333;stroke:#000000;stroke-miterlimit:10;}
	.st2{display:inline;opacity:0.63;}
	.st3{fill-rule:evenodd;clip-rule:evenodd;fill:#FFFFFF;}
	.st4{fill:#FFFFFF;}
</style>
<g id="Layer_2" class="st0">
	<rect y="-5" class="st1" width="1001" height="181"/>
</g>
<g id="Layer_1" class="st0">
	<title>Clouds</title>
	<desc>Created with Sketch.</desc>
	<g id="Page-1" class="st2">
		<g id="Panoramic" transform="translate(-170.000000, -77.000000)">
			<g id="Clouds" transform="translate(170.000000, 77.000000)">
				<path id="CL1" class="st3" d="M84.9,30.4h18.6c6.2,0,11.2-5,11.2-11.2c0-6.2-5-11.2-11.2-11.2H11.2C5,8,0,13,0,19.2
					c0,6.2,5,11.2,11.2,11.2h8.4c-0.8,1.2-1.2,2.7-1.2,4.2c0,4.3,3.5,7.8,7.8,7.8h52.3c4.3,0,7.8-3.5,7.8-7.8
					C86.2,33.1,85.7,31.7,84.9,30.4z"/>
				<path id="Cl2" class="st3" d="M303.4,105.6c-0.1-4.2-3.5-7.6-7.8-7.6h-70.9c-4.3,0-7.8,3.5-7.8,7.8c0,4.3,3.5,7.8,7.8,7.8h10.9
					c-0.2,0.8-0.3,1.7-0.3,2.5c0,5.8,4.7,10.4,10.4,10.4h70.1c5.8,0,10.4-4.7,10.4-10.4c0-5.8-4.7-10.4-10.4-10.4H303.4z"/>
				<path id="Cl3" class="st3" d="M976.2,79c0.1-0.6,0.2-1.1,0.2-1.7c0-4-3.3-7.3-7.3-7.3h-39.9c-4,0-7.3,3.3-7.3,7.3
					c0,0.6,0.1,1.2,0.2,1.7h-13.8c-5.8,0-10.4,4.7-10.4,10.4c0,5.8,4.7,10.4,10.4,10.4h81.5c5.8,0,10.4-4.7,10.4-10.4
					c0-5.8-4.7-10.4-10.4-10.4H976.2z"/>
				<path id="Cl5" class="st3" d="M528,23.7h3.9c6.6,0,11.9-5.3,11.9-11.9c0-6.6-5.3-11.9-11.9-11.9h-78c-6.6,0-11.9,5.3-11.9,11.9
					c0,0.4,0,0.8,0.1,1.1h-14.6c-8,0-14.5,6.5-14.5,14.5c0,8,6.5,14.5,14.5,14.5h86.4c8,0,14.5-6.5,14.5-14.5
					C528.5,26.2,528.3,24.9,528,23.7z"/>
				<path id="Cl4" class="st3" d="M600.4,122.2h-2c-7.9,0-14.3,6.4-14.3,14.3c0,7.9,6.4,14.3,14.3,14.3h83.3
					c7.9,0,14.3-6.4,14.3-14.3c0-7.9-6.4-14.3-14.3-14.3h-1.4c0-5.7-4.6-10.2-10.2-10.2h-59.4C605,112,600.4,116.6,600.4,122.2z"/>
			</g>
		</g>
	</g>
</g>
<g id="Layer_3">
	<path class="st4" d="M136.9,26.9l-10.5,0c-0.1,0-0.2,0-0.3,0l-5.2,0c-3.2,0-5.8-2.6-5.8-5.8l0,0c0-3.2,2.6-5.8,5.8-5.8l5.2,0
		c0.1,0,0.2,0,0.3,0h23.7c3.2,0,5.8-2.6,5.8-5.8v0c0-3.2-2.6-5.8-5.8-5.8H14.3c-3.2,0-5.8,2.6-5.8,5.8v0c0,3.2,2.6,5.8,5.8,5.8h54.8
		c0.4,0,0.7,0,1.1,0.1l3.5,0c3.2,0,5.8,2.6,5.8,5.8l0,0c0,3.2-2.6,5.8-5.8,5.8l-30.1,0C41,27.5,39,29.8,39,32.6l0,0
		c0,3.2,2.6,5.8,5.8,5.8l92,0.1c3.2,0,5.8-2.6,5.8-5.8l0,0C142.7,29.5,140.1,26.9,136.9,26.9z"/>
	<path class="st4" d="M624.7,116.1l10.5,0v0.1l0.2,0c2.3,0,4.2,1.9,4.2,4.2l0,0c0,2.3-1.9,4.2-4.2,4.2l-0.1,0v0l-58.4,0
		c-2.3,0-4.2,1.9-4.2,4.2v0c0,2.3,1.9,4.2,4.2,4.2l48.9,0c0.1,0,0.2,0,0.2,0l3.7,0c2.3,0,4.2,1.9,4.2,4.2l0,0c0,2.3-1.9,4.2-4.2,4.2
		l-3.7,0c-0.1,0-0.2,0-0.2,0h-6.9c-2.3,0-4.2,1.9-4.2,4.2v0c0,2.3,1.9,4.2,4.2,4.2H672c2.3,0,4.2-1.9,4.2-4.2v0
		c0-2.3-1.9-4.2-4.2-4.2h-5.2c-0.3,0-0.5,0-0.8-0.1l-2.5,0c-2.3,0-4.2-1.9-4.2-4.2l0,0c0-2.3,1.9-4.2,4.2-4.2l20.2,0
		c1.9-0.4,3.2-2.1,3.2-4.1v0c0-2.3-1.9-4.2-4.2-4.2l-25.4,0v-0.1l-2.5,0c-2.3,0-4.2-1.9-4.2-4.2v0c0-2.3,1.9-4.2,4.2-4.2l0,0
		c0.3,0,47-0.1,47.3-0.2c0.9-0.4,2.4-2.1,2.4-3.1v-2.1c0-1.4-1.9-3-3.3-3h-47.1h-3l-26.6-0.1c-1.9,0-3.4,1.5-3.4,3.4l0,1.5
		C621.3,114.5,622.8,116.1,624.7,116.1z"/>
	<path class="st4" d="M433.3,12.4l11.2,0c0.1,0,0.2,0,0.3,0l5.6,0c3.4,0,6.2,2.8,6.2,6.2v0c0,3.4-2.8,6.2-6.2,6.2l-5.5,0
		c-0.1,0-0.2,0-0.4,0h-25.3c-3.4,0-6.2,2.8-6.2,6.2v0c0,3.4,2.8,6.2,6.2,6.2h145.2c3.4,0,6.2-2.8,6.2-6.2v0c0-3.4-2.8-6.2-6.2-6.2
		h-58.6c-0.4,0-0.8,0-1.2-0.1l-3.7,0c-3.4,0-6.2-2.8-6.2-6.2l0,0c0-3.4,2.8-6.2,6.2-6.2l32.2,0c2.8-0.6,4.8-3.1,4.8-6v0
		c0-3.4-2.8-6.2-6.2-6.2L433.3,0c-3.4,0-6.2,2.8-6.2,6.2l0,0C427.1,9.7,429.9,12.4,433.3,12.4z"/>
	<path class="st4" d="M867.5,100.8h105c1.9-0.8,3.3-2.7,3.3-4.9v0c0-2.9-2.4-5.3-5.3-5.3l-0.6,0v-0.2l-28,0c-2.9,0-5.3-2.4-5.3-5.3
		l0,0c0-2.9,2.4-5.3,5.3-5.3l10.9,0v-0.1l42.1,0c2.9,0,5.3-2.4,5.3-5.3v0c0-2.9-2.4-5.3-5.3-5.3L905.6,69c-2.9,0-5.3,2.4-5.3,5.3
		l0,0c0,2.9,2.4,5.3,5.3,5.3l5.7,0v0.2l5.6,0c2.9,0,5.3,2.4,5.3,5.3l0,0c0,2.9-2.4,5.3-5.3,5.3l-5.6,0v0l-42.1,0
		c-2.9,0-5.3,2.4-5.3,5.3v0C863.9,98.2,865.4,100.1,867.5,100.8z"/>
	<path class="st4" d="M209.5,99.2l40.1,0v0.1l0.2,0c2.4,0,4.3,1.9,4.3,4.3l0,0c0,2.4-1.9,4.3-4.3,4.3l-0.2,0v0l-32.4,0
		c-2.4,0-4.3,1.9-4.3,4.3l0,0c0,2.4,1.9,4.3,4.3,4.3l22.5,0c0.1,0,0.2,0,0.2,0l3.9,0c2.4,0,4.3,1.9,4.3,4.3l0,0
		c0,2.4-1.9,4.3-4.3,4.3l-3.8,0c-0.1,0-0.2,0-0.3,0h-7.2c-2.4,0-4.3,1.9-4.3,4.3v0c0,2.4,1.9,4.3,4.3,4.3h55.2
		c2.4,0,4.3-1.9,4.3-4.3v0c0-2.4-1.9-4.3-4.3-4.3h-5.4c-0.3,0-0.6,0-0.8-0.1l-2.6,0c-2.4,0-4.3-1.9-4.3-4.3l0,0
		c0-2.4,1.9-4.3,4.3-4.3l20.9,0c1.9-0.4,3.4-2.1,3.4-4.2v0c0-2.4-1.9-4.3-4.3-4.3l-26.3,0v-0.1l-2.6,0c-2.4,0-4.3-1.9-4.3-4.3l0,0
		c0-2.4,1.9-4.3,4.3-4.3l0,0c0.3,0,17.4-0.1,17.7-0.2c1-0.4,2.5-2.1,2.5-3.2v-2.2c0-1.4-2-3.1-3.4-3.1h-17.5h-3.1l-56.8-0.1
		c-2,0-3.6,1.6-3.6,3.6l0,1.5C205.9,97.6,207.5,99.2,209.5,99.2z"/>
</g>
</svg>
