<?xml version="1.0" encoding="utf-8"?>
<!-- Generator: Adobe Illustrator 23.0.2, SVG Export Plug-In . SVG Version: 6.00 Build 0)  -->
<svg version="1.1" id="Layer_1" xmlns="http://www.w3.org/2000/svg" xmlns:xlink="http://www.w3.org/1999/xlink" x="0px" y="0px"
	 viewBox="0 0 1760 1800" style="enable-background:new 0 0 1760 1800;" xml:space="preserve">
<style type="text/css">
	.st0{display:none;}
	.st1{display:inline;}
	.st2{fill-rule:evenodd;clip-rule:evenodd;fill:#CC6B8E;}
	.st3{fill-rule:evenodd;clip-rule:evenodd;fill:#EFE4EF;}
	.st4{display:inline;fill-rule:evenodd;clip-rule:evenodd;fill:#CC6B8E;}
	.st5{fill:url(#SVGID_1_);}
	.st6{fill:#0A2730;}
	.st7{fill:#10353D;}
	.st8{fill:url(#SVGID_2_);}
	.st9{fill:url(#SVGID_3_);}
	.st10{fill:url(#SVGID_4_);}
	.st11{fill:#52686D;}
	.st12{fill:#50435D;}
	.st13{fill:#1D2F33;}
</style>
<g>
	
		<image style="overflow:visible;enable-background:new    ;" width="500" height="708" xlink:href="../SCR/f3e442b94c782fa47b750cd341e7c0a9.gif"  transform="matrix(1 0 0 1 -803.6268 -372.9236)">
	</image>
</g>
<g class="st0">
	<title>Page 1</title>
	<desc>Created with Sketch.</desc>
	<g id="Page-1_1_" class="st1">
		<path class="st2" d="M280.1,602.1L152.6,707c-2.9,2.4-6.8,2.4-9.7,0l-10.9-9.1c-2.3-1.8-5.2-2.3-7.8-1.1
			c-41.7,18.3-84,36.9-125.7,55.2l0,0c0,12.6,0,25.1,0,37.7c367.4-0.6,735.5-0.9,1102.9-0.7c219.2,0.1,440.5,0.3,659.7,0.7l0.2-38.1
			c0,0-32.7-4.8-34-5c-30.2-5-67-22.1-88.6-32.3c-44.7-21-79-37.5-106.5-50.8c-0.6-0.3-1.5-0.6-2.6-0.7c-1.3-0.1-2.6,0.1-3.9,0.6
			l-121.3,57.2c-2.2,1-4.8,0.9-7-0.3l-71.6-42.1c-2.5-1.5-5.5-1.4-7.9,0.2l-5.9,3.9c-2.4,1.6-5.4,1.7-7.8,0.2l-92.4-52.5
			c-2.1-1.1-4.6-1.3-6.8-0.3L1092.9,681c-2.3,1-4.9,0.9-7-0.5c-39.3-26.1-98.3-55-107.2-59.4c-2.5-1.2-5-1.2-5-1.2
			c-2.2,0-3.9,0.7-5,1.2c-3.6,1.7-11.8,6.5-22.1,13.4c-2.6,2.3-6.1,2.6-9,0.9l-9.3-5.6c-2.7-1.6-5.9-1.5-8.4,0.5l-136,100.8
			c-2.7,2.1-6.2,2.1-8.9,0.1l-63.8-45.8c-2.2-1.6-5-2-7.5-0.8l-11.5,5.2c-2.8,1.3-5.9,0.7-8.2-1.4l-30.7-27.8
			c-2.7-2.5-6.5-2.8-9.5-0.7l-1.4,1c-3,2.2-6.9,1.8-9.7-0.8L615,643c-2.5-2.4-5.9-2.9-8.8-1.4l-124.3,66.3c-2.5,1.3-5.3,1.1-7.7-0.3
			l-99.7-66.2c-2-1.4-4.4-1.6-6.7-0.8l-23.3,8.2c-2.7,0.9-5.6,0.3-7.8-1.7l-46.4-44.5C287.3,599.8,283.2,599.6,280.1,602.1z"/>
		<path class="st3" d="M223.4,658.5l56.7-47.4c2.4-2,5.6-1.8,7.9,0.2l48,45.7c0.2,0.2,0.4,0.5,0.6,0.7l22,27.1
			c5,6.2-1.5,15.6-7.9,11.5l-6.8-4.5c-2.2-1.4-4.9-0.7-6.4,1.5c-0.1,0.2-0.2,0.5-0.3,0.7l-5.2,31.3c-0.3,1.6-2.2,1.8-2.8,0.3
			c-2.8-7.2-6.3-9-9.5-8.1c-4.5,1-8.5-3.7-7.7-8.8l0.9-6.1c0.1-0.5,0-0.8-0.2-1.1c-8.8-16.1-17.3-13.4-17.1-14.3
			c1.9-8,0.2-29.2-14.5-13.8c-2.8,3-5.9-5.6-8.8-8.4c-2.2-2.1-5.5-1.6-7.2,1c-8.1,12.5-16.3,25-24.5,37.5c-4.1,6.4-12.9,1.7-11.4-6
			l0.7-3.8c1.1-5.6-3.7-10.6-8.4-8.6l0,0c-5.9,2.4-11-5.3-7.5-11.1l8.1-13.5C222.3,659.5,222.8,659,223.4,658.5z"/>
		<path class="st3" d="M292.1,658.2"/>
		<path class="st3" d="M81.2,719.2l47.4-20.9c1.5-0.7,3.1-0.5,4.4,0.7l16.7,13.5c1.5,1.3,3.5,1.4,5.1,0.2l16.8-11.2
			c2.9-2,6.6,0.1,7,4l4.8,46.9c0.5,5-4.8,8-7.9,4.5l-22.1-24.8c-1.5-1.7-3.9-2.1-5.7-0.7l-22.7,16c-3.9,2.8-8.6-1.8-6.8-6.7l0,0
			c2-5.5-4.2-10.2-7.8-5.7l-10.5,13c-2,2.4-6.9,3-7.2-0.3c-2.3-26.2-10.6-15.7-13.5-20.1c-1.6-2.3,1.6,2.3,0,0
			C77.3,724.7,78.3,720.6,81.2,719.2z"/>
		<path class="st3" d="M623.8,736l-29.6-43.8l-0.1-0.1c-4.4-3.6-16-4.7-27.3-0.5l-37.3,12.5c-4.1,0.9-11.9-6.4-8.4-9l23.7-12.2
			c0.1-0.1,0.3-0.2,0.4-0.2l65.2-36.2c1.7-0.9,3.8-0.7,5.3,0.8l20.3,20.3c1.5,1.5,3.7,1.8,5.5,0.7l8.3-5c1.7-1,3.7-0.8,5.2,0.5
			l34.1,29.7c1.4,1.3,3.4,1.5,5,0.6l13.8-7.6c1.6-0.9,3.5-0.7,5,0.6l27.3,23.3c0.1,0.1,0.1,0.1,0.2,0.1l0,0
			c4.7,3.6,1.2,11.8-4.2,9.9l-10-3.7c-3.8-1.4-7.4,2.8-6.1,7l3,10.2c1.4,4.8-3.1,9.1-6.9,6.7l-64.3-41.1c-2.7-1.7-6-0.2-6.9,3.1
			C644.9,702.7,627.2,741.1,623.8,736z"/>
		<path class="st3" d="M858.8,684.9l53.9-38c0.9-0.7,2-0.8,3-0.3l14.1,6.2c1.1,0.5,2.2,0.2,3.2-0.5l32.8-26.9c1-0.8,2.2-0.9,3.3-0.5
			l99.7,48.1c2.5,1.3,2.8,5.3,0.4,6.9l-9.8,6.8c-0.6,0.5-1.3,0.6-2,0.6l-96.4-8c-0.2,0-0.5,0-0.7,0l-45.2,7l-54.3,5.7
			C857.3,692.5,855.7,687.1,858.8,684.9z"/>
		<path class="st3" d="M1150.4,659.9l54.9-26.7c1.8-0.9,3.8-0.8,5.6,0.1l79.2,43.7c3.4,1.8,4.8,6.5,3.1,10.3l-5.1,12.1
			c-1.9,4.4-6.8,5.7-10.2,2.8l-15.2-13.4c-0.5-0.5-1.1-0.8-1.7-1.1l-37.6-16.6c-1.6-0.7-3.4-0.7-5,0l-25.2,11.6
			c-1,0.5-1.9,1.1-2.6,2.1l-0.5,0.6c-3.3,4.4-9.4,3.2-11.3-2.1l-4.4-12.3c-1.6-4.5-6.5-6.2-10-3.4l-7.5,5.9
			c-1.9,1.5-4.3,1.7-6.4,0.7l0,0C1144.9,671.4,1144.9,662.5,1150.4,659.9z"/>
		<path class="st3" d="M1461.4,704l67.8-35.2c0.7-0.3,1.4-0.3,2.1,0l78.6,39.1c2.7,1.4,1.6,6-1.3,5.5l-12.3-1.6
			c-1.2-0.1-2.3,0.7-2.7,2l-5.4,17.7c-0.7,2.2-3.3,2.6-4.4,0.7l-21.1-33.7c-1-1.7-3.2-1.6-4.2,0.1l-19.7,34.9
			c-0.9,1.6-3,1.8-4.1,0.3l-15.7-21.5c-0.9-1.1-2.3-1.4-3.4-0.5l-25.3,20.7c-0.9,0.7-2.1,0.7-3,0l-20.8-18.1c-0.8-0.7-1.9-1-2.9-1
			l0,0C1458.7,713.8,1457,706.3,1461.4,704z"/>
	</g>
	<rect x="-1.4" y="775" class="st4" width="1762.7" height="425"/>
</g>
<g id="Layer_3">
	
		<linearGradient id="SVGID_1_" gradientUnits="userSpaceOnUse" x1="884.15" y1="518.9608" x2="884.15" y2="3268.8347" gradientTransform="matrix(1 0 0 -1 0 1800)">
		<stop  offset="1.550644e-02" style="stop-color:#0A3C47"/>
		<stop  offset="0.6677" style="stop-color:#904B6B"/>
		<stop  offset="0.7769" style="stop-color:#CC6B8E"/>
		<stop  offset="0.9514" style="stop-color:#EC8E9E"/>
	</linearGradient>
	<path class="st5" d="M1776,137.2L1776,137.2V13.5l0,0c-214.4-11.2-281.3-9.4-281.3-9.4c-267.5,7.3-265,14.9-382.7,12.7
		C973.6,14.4,982.3,4.5,843.8,4.2C778.9,4,707,6.3,563.1,10.8c-136.9,4.3-118.8,4.8-136.4,4.6C278.4,13.8,198.8-9.2,53.4,4.2
		C11.3,8.1-0.9,11.7-7.2,13.8v123.4l0,0v421.7h-0.5v681.5h1783.2V614.6h0.5V137.2z"/>
</g>
<g id="Layer_5">
	<path class="st6" d="M1764.5,1115.1h-15.4c-14.2,8.8-28.3,35.9-34.9,36.2c-23.8,1.2-33.8,10.1-59.1,20.4
		c-22.9,9.2-55.1,22.2-88.7,18.1c-42.3-5.2-42.6-32.1-91-38.4c-21.3-2.8-20.8,2.5-66,0c-23.5-1.3-56.9-4.5-56.9-4.5
		s-57.7,18.4-63.7,20.4c-106.6,33.8-200.1,63.4-293.4,38.4c-81.9-22-102.4-25.9-143.3-33.9c-15.7-3.1-37.1-6.8-54.6,4.5
		c-14.3,9.2-20.1,24.7-27.3,22.6c-8.1-2.3-11.4-24.9-11.4-24.9s-24.7-0.1-29.6,0c-44.8,0.6-77.1,35.4-109.2,29.4
		c0,0-2.4-0.5-22.7-4.5c0,0-10.7,10.7-18.2,15.8c-20,13.7-46,7.2-47.8,6.8c-7.2-1.9-12.4-4.8-25-13.6
		c-48.9-34.1-54.5-48.7-75.1-49.8c-6.8-0.4-12.7,0.9-29.6,0c-11.6-0.6-19.9-1.9-22.7-2.3c-19.6-2.6-35.8,1.5-70.5,6.8
		c-67.7,10.2-78.2,5.5-84.2,0c0,0-0.2-0.2-18.2-20.4c-0.1,0-13.4-2.2-13.6-2.3c-4.1-0.7-39.8-6.6-41-6.8
		c-12.6-2.1-41.6-6.7-117.5-18.2H-5.6v145v24.3v198.1v172.6V1800h1770.1v-144.9l0,0v-300l0,0V1115.1L1764.5,1115.1z"/>
	<path class="st7" d="M1484.5,1341.7c-17.6,25.8-73.1,28.9-73.1,50.4c0,4.8,2.8,7.5,13.9,18.9c46.8,48.2,44.1,48.6,58,59.3
		c22.2,16.9,30.2,16.7,46.7,27.7c67.4,45.3,81.7,149.8,84.5,148.8c0.5-0.2,0.5-4.3,0.5-12.5c0,0,0-3.2,0-6.4
		c-0.6-25.6-8-51.8-8-51.8c-10.7-50.7-24-72.1-39.8-131.4c-6.8-25.6-10.3-38.4-11.9-51.8c-8.4-66.9,2.2-194.2,3.3-204.7
		c0-0.2,0.1-0.5,0.1-0.9c-38.1-6.3-39.9-31.7-86.5-37.9c-21.2-2.8-20.7,2.5-65.6,0c-2.4-0.1-4.8-0.3-7.4-0.4
		c1.3,2.7,2.2,5.1,3.5,7.4C1416.1,1181.9,1515.3,1296.5,1484.5,1341.7z"/>
	<path class="st7" d="M70.3,1596.9c-42.9-32-57.3-68.2-70.8-73.8v159.8c11.8-0.6,18.4-39.1,56.9-53.4c12.2-4.5,26.3-6.2,27.9-13.9
		C85.7,1608.1,74.9,1600.3,70.3,1596.9z"/>
	<path class="st7" d="M849.5,1605.9c-9.7-1.3-13.6,13.8-45.2,38c-14,10.8-19.6,12.6-28.5,19c-32.4,23.2-43.8,59.2-49.9,73.7
		c-11.3,27-32.1,46.5-54.4,61.5h324.7c-25.5-15.2-48.7-31.7-65.9-49.6c-30.1-31.1-42.8-54.7-42.8-54.7
		C862.4,1647.3,864.9,1608,849.5,1605.9z"/>
	<path class="st7" d="M666.3,1205.8c3.9,8.2,4.7,10.2,7,14.6c4.7,9,6.8,10.1,11.1,17.4c8.8,14.8,4.4,17.4,10.4,24.3
		c9,10.4,18,3.6,31.3,15.3c2.2,1.9,6.8,7.3,16,18.1c6.4,7.5,8.6,10.4,12.8,11c5.9,0.8,7.4-5.2,16.5-5.7c7.5-0.4,13.1,2.2,14.6,0
		c1.4-2.2-2.4-6.9-3.8-8.9c-6.9-9.5-7-26.4-7.2-60.3c-0.1-20.4-0.1-30.5,0.6-32.8c0.1-0.2,0.2-0.4,0.3-0.8c-1.6,1.1-3.2,1.6-4.9,1.1
		c-8-2.3-11.3-24.9-11.3-24.9s-24.5-0.1-29.4,0c-26.4,0.4-48.3,12.7-68.5,21.4C663.4,1199,664.7,1202.5,666.3,1205.8z"/>
	<g>
		
			<linearGradient id="SVGID_2_" gradientUnits="userSpaceOnUse" x1="481.1128" y1="532.1795" x2="695.9877" y2="492.5751" gradientTransform="matrix(1 0 0 -1 0 1800)">
			<stop  offset="7.657260e-02" style="stop-color:#10353D"/>
			<stop  offset="0.2382" style="stop-color:#10353D"/>
			<stop  offset="0.7982" style="stop-color:#0A2730"/>
		</linearGradient>
		<path class="st8" d="M380.9,1251.3c0.2,0.1,1.1-0.9,2.5-2.8c-0.3-0.5-0.6-0.8-0.9-0.8C381.4,1247.7,380.5,1251.1,380.9,1251.3z"/>
		
			<linearGradient id="SVGID_3_" gradientUnits="userSpaceOnUse" x1="478.3761" y1="517.3314" x2="693.2511" y2="477.727" gradientTransform="matrix(1 0 0 -1 0 1800)">
			<stop  offset="7.657260e-02" style="stop-color:#10353D"/>
			<stop  offset="0.2382" style="stop-color:#10353D"/>
			<stop  offset="0.7982" style="stop-color:#0A2730"/>
		</linearGradient>
		<path class="st9" d="M539,1411.3c0.1-0.1-0.2-4.4-0.9-13c0-0.5-0.4-4.8-0.5-5.9c-2.3-27-6.7-56.6-6.7-56.6
			c-3.2-21.3-8.7-62.5-16.2-121.3c-3.7-3.8-7.5-7.7-11.4-11.5c-40.9-29.3-48.8-43.1-65.6-45.7c-0.4,0.2-0.8,0.4-1.2,0.6
			c-1.7,1.1-2.4,2.8-2.7,3.7c-11.2,27.2-41.5,74.8-50.5,86.8c1,1.8,1.9,5.9,2,6.5C389.6,1273.9,531.3,1418.3,539,1411.3z"/>
	</g>
	
		<linearGradient id="SVGID_4_" gradientUnits="userSpaceOnUse" x1="145.7538" y1="601.2229" x2="247.1727" y2="276.2213" gradientTransform="matrix(1 0 0 -1 0 1800)">
		<stop  offset="7.657260e-02" style="stop-color:#10353D"/>
		<stop  offset="0.2382" style="stop-color:#10353D"/>
		<stop  offset="0.7982" style="stop-color:#0A2730"/>
	</linearGradient>
	<path class="st10" d="M103,1275.6c35.5,45.3,62,79.1,68,122c3.1,22.3-3.6,17.2-1.7,52.3c2.6,50,17.9,94.9,22.7,94.1
		c2.1-0.3,1.3-9.1,1.7-29.6c1.2-57,9.2-101.7,13.3-124.2c7-39,9.1-31,11.4-52.9c3.8-35.1-0.6-63.8-6.2-100.6
		c-2.5-16.7-9.7-59.8-8.3-77.7c0.7-8.1,1.2-14.6,1.6-19.4c-3.9-0.6-8.8-1.5-8.9-1.5c-4-0.7-39.6-6.6-40.8-6.8
		c-11-1.8-34.6-5.6-91.5-14.3c8.3,12,16.6,30.8,19.6,48.8c0.4,2.3,1,8.1,1.7,24.4c0.9,22.1,0.1,42.6-1.7,61
		C102.8,1275.4,103,1275.6,103,1275.6z"/>
</g>
<g id="Layer_4">
	<ellipse class="st11" cx="319.5" cy="808.6" rx="106.7" ry="24.7"/>
	<ellipse class="st11" cx="1643.4" cy="922.1" rx="65.8" ry="14"/>
	<ellipse class="st11" cx="454.4" cy="715.3" rx="23" ry="6.3"/>
	<ellipse class="st11" cx="622.4" cy="746.9" rx="11.5" ry="6.3"/>
	<ellipse class="st11" cx="1524" cy="900.2" rx="11.5" ry="6.3"/>
	<ellipse class="st11" cx="1003.4" cy="409.1" rx="65.8" ry="14"/>
	<ellipse class="st11" cx="1097.3" cy="373.1" rx="14.2" ry="7"/>
	<ellipse class="st11" cx="1131.2" cy="423.1" rx="14.2" ry="7"/>
	<ellipse class="st12" cx="193.3" cy="111" rx="44.2" ry="18.9"/>
	<ellipse class="st13" cx="505.4" cy="893.9" rx="44.2" ry="18.9"/>
	<ellipse class="st13" cx="1516" cy="641.4" rx="81.4" ry="37.8"/>
</g>
</svg>
