<?xml version="1.0" encoding="utf-8"?>
<!-- Generator: Adobe Illustrator 23.0.2, SVG Export Plug-In . SVG Version: 6.00 Build 0)  -->
<svg version="1.1" id="Layer_1" xmlns="http://www.w3.org/2000/svg" xmlns:xlink="http://www.w3.org/1999/xlink" x="0px" y="0px"
	 viewBox="0 0 1760 600" style="enable-background:new 0 0 1760 600;" xml:space="preserve">
<style type="text/css">
	.st0{fill-rule:evenodd;clip-rule:evenodd;fill:#CC6B8E;}
	.st1{fill-rule:evenodd;clip-rule:evenodd;fill:#EFE4EF;}
</style>
<title>Page 1</title>
<desc>Created with Sketch.</desc>
<g id="Page-1_1_">
	<path class="st0" d="M280.1,2.1L152.6,107c-2.9,2.4-6.8,2.4-9.7,0L132,97.9c-2.3-1.8-5.2-2.3-7.8-1.1
		c-41.7,18.3-84,36.9-125.7,55.2l0,0c0,12.6,0,25.1,0,37.7c367.4-0.6,735.5-0.9,1102.9-0.7c219.2,0.1,440.5,0.3,659.7,0.7l0.2-38.1
		c0,0-32.7-4.8-34-5c-30.2-5-67-22.1-88.6-32.3c-44.7-21-79-37.5-106.5-50.8c-0.6-0.3-1.5-0.6-2.6-0.7c-1.3-0.1-2.6,0.1-3.9,0.6
		l-121.3,57.2c-2.2,1-4.8,0.9-7-0.3l-71.6-42.1c-2.5-1.5-5.5-1.4-7.9,0.2l-5.9,3.9c-2.4,1.6-5.4,1.7-7.8,0.2L1211.8,30
		c-2.1-1.1-4.6-1.3-6.8-0.3L1092.9,81c-2.3,1-4.9,0.9-7-0.5c-39.3-26.1-98.3-55-107.2-59.4c-2.5-1.2-5-1.2-5-1.2
		c-2.2,0-3.9,0.7-5,1.2c-3.6,1.7-11.8,6.5-22.1,13.4c-2.6,2.3-6.1,2.6-9,0.9l-9.3-5.6c-2.7-1.6-5.9-1.5-8.4,0.5l-136,100.8
		c-2.7,2.1-6.2,2.1-8.9,0.1l-63.8-45.8c-2.2-1.6-5-2-7.5-0.8l-11.5,5.2c-2.8,1.3-5.9,0.7-8.2-1.4l-30.7-27.8
		c-2.7-2.5-6.5-2.8-9.5-0.7l-1.4,1c-3,2.2-6.9,1.8-9.7-0.8L615,43c-2.5-2.4-5.9-2.9-8.8-1.4l-124.3,66.3c-2.5,1.3-5.3,1.1-7.7-0.3
		l-99.7-66.2c-2-1.4-4.4-1.6-6.7-0.8l-23.3,8.2c-2.7,0.9-5.6,0.3-7.8-1.7L290.3,2.6C287.3-0.2,283.2-0.4,280.1,2.1z"/>
	<path class="st1" d="M223.4,58.5l56.7-47.4c2.4-2,5.6-1.8,7.9,0.2L336,57c0.2,0.2,0.4,0.5,0.6,0.7l22,27.1c5,6.2-1.5,15.6-7.9,11.5
		l-6.8-4.5c-2.2-1.4-4.9-0.7-6.4,1.5c-0.1,0.2-0.2,0.5-0.3,0.7l-5.2,31.3c-0.3,1.6-2.2,1.8-2.8,0.3c-2.8-7.2-6.3-9-9.5-8.1
		c-4.5,1-8.5-3.7-7.7-8.8l0.9-6.1c0.1-0.5,0-0.8-0.2-1.1c-8.8-16.1-17.3-13.4-17.1-14.3c1.9-8,0.2-29.2-14.5-13.8
		c-2.8,3-5.9-5.6-8.8-8.4c-2.2-2.1-5.5-1.6-7.2,1c-8.1,12.5-16.3,25-24.5,37.5c-4.1,6.4-12.9,1.7-11.4-6l0.7-3.8
		c1.1-5.6-3.7-10.6-8.4-8.6l0,0c-5.9,2.4-11-5.3-7.5-11.1l8.1-13.5C222.3,59.5,222.8,59,223.4,58.5z"/>
	<path class="st1" d="M292.1,58.2"/>
	<path class="st1" d="M81.2,119.2l47.4-20.9c1.5-0.7,3.1-0.5,4.4,0.7l16.7,13.5c1.5,1.3,3.5,1.4,5.1,0.2l16.8-11.2
		c2.9-2,6.6,0.1,7,4l4.8,46.9c0.5,5-4.8,8-7.9,4.5l-22.1-24.8c-1.5-1.7-3.9-2.1-5.7-0.7l-22.7,16c-3.9,2.8-8.6-1.8-6.8-6.7l0,0
		c2-5.5-4.2-10.2-7.8-5.7l-10.5,13c-2,2.4-6.9,3-7.2-0.3c-2.3-26.2-10.6-15.7-13.5-20.1c-1.6-2.3,1.6,2.3,0,0
		C77.3,124.7,78.3,120.6,81.2,119.2z"/>
	<path class="st1" d="M623.8,136l-29.6-43.8l-0.1-0.1c-4.4-3.6-16-4.7-27.3-0.5l-37.3,12.5c-4.1,0.9-11.9-6.4-8.4-9l23.7-12.2
		c0.1-0.1,0.3-0.2,0.4-0.2l65.2-36.2c1.7-0.9,3.8-0.7,5.3,0.8L636,67.6c1.5,1.5,3.7,1.8,5.5,0.7l8.3-5c1.7-1,3.7-0.8,5.2,0.5
		l34.1,29.7c1.4,1.3,3.4,1.5,5,0.6l13.8-7.6c1.6-0.9,3.5-0.7,5,0.6l27.3,23.3c0.1,0.1,0.1,0.1,0.2,0.1l0,0c4.7,3.6,1.2,11.8-4.2,9.9
		l-10-3.7c-3.8-1.4-7.4,2.8-6.1,7l3,10.2c1.4,4.8-3.1,9.1-6.9,6.7l-64.3-41.1c-2.7-1.7-6-0.2-6.9,3.1
		C644.9,102.7,627.2,141.1,623.8,136z"/>
	<path class="st1" d="M858.8,84.9l53.9-38c0.9-0.7,2-0.8,3-0.3l14.1,6.2c1.1,0.5,2.2,0.2,3.2-0.5l32.8-26.9c1-0.8,2.2-0.9,3.3-0.5
		l99.7,48.1c2.5,1.3,2.8,5.3,0.4,6.9l-9.8,6.8c-0.6,0.5-1.3,0.6-2,0.6l-96.4-8c-0.2,0-0.5,0-0.7,0l-45.2,7L860.8,92
		C857.3,92.5,855.7,87.1,858.8,84.9z"/>
	<path class="st1" d="M1150.4,59.9l54.9-26.7c1.8-0.9,3.8-0.8,5.6,0.1l79.2,43.7c3.4,1.8,4.8,6.5,3.1,10.3l-5.1,12.1
		c-1.9,4.4-6.8,5.7-10.2,2.8l-15.2-13.4c-0.5-0.5-1.1-0.8-1.7-1.1l-37.6-16.6c-1.6-0.7-3.4-0.7-5,0l-25.2,11.6
		c-1,0.5-1.9,1.1-2.6,2.1l-0.5,0.6c-3.3,4.4-9.4,3.2-11.3-2.1l-4.4-12.3c-1.6-4.5-6.5-6.2-10-3.4l-7.5,5.9c-1.9,1.5-4.3,1.7-6.4,0.7
		l0,0C1144.9,71.4,1144.9,62.5,1150.4,59.9z"/>
	<path class="st1" d="M1461.4,104l67.8-35.2c0.7-0.3,1.4-0.3,2.1,0l78.6,39.1c2.7,1.4,1.6,6-1.3,5.5l-12.3-1.6
		c-1.2-0.1-2.3,0.7-2.7,2l-5.4,17.7c-0.7,2.2-3.3,2.6-4.4,0.7l-21.1-33.7c-1-1.7-3.2-1.6-4.2,0.1l-19.7,34.9c-0.9,1.6-3,1.8-4.1,0.3
		l-15.7-21.5c-0.9-1.1-2.3-1.4-3.4-0.5l-25.3,20.7c-0.9,0.7-2.1,0.7-3,0l-20.8-18.1c-0.8-0.7-1.9-1-2.9-1l0,0
		C1458.7,113.8,1457,106.3,1461.4,104z"/>
</g>
<rect x="-1.4" y="175" class="st0" width="1762.7" height="425"/>
</svg>
