<?xml version="1.0" encoding="utf-8"?>
<!-- Generator: Adobe Illustrator 23.0.2, SVG Export Plug-In . SVG Version: 6.00 Build 0)  -->
<svg version="1.1" id="Layer_1" xmlns="http://www.w3.org/2000/svg" xmlns:xlink="http://www.w3.org/1999/xlink" x="0px" y="0px"
	 viewBox="0 0 1782 211" style="enable-background:new 0 0 1782 211;" xml:space="preserve">
<style type="text/css">
	.st0{fill-rule:evenodd;clip-rule:evenodd;fill:#EC8E9E;}
</style>
<title>Page 1</title>
<desc>Created with Sketch.</desc>
<g id="Page-1">
	<path class="st0" d="M0,177.6L0,177.6L114.4,78l0,0l14.2-5l0,0c0,0,5.6-7.8,14.3-19.8c44.5,30.6,89,61.2,133.5,91.8
		C343.5,96.6,410.7,48.3,477.8,0l20,15.3l15.3-2.9L664.7,128l106.7-73.5L794,71.3l17.6-2.9L943.2,128l158.6-93.1l149.2,87.3
		l21.2-27.6c0,0,3.5,11.6,11.8,5.8c8.2-5.8,119.9-71.3,119.9-71.3l23.5,15.3l23-1.5L1586,128c26.8-11.5,53.6-23,80.5-34.5
		c38.5,28,77,56,115.5,84.1l0,0c0,11.1,0,22.2,0,33.3H0C0,199.8,0,188.7,0,177.6z"/>
</g>
</svg>
