<?xml version="1.0" encoding="utf-8"?>
<!-- Generator: Adobe Illustrator 23.0.2, SVG Export Plug-In . SVG Version: 6.00 Build 0)  -->
<svg version="1.1" id="Layer_1" xmlns="http://www.w3.org/2000/svg" xmlns:xlink="http://www.w3.org/1999/xlink" x="0px" y="0px"
	 viewBox="0 0 54 40" style="enable-background:new 0 0 54 40;" xml:space="preserve">
<style type="text/css">
	.st0{fill-rule:evenodd;clip-rule:evenodd;fill:#376F72;}
</style>
<title>Slice</title>
<desc>Created with Sketch.</desc>
<g>
	<g id="wave1" transform="translate(0.000000, -198.000000)">
		<g>
			<g id="Water" transform="translate(0.000000, 198.000000)">
				<path id="Page-1" class="st0" d="M2289.5,5.1L2289.5,5.1c-8-5.3-18.7-5.3-26.7,0s-18.9,5.3-26.9,0s-18.7-5.3-26.7,0l0,0
					c-8,5.3-18.9,5.3-26.9,0s-18.7-5.3-26.7,0s-18.9,5.3-26.9,0l0,0c-8-5.3-18.7-5.3-26.7,0s-18.9,5.3-26.9,0s-18.7-5.3-26.7,0l0,0
					c-8,5.3-18.9,5.3-26.9,0s-18.7-5.3-26.7,0s-18.9,5.3-26.9,0s-18.7-5.3-26.7,0s-18.9,5.3-26.9,0s-18.7-5.3-26.7,0
					s-18.9,5.3-26.9,0s-18.7-5.3-26.7,0s-18.9,5.3-26.9,0s-18.7-5.3-26.7,0s-18.9,5.3-26.9,0l-1.2-0.8c-7.3-4.8-17.1-4.8-24.3,0l0,0
					c-8.7,5.8-20.5,5.8-29.2,0l0,0c-7.3-4.8-17.1-4.8-24.3,0l0,0c-8.7,5.8-20.5,5.8-29.2,0l0,0c-7.7-3.8-16.7-3.8-24.3,0l0,0
					c-8.6,5.7-20.1,5.7-28.8,0.1l0,0c-7.5-4.9-17.7-4.8-25.1,0.1c-8.4,5.5-19.6,5.6-28.1,0.1l0,0c-7.8-5-18.2-5-25.9,0.1l0,0
					c-8.1,5.4-19.1,5.4-27.3,0.1l-2.6-1.7c-6.4-4.2-15.1-4.1-21.4,0.2l-7.4,5c-4.9,3.3-11.6,3.3-16.5,0l-3.8-2.5
					c-8.8-5.8-20.7-5.8-29.6,0c-7.2,4.7-16.8,4.7-24,0l-0.8-0.5c-8.4-5.5-19.6-5.5-28,0c-7.6,5.1-18,5.1-25.6,0l0,0
					c-8.4-5.5-19.6-5.5-28,0l-4.6,3c-4.9,3.2-11.5,3.2-16.4,0l0,0c-11.1-7.3-26-7.3-37.1,0l0,0c-4.9,3.2-11.5,3.2-16.4,0l-5.1-3.3
					c-8.1-5.3-19-5.3-27,0l0,0c-7.3,7.3-19.3,7.3-26.6,0l0,0c-8.1-5.3-19-5.3-27,0l-2.4,1.6c-6.5,4.3-15.3,4.3-21.8,0
					c-9.5-6.3-22.3-6.3-31.8,0l0,0c-6.5,4.3-15.3,4.3-21.8,0l-0.7-0.5c-9.1-6-21.3-6-30.3,0l0,0c-6.9,4.6-16.3,4.6-23.3,0
					c-9.1-6-21.3-6-30.3,0c-6.9,4.6-16.3,4.6-23.3,0l0,0c-9.1-6-21.3-6-30.3,0c-6.9,4.6-16.3,4.6-23.3,0c-9.1-6-21.3-6-30.3,0
					L868,6.7c-6.6,4.3-15.4,4.3-22,0l0,0c-9.4-6.2-22.2-6.2-31.6,0l0,0c-6.6,4.3-15.4,4.3-22,0l-2.8-1.9c-7.9-5.2-18.1-5.2-26,0
					L763.3,5c-8,5.3-18.9,5.3-26.9,0s-18.7-5.3-26.7,0l0,0c-8,5.3-18.9,5.3-26.9,0l0,0c-8-5.3-18.7-5.3-26.7,0l0,0
					c-8,5.3-18.9,5.3-26.9,0l0,0c-8-5.3-18.7-5.3-26.7,0l0,0c-8,5.3-18.9,5.3-26.9,0l0,0c-8-5.3-18.7-5.3-26.7,0S530,10.3,522,5
					s-18.7-5.3-26.7,0s-18.9,5.3-26.9,0s-18.7-5.3-26.7,0s-18.9,5.3-26.9,0s-18.7-5.3-26.7,0l0,0c-8,5.3-18.9,5.3-26.9,0l0,0
					c-8-5.3-18.7-5.3-26.7,0l0,0c-8,5.3-18.9,5.3-26.9,0l0,0c-8-5.3-18.7-5.3-26.7,0l0,0c-8,5.3-18.9,5.3-26.9,0l0,0
					c-8-5.3-18.7-5.3-26.7,0s-18.9,5.3-26.9,0l-1.2-0.8c-7.3-4.8-17.1-4.8-24.3,0l0,0c-8.7,5.8-20.5,5.8-29.2,0l0,0
					c-7.3-4.8-17.1-4.8-24.3,0l0,0c-8.7,5.8-20.5,5.8-29.2,0l0,0c-7.3-4.8-17.1-4.8-24.3,0l0,0c-8.6,5.7-20.1,5.7-28.8,0.1l0,0
					C31.6-0.4,21.5-0.4,14,4.6C9.8,7.3,4.9,8.7,0,8.7v233.5h2305V8.8C2305,8.7,2297.6,10.4,2289.5,5.1"/>
			</g>
		</g>
	</g>
</g>
</svg>
