<svg xmlns="http://www.w3.org/2000/svg" style="display: none;"><symbol id="power" viewBox="0 0 480.00199 480"><title>power</title><path d="m24.113281 294.679688c0 .210937-.113281 1.074218-.113281 1.320312v32c0 4.417969 3.582031 8 8 8h184v96h-144v48h336v-48h-144v-96h184c4.417969 0 8-3.582031 8-8v-32c0-.246094-.070312-1.109375-.109375-1.320312l-48-288c-.644531-3.851563-3.980469-6.67578175-7.890625-6.679688h-320c-3.90625.00390625-7.242188 2.828125-7.886719 6.679688zm46.664063-182.679688h101.601562l-8.875 80h-106.054687zm107.046875 96h124.351562l8.890625 80h-142.128906zm149.375 80-8.925781-80h106.953124l13.328126 80zm95.355469-96h-106.058594l-8.886719-80h101.601563zm-122.160157 0h-120.800781l8.886719-80h103.023437zm-245.601562 16h106.9375l-8.890625 80h-111.390625zm337.207031 240v16h-304v-16zm-144-16h-16v-96h16zm192-112h-400v-16h400zm-33.445312-224h-100.722657l-8.894531-80h96.289062zm-125.753907-80 8.894531 80h-99.421874l8.925781-80zm-97.734375 0-8.898437 80h-100.71875l13.328125-80zm0 0"/><path d="m34.34375 45.65625c3.140625 3.03125 8.128906 2.988281 11.214844-.097656 3.085937-3.085938 3.128906-8.074219.097656-11.214844l-24-24c-3.136719-3.03125-8.128906-2.988281-11.214844.097656-3.085937 3.085938-3.128906 8.078125-.097656 11.214844zm0 0"/><path d="m8 80h24c4.417969 0 8-3.582031 8-8s-3.582031-8-8-8h-24c-4.417969 0-8 3.582031-8 8s3.582031 8 8 8zm0 0"/><path d="m38.65625 99.5625c-2.449219-3.679688-7.417969-4.671875-11.09375-2.21875l-24 16c-3.675781 2.453125-4.667969 7.421875-2.21875 11.097656 2.453125 3.675782 7.421875 4.667969 11.097656 2.214844l24-16c3.675782-2.449219 4.667969-7.417969 2.214844-11.09375zm0 0"/><path d="m440 48c2.121094 0 4.15625-.84375 5.65625-2.34375l24-24c2.082031-2.007812 2.914062-4.980469 2.183594-7.78125-.734375-2.796875-2.917969-4.980469-5.714844-5.710938-2.796875-.734374-5.769531.101563-7.78125 2.179688l-24 24c-2.285156 2.289062-2.96875 5.730469-1.730469 8.71875 1.234375 2.988281 4.152344 4.9375 7.386719 4.9375zm0 0"/><path d="m448 64c-4.417969 0-8 3.582031-8 8s3.582031 8 8 8h24c4.417969 0 8-3.582031 8-8s-3.582031-8-8-8zm0 0"/><path d="m452.441406 97.34375c-3.675781-2.449219-8.644531-1.457031-11.097656 2.21875-2.449219 3.675781-1.457031 8.640625 2.21875 11.09375l24 16c3.675781 2.453125 8.640625 1.460938 11.09375-2.214844 2.453125-3.675781 1.460938-8.644531-2.214844-11.097656zm0 0"/></symbol><symbol id="ar" viewBox="0 0 480 480"><title>ar</title><path d="m456 432v-304c0-3.144531-1.84375-5.996094-4.707031-7.289062-2.867188-1.292969-6.222657-.789063-8.582031 1.289062l-60.152344 53.070312-6.558594-167.382812c-.167969-4.296875-3.699219-7.69140625-8-7.6875h-64c-4.300781-.00390625-7.832031 3.390625-8 7.6875l-4.992188 127.382812-45.886718 38.25-5.121094-125.648437c-.175781-4.289063-3.707031-7.675781-8-7.671875h-72c-4.292969-.003906-7.824219 3.382812-8 7.671875l-3.550781 86.902344-121.738281 107.425781c-1.722657 1.519531-2.710938 3.703125-2.710938 6v184c-13.253906 0-24 10.746094-24 24s10.746094 24 24 24h432c13.253906 0 24-10.746094 24-24s-10.746094-24-24-24zm-140.609375-311.199219c-2.546875-1.164062-5.519531-.910156-7.832031.671875l1-25.472656h54.890625l3.640625 92.726562-47.089844 41.546876v-102.273438c-.015625-3.089844-1.8125-5.890625-4.609375-7.199219zm47.007813-51.058593.417968 10.257812h-53.601562l.578125-14.625.023437-1.375h52.367188zm-2.09375-53.742188 1.296874 32h-51.121093l1.253906-32zm-184.304688 214.910156v-102.910156c.007812-2.652344-1.308594-5.136719-3.507812-6.617188-2.203126-1.484374-4.996094-1.769531-7.453126-.765624l1.359376-32.617188h59.203124l4 98.222656zm48.320312-174.910156.648438 16h-57.9375l.648438-16zm-184.320312 195.609375 120-105.882813v102.273438c0 .773438.113281 1.539062.335938 2.28125.371093.867188.816406 1.703125 1.328124 2.496094.078126.109375.40625.488281.503907.589844.671875.773437 1.488281 1.410156 2.398437 1.871093.976563.316407 1.976563.542969 2.992188.671875h.800781c.832031-.101562 1.652344-.269531 2.457031-.503906.808594-.300781 1.566406-.730469 2.238282-1.269531l130.753906-108.90625c.066406-.03125.128906-.070313.191406-.109375v102.878906c.011719.816406.140625 1.625.390625 2.398438.394531.871093.859375 1.707031 1.394531 2.496093.085938.121094.429688.503907.519532.601563.742187.664062 1.546874 1.257812 2.398437 1.777344.941406.289062 1.90625.496093 2.882813.621093h.871093c.859375-.113281 1.707031-.296875 2.535157-.550781.792968-.3125 1.527343-.753906 2.175781-1.304688l.097656-.054687 122.734375-108.257813v286.273438h-120v-112c0-4.417969-3.582031-8-8-8h-144c-4.417969 0-8 3.582031-8 8v112h-120zm264 180.390625h-128v-104h128zm152 32h-432c-4.417969 0-8-3.582031-8-8s3.582031-8 8-8h432c4.417969 0 8 3.582031 8 8s-3.582031 8-8 8zm0 0"/><path d="m168 296h144c4.417969 0 8-3.582031 8-8s-3.582031-8-8-8h-144c-4.417969 0-8 3.582031-8 8s3.582031 8 8 8zm0 0"/><path d="m136 320h-72c-4.417969 0-8 3.582031-8 8v80c0 4.417969 3.582031 8 8 8h72c4.417969 0 8-3.582031 8-8v-80c0-4.417969-3.582031-8-8-8zm-8 80h-56v-64h56zm0 0"/><path d="m344 416h72c4.417969 0 8-3.582031 8-8v-80c0-4.417969-3.582031-8-8-8h-72c-4.417969 0-8 3.582031-8 8v80c0 4.417969 3.582031 8 8 8zm8-80h56v64h-56zm0 0"/><path d="m224 400c4.417969 0 8-3.582031 8-8v-24c0-4.417969-3.582031-8-8-8s-8 3.582031-8 8v24c0 4.417969 3.582031 8 8 8zm0 0"/><path d="m256 400c4.417969 0 8-3.582031 8-8v-24c0-4.417969-3.582031-8-8-8s-8 3.582031-8 8v24c0 4.417969 3.582031 8 8 8zm0 0"/></symbol><symbol id="biofuel" viewBox="0 0 501.999 501.999"><title>biofuel</title><path d="M95.186,20h87.974c5.523,0,10-4.477,10-10s-4.477-10-10-10H95.186c-5.523,0-10,4.477-10,10S89.663,20,95.186,20z"/><path d="M435.312,0H315.741c-2.376,0-4.75,0.88-6.545,2.439l-43.368,37.542c-4.176,3.615-4.63,9.93-1.016,14.105 c1.978,2.285,4.763,3.455,7.565,3.455c2.319,0,4.649-0.802,6.541-2.439L319.468,20h105.844v53.105H193.16v-30.89 c0-5.523-4.477-10-10-10H95.186c-5.523,0-10,4.477-10,10v30.89H66.687c-5.523,0-10,4.477-10,10v331.452 c0,48.216,39.227,87.442,87.442,87.442h213.74c48.216,0,87.442-39.227,87.442-87.442c0.001,0.001,0.001-404.348,0.001-404.557 C445.312,4.477,440.835,0,435.312,0z M105.186,52.216h67.974v20.89h-67.974V52.216z M425.312,414.558 c0,37.188-30.254,67.442-67.442,67.442H144.129c-37.188,0-67.442-30.254-67.442-67.442V93.105h18.499h87.974h242.152V414.558z"/><path d="M171.73,127.65c-0.096,1.527-2.095,37.656,19.861,59.613c14.882,14.881,36.269,18.757,48.985,19.68v30.703 c-21.968-21.832-57.97-19.842-59.493-19.747c-5.029,0.316-9.038,4.325-9.354,9.354c-0.096,1.527-2.095,37.656,19.861,59.612 c14.882,14.882,36.27,18.757,48.986,19.68V394c0,5.523,4.477,10,10,10s10-4.477,10-10v-87.399 c12.595-0.812,34.612-4.52,49.83-19.737c21.956-21.957,19.957-58.085,19.861-59.612c-0.316-5.029-4.325-9.038-9.354-9.354 c-1.527-0.094-37.656-2.095-59.612,19.861c-0.25,0.25-0.48,0.51-0.724,0.764V207c12.595-0.812,34.612-4.52,49.83-19.737 c21.956-21.957,19.957-58.085,19.861-59.612c-0.316-5.029-4.325-9.038-9.354-9.354c-1.525-0.094-37.654-2.096-59.612,19.861 c-4.286,4.286-7.649,9.115-10.302,14.119c-2.653-5.004-6.016-9.833-10.302-14.119c-21.957-21.957-58.086-19.957-59.612-19.861 C176.055,118.612,172.046,122.621,171.73,127.65z M205.734,272.722c-9.811-9.81-12.834-24.793-13.729-34.548 c9.761,0.894,24.741,3.919,34.549,13.728c9.8,9.8,12.828,24.762,13.726,34.523C230.502,285.511,215.482,282.47,205.734,272.722z M275.444,251.901c9.81-9.811,24.793-12.834,34.548-13.729c-0.894,9.761-3.919,24.741-13.728,34.549 c-9.801,9.801-24.762,12.829-34.523,13.726C262.655,276.669,265.695,261.649,275.444,251.901z M275.444,152.299 c9.81-9.811,24.793-12.834,34.548-13.729c-0.894,9.761-3.919,24.741-13.727,34.549c-9.809,9.809-24.787,12.833-34.548,13.728 C262.61,177.086,265.635,162.107,275.444,152.299z M226.554,152.299c9.809,9.808,12.833,24.787,13.728,34.548 c-9.761-0.895-24.741-3.92-34.548-13.727c-9.81-9.811-12.834-24.794-13.729-34.549 C201.767,139.466,216.746,142.491,226.554,152.299z"/><path d="M250.577,419.376c-5.523,0-10,4.477-10,10v22.475c0,5.523,4.477,10,10,10s10-4.477,10-10v-22.475 C260.577,423.853,256.1,419.376,250.577,419.376z"/></symbol><symbol id="hydro" viewBox="0 0 502 502"><title>hydro</title><path d="M258.545,3.438C256.646,1.254,253.894,0,251,0s-5.646,1.254-7.545,3.437c-7.384,8.491-180.833,209.091-180.833,310.185 C62.622,417.494,147.128,502,251,502s188.378-84.506,188.378-188.377C439.378,212.529,265.929,11.928,258.545,3.438z M251,482 c-92.844,0-168.378-75.534-168.378-168.377c0-38.192,30.18-101.43,87.279-182.874C202.994,83.545,236.442,42.764,251,25.437 c14.538,17.301,47.919,57.998,81.002,105.172c57.162,81.513,87.376,144.797,87.376,183.013C419.378,406.466,343.844,482,251,482z "/><path d="M286.369,193c2.559,0,5.119-0.977,7.071-2.929l12-12c3.906-3.906,3.905-10.238,0-14.143 c-3.905-3.904-10.237-3.904-14.142,0l-12,12c-3.906,3.906-3.905,10.238,0,14.143C281.251,192.023,283.81,193,286.369,193z"/><path d="M308.845,271.698C308.835,271.674,308.835,271.676,308.845,271.698L308.845,271.698z"/><path d="M308.877,271.776c-0.015-0.036-0.025-0.061-0.032-0.077C308.851,271.713,308.862,271.74,308.877,271.776z"/><path d="M309.714,273.797c-0.039-0.095-0.166-0.401-0.431-1.041c-0.224-0.541-0.349-0.841-0.406-0.98 c0.074,0.178,0.239,0.577,0.405,0.977c-1.549-3.734-5.194-6.17-9.237-6.17h-83.117l53.522-53.521 c3.905-3.905,3.905-10.237,0-14.143c-3.905-3.904-10.237-3.904-14.143,0l-70.593,70.593c-2.86,2.86-3.715,7.161-2.167,10.898 c1.548,3.736,5.194,6.173,9.239,6.173h83.117l-86.524,86.524v-26.135c0-5.522-4.477-10-10-10c-5.523,0-10,4.478-10,10v50.277 c0,5.434,4.571,10,10,10h50.278c5.523,0,10-4.478,10-10c0-5.522-4.477-10-10-10H203.52l103.595-103.596 c2.861-2.859,3.716-7.159,2.169-10.895C309.473,273.214,309.661,273.668,309.714,273.797z"/><path d="M309.714,273.797C309.733,273.844,309.732,273.841,309.714,273.797L309.714,273.797z"/></symbol><symbol id="drilling-rig" viewBox="0 0 480 480"><title>drilling-rig</title><path d="m400 431.773438c4.417969 0 8-3.582032 8-8v-40c0-4.417969-3.582031-8-8-8h-56v-192c0-13.253907-10.746094-24-24-24h-16v-8c0-4.417969-3.582031-8-8-8h-14.664062l-1.335938-48.214844c-.117188-4.335938-3.664062-7.785156-8-7.785156h-64c-4.335938 0-7.882812 3.449218-8 7.785156l-1.335938 48.214844h-14.664062c-4.417969 0-8 3.582031-8 8v32c0 4.417968 3.582031 8 8 8h13.328125l-1.777344 64h-27.550781c-4.417969 0-8 3.582031-8 8v8h-16c-13.253906 0-24 10.746093-24 24v32h-64c-13.253906 0-24 10.746093-24 24v112h-32v16h480v-16h-80zm-8-16h-312v-24h312zm-160 16v32h-80v-32zm16 0h72v32h-72zm20.441406-176h-32.554687l32-20zm-1.242187-44.425782-31.3125-19.574218h30.777343zm-53.414063-35.574218.4375-16h51.554688l.4375 16zm43.117188 48-45.238282 28.28125 1.542969-55.59375zm12 48 .441406 16h-58.671875l.441406-16zm16 0h19.097656v16h-18.664062zm-13.125 104h-37.890625l37.371093-18.679688zm-1.3125-47.046876-41.585938-24.953124h40.898438zm-7.082032 14.398438-55.015624 27.511719 1.65625-59.527344zm40.617188-159.351562v-8h16c4.417969 0 8 3.582031 8 8v192h-40.222656l-.800782-28.238282c1.414063-2.476562 1.332032-5.535156-.214843-7.929687l-.984375-35.832031h26.222656c4.417969 0 8-3.582032 8-8v-32c0-4.417969-3.582031-8-8-8h-27.550781l-1.777344-64h13.328125c4.417969 0 8-3.582032 8-8zm-16-24v16h-5.777344l-.445312-16zm-58.703125-16 35.199219-30.785157.832031 30.785157zm21.40625-40-35.792969 31.320312.875-31.320312zm-58.703125 72v-16h6.222656l-.445312 16zm-16 96h19.113281l-.449219 16h-18.664062zm-32 16h16v8c0 4.417968 3.582031 8 8 8h26.222656l-2 72h-56.222656v-80c0-4.417969 3.582031-8 8-8zm-96 64c0-4.417969 3.582031-8 8-8h64v32h-48c-4.417969 0-8 3.582031-8 8v40c0 4.417968 3.582031 8 8 8v32h-24zm40 112v-32h48v32zm248 0v-32h48v32zm0 0"/><path d="m233.34375 3.332031-19.625 29.441407c-8.785156 13.179687-6.449219 30.832031 5.464844 41.273437 11.914062 10.441406 29.71875 10.441406 41.632812 0 11.914063-10.441406 14.25-28.09375 5.464844-41.273437l-19.625-29.441407c-1.570312-2.097656-4.035156-3.332031-6.65625-3.332031s-5.085938 1.234375-6.65625 3.332031zm16 59.425781c-5.539062 4.144532-13.148438 4.144532-18.6875 0-6.613281-4.964843-8.199219-14.230468-3.617188-21.113281l12.960938-19.472656 12.96875 19.449219c4.601562 6.890625 3.007812 16.175781-3.625 21.136718zm0 0"/></symbol><symbol id="earth" viewBox="0 0 194.545 194.545"><title>earth</title><g> <g> <path d="M165.576,29.059C147.598,10.776,123.59,0.456,97.978,0c-0.02,0-0.041,0-0.061,0c-1.857,0-3.378,1.488-3.412,3.352 c-0.034,1.884,1.468,3.439,3.352,3.473c48.969,0.874,88.808,41.445,88.808,90.44c0,23.719-9.114,46.135-25.663,63.119 c-16.519,16.952-38.625,26.646-62.249,27.298c-1.884,0.051-3.371,1.621-3.318,3.505c0.051,1.853,1.568,3.32,3.41,3.32 c0.031,0,0.063,0,0.094-0.002c25.409-0.7,49.186-11.126,66.951-29.358c17.797-18.266,27.6-42.375,27.6-67.884 C193.49,71.586,183.578,47.365,165.576,29.059z"/> </g> </g><g> <g> <path d="M97.792,13.653c-1.949-0.092-3.442,1.464-3.477,3.349c-0.036,1.886,1.464,3.441,3.349,3.477 c41.545,0.771,75.346,35.217,75.346,76.786c0,20.18-7.765,39.24-21.866,53.671c-14.078,14.406-32.905,22.612-53.011,23.105 c-1.886,0.046-3.376,1.611-3.33,3.495c0.046,1.857,1.565,3.33,3.412,3.33c0.029,0,0.056,0,0.085,0 c21.897-0.538,42.399-9.474,57.726-25.16c15.355-15.713,23.811-36.468,23.811-58.441C179.838,52,143.032,14.493,97.792,13.653z"/> </g> </g><g> <g> <path d="M97.835,40.969c-1.934-0.039-3.456,1.43-3.509,3.314c-0.055,1.884,1.43,3.456,3.314,3.509 c26.952,0.761,48.065,22.494,48.065,49.473c0,26.732-20.91,48.456-47.604,49.458c-1.882,0.072-3.354,1.655-3.282,3.54 c0.068,1.84,1.582,3.285,3.408,3.285c0.043,0,0.087-0.002,0.133-0.002c30.377-1.14,54.173-25.863,54.173-56.281 C152.533,66.565,128.507,41.836,97.835,40.969z"/> </g> </g><g> <g> <path d="M99.901,0.995c-0.647-0.642-1.485-0.99-2.432-0.99C44.307,0.478,1.055,44.112,1.055,97.275s43.252,96.799,96.415,97.27 c0.01,0,0.021,0,0.031,0c0.899,0,1.763-0.355,2.401-0.992c0.647-0.64,1.01-1.512,1.01-2.423V3.418 C100.912,2.509,100.548,1.637,99.901,0.995z M94.087,187.622c-47.843-2.241-86.205-42.068-86.205-90.348 c0-48.28,38.362-88.108,86.205-90.348V187.622z"/> </g> </g><g> <g> <path d="M61.618,44.146c-6.656-6.659-8.627-18.289-9.108-26.873c-0.068-1.202-0.763-2.278-1.83-2.835 c-1.067-0.556-2.348-0.51-3.372,0.121C26.505,27.399,11.313,47.358,4.531,70.76c-0.263,0.911-0.137,1.891,0.352,2.705 c0.486,0.814,1.292,1.388,2.22,1.584c12.631,2.674,15.039,5.734,15.476,6.608c3.2,6.4,7.758,8.375,11.02,8.904 c0.722,0.118,1.454,0.176,2.198,0.176c5.205,0,10.885-2.848,16.229-8.192c1.166-1.166,2.405-2.331,3.652-3.505 c6.047-5.695,12.901-12.15,13.024-20.335C68.777,53.75,66.459,48.988,61.618,44.146z M51,74.068 c-1.299,1.224-2.586,2.437-3.799,3.651c-4.449,4.449-9.001,6.671-12.508,6.105c-2.454-0.398-4.475-2.154-6.007-5.217 c-2.022-4.045-7.31-7.064-16.524-9.392c6.166-18.512,18.075-34.5,34.046-45.752c1.394,11.307,4.944,19.872,10.585,25.511 c3.468,3.468,5.13,6.617,5.086,9.629C61.798,63.899,56.31,69.069,51,74.068z"/> </g> </g><g> <g> <path d="M100.693,106.742c-9.24-12.897-26.059-14.568-37.772-10.663c-14.807,4.936-22.262,11.148-16.546,28.297 c3.886,11.658,11.104,12.93,17.469,14.051c2.859,0.503,5.56,0.98,8.221,2.311c2.906,1.452,3.927,12.491-1.712,29.44 c-0.51,1.533,0.123,3.212,1.517,4.026c0.748,0.437,6.071,3.422,11.766,3.422c1.734,0,3.502-0.276,5.188-0.985 c2.51-1.058,5.809-3.54,7.264-9.351c1.36-5.446,3.072-9.967,5.007-14.894c0.155-0.398,0.236-0.821,0.236-1.248V108.73 C101.332,108.017,101.108,107.32,100.693,106.742z M94.503,150.501c-1.862,4.762-3.64,9.533-5.04,15.131 c-0.928,3.714-2.698,4.463-3.28,4.71c-2.429,1.033-5.965,0.099-8.448-0.893c2.584-8.699,7.581-29.72-2.616-34.818 c-3.552-1.775-7.025-2.388-10.09-2.927c-5.973-1.053-9.579-1.688-12.179-9.487c-3.845-11.537-1.674-15.029,12.228-19.662 c9.143-3.052,22.069-1.992,29.425,7.313V150.501z"/> </g> </g><g> <g> <path d="M111.572,75.078c-3.765,0-6.827,3.062-6.827,6.827s3.062,6.827,6.827,6.827c3.763,0,6.827-3.062,6.827-6.827 S115.337,75.078,111.572,75.078z"/> </g> </g><g> <g> <path d="M128.638,95.558c-3.765,0-6.827,3.062-6.827,6.827s3.062,6.827,6.827,6.827c3.763,0,6.827-3.062,6.827-6.827 S132.403,95.558,128.638,95.558z"/> </g> </g><g> <g> <path d="M111.572,112.625c-3.765,0-6.827,3.062-6.827,6.827s3.062,6.827,6.827,6.827c3.763,0,6.827-3.062,6.827-6.827 S115.337,112.625,111.572,112.625z"/> </g> </g></symbol><symbol id="atom" viewBox="0 0 470 470"><title>atom</title><path d="m398.559,166.02c-8.85-3.404-18.292-6.493-28.22-9.265 2.563-9.984 4.609-19.706 6.087-29.073 7.689-48.757-0.808-82.959-23.925-96.306-6.72-3.88-14.443-5.848-22.954-5.848-26.882,0-60.85,19.965-95.118,53.681-7.486-7.352-15.006-14.105-22.502-20.167-38.379-31.038-72.25-40.781-95.365-27.434-14.856,8.577-23.891,26.093-26.126,50.652-0.376,4.125 2.664,7.773 6.789,8.148 4.138,0.382 7.772-2.664 8.148-6.789 1.238-13.594 5.484-31.398 18.688-39.021 17.11-9.881 45.699-0.365 78.434,26.106 7.143,5.776 14.314,12.217 21.461,19.233-14.373,15.293-28.676,32.894-42.41,52.347-24.16,2.199-47.172,5.888-68.291,10.948-3.698-14.376-6.238-28.093-7.491-40.827-0.405-4.122-4.059-7.134-8.198-6.729-4.122,0.405-7.135,4.076-6.729,8.198 1.326,13.474 4.008,27.966 7.917,43.133-9.596,2.706-18.73,5.712-27.311,9.012-46.072,17.72-71.443,42.18-71.443,68.873s25.371,51.153 71.441,68.872c8.85,3.404 18.292,6.493 28.22,9.265-2.563,9.984-4.609,19.706-6.087,29.073-7.689,48.757 0.808,82.959 23.925,96.306 6.72,3.88 14.443,5.848 22.954,5.848 26.573,0 60.071-19.516 93.938-52.531 7.255,7.086 14.54,13.609 21.803,19.482 27.161,21.966 52.059,33.266 72.489,33.265 8.438-0.001 16.119-1.93 22.876-5.831 23.117-13.347 31.614-47.549 23.925-96.306-1.477-9.366-3.523-19.087-6.086-29.07 15.439-4.252 29.64-9.26 42.218-14.96 3.773-1.71 5.445-6.154 3.735-9.927-1.71-3.773-6.155-5.446-9.927-3.735-11.912,5.398-25.377,10.15-40.042,14.192-6.063-20.261-14.137-41.412-23.976-62.808 10.281-22.122 18.685-44.004 24.943-64.936 55.665,15.586 88.651,40.202 88.651,63.801 0,15.247-13.296,27.827-24.45,35.694-3.385,2.388-4.193,7.067-1.806,10.452 2.388,3.386 7.067,4.193 10.452,1.806 20.153-14.215 30.804-30.797 30.804-47.952 0-26.693-25.371-51.153-71.441-68.872zm-69.013-125.491c5.844,7.10543e-15 11.044,1.291 15.454,3.838 17.112,9.88 23.166,39.396 16.607,80.979-1.405,8.907-3.35,18.159-5.789,27.669-21.207-5.028-44.299-8.68-68.532-10.835-13.596-19.242-27.866-36.839-42.375-52.253 2.655-2.618 5.312-5.158 7.964-7.602 29.252-26.953 56.48-41.796 76.671-41.796zm-95.096,60.152c11.317,12.062 22.5,25.517 33.323,40.102-10.769-0.587-21.712-0.891-32.773-0.891-11.431,0-22.738,0.321-33.855,0.947 10.808-14.56 22.006-28.07 33.305-40.158zm-.053,269.657c-11.718-12.42-23.296-26.341-34.486-41.466 11.514,0.674 23.234,1.02 35.089,1.02 11.419,0 22.732-0.333 33.871-0.969-11.18,15.064-22.777,29.01-34.474,41.415zm.603-55.446c-16.115,0-31.578-0.624-46.314-1.784-8.277-12.076-16.284-24.78-23.907-37.984-7.503-12.995-14.405-26.107-20.657-39.155 6.49-13.661 13.707-27.412 21.596-41.077 7.64-13.232 15.75-26.063 24.177-38.307 14.374-1.099 29.429-1.693 45.105-1.693 15.273,0 29.956,0.564 43.994,1.609 8.434,12.267 16.59,25.185 24.349,38.623 7.85,13.597 15.034,27.279 21.5,40.873-6.219,12.942-13.091,25.957-20.56,38.894-7.625,13.207-15.72,26.015-24.13,38.239-14.716,1.158-29.83,1.762-45.153,1.762zm-65.615-3.655c-18.453-2.132-35.582-5.129-51.205-8.81 4.744-15.789 10.758-32.16 17.929-48.79 4.898,9.688 10.128,19.373 15.679,28.987 5.668,9.818 11.549,19.371 17.597,28.613zm1.19-152.829c-6.111,9.318-12.078,18.991-17.847,28.984-5.933,10.276-11.499,20.61-16.677,30.928-7.543-17.318-13.858-34.376-18.788-50.749 16.203-3.859 34.042-6.983 53.312-9.163zm-155.575,76.484c0-23.472 32.634-47.951 87.757-63.55 6.235,20.802 14.601,42.62 24.805,64.647-9.813,21.362-17.865,42.477-23.913,62.705-55.663-15.587-88.649-40.203-88.649-63.802zm125.454,194.363c-5.844,0-11.044-1.291-15.454-3.838-17.112-9.88-23.166-39.396-16.607-80.979 1.405-8.907 3.35-18.159 5.789-27.669 20.518,4.865 42.8,8.441 66.173,10.619 13.951,19.807 28.618,37.883 43.53,53.648-2.254,2.201-4.509,4.348-6.76,6.423-29.252,26.954-56.48,41.796-76.671,41.796zm220.214-84.584c6.559,41.583 0.505,71.099-16.607,80.979-17.113,9.879-45.699,0.364-78.434-26.106-6.893-5.574-13.814-11.767-20.712-18.499 14.761-15.578 29.462-33.603 43.563-53.579 23.432-2.151 45.822-5.697 66.389-10.509 2.445,9.526 4.394,18.793 5.801,27.714zm-9.83-42.153c-16.064,3.733-33.311,6.67-51.339,8.745 6.085-9.283 12.027-18.918 17.773-28.871 5.517-9.556 10.713-19.161 15.579-28.757 7.195,16.66 13.228,33.063 17.987,48.883zm-17.918-84.145c-5.152-10.259-10.688-20.532-16.587-30.749-5.818-10.078-11.859-19.878-18.077-29.348 19.355,2.146 37.276,5.243 53.564,9.081-4.955,16.493-11.302,33.623-18.9,51.016z"/><path d="m235,197.392c-20.678,0-37.5,16.822-37.5,37.5s16.822,37.5 37.5,37.5 37.5-16.822 37.5-37.5-16.822-37.5-37.5-37.5zm0,60c-12.406,0-22.5-10.094-22.5-22.5s10.094-22.5 22.5-22.5 22.5,10.094 22.5,22.5-10.094,22.5-22.5,22.5z"/></symbol><symbol id="energy" viewBox="-52 0 511 512"><title>energy</title><path d="m404.425781 265.257812c-4.683593-10.753906-13.722656-19.125-24.800781-22.96875l-130.664062-45.339843c-2.289063-8.050781-6.738282-15.203125-12.6875-20.78125l11.214843-130.445313c1.003907-11.722656-2.976562-23.414062-10.933593-32.082031-7.953126-8.667969-19.265626-13.640625-31.027344-13.640625-11.726563 0-23.011719 4.945312-30.960938 13.566406-7.949218 8.621094-11.964844 20.269532-11.015625 31.957032l10.589844 130.457031c-6.148437 5.703125-10.722656 13.074219-13 21.386719l-132.339844 45.921874c-11.082031 3.84375-20.121093 12.214844-24.804687 22.96875-4.683594 10.75-4.660156 23.070313.066406 33.800782 4.746094 10.765625 13.855469 19.113281 24.992188 22.894531 4.394531 1.492187 8.96875 2.230469 13.53125 2.230469 7.007812 0 13.984374-1.738282 20.226562-5.15625l114.886719-62.71875v94.230468c0 5.523438 4.476562 10 10 10 5.523437 0 10-4.476562 10-10v-97.152343c2.414062.398437 4.886719.613281 7.410156.613281s4.996094-.214844 7.410156-.613281v237.613281h-14.820312v-60.460938c0-5.519531-4.476563-10-10-10-5.523438 0-10 4.480469-10 10v60.460938h-54.296875c-5.519532 0-10 4.476562-10 10s4.480468 10 10 10h156.550781c5.523437 0 10-4.476562 10-10s-4.476563-10-10-10h-47.433594v-234.695312l113.078125 61.71875c6.25 3.421874 13.230469 5.160156 20.242188 5.160156 4.558594 0 9.132812-.738282 13.527344-2.230469 11.136718-3.78125 20.246093-12.128906 24.992187-22.894531 4.726563-10.730469 4.75-23.050782.066406-33.800782zm-220.941406-221.355468c-.507813-6.226563 1.546875-12.1875 5.78125-16.78125 4.238281-4.589844 10.011719-7.121094 16.261719-7.121094 6.269531 0 12.054687 2.542969 16.292968 7.160156 4.238282 4.621094 6.277344 10.605469 5.738282 16.847656l-10.4375 121.421876c-3.828125-1.046876-7.855469-1.617188-12.011719-1.617188-4.070313 0-8.011719.542969-11.765625 1.546875zm-130.261719 258.574218c-5.5 3.011719-11.796875 3.558594-17.734375 1.542969-5.933593-2.019531-10.59375-6.289062-13.121093-12.023437-2.519532-5.71875-2.53125-12.023438-.035157-17.75 2.492188-5.730469 7.121094-10.011719 13.023438-12.0625l125.128906-43.417969c1.5625 7.453125 4.949219 14.238281 9.667969 19.875zm126.292969-93.070312c0-14.113281 11.480469-25.597656 25.59375-25.597656s25.597656 11.480468 25.597656 25.597656c0 14.113281-11.484375 25.59375-25.597656 25.59375s-25.59375-11.480469-25.59375-25.59375zm206.539063 81.585938c-2.527344 5.738281-7.1875 10.007812-13.121094 12.023437-5.9375 2.019531-12.234375 1.472656-17.742188-1.542969l-115.125-62.835937c4.792969-5.722657 8.210938-12.632813 9.738282-20.222657l123.261718 42.769532c5.902344 2.050781 10.53125 6.332031 13.027344 12.058594 2.492188 5.730468 2.480469 12.035156-.039062 17.75zm0 0"/><path d="m178.472656 395.609375c1.570313 3.898437 5.320313 6.269531 9.28125 6.269531 1.242188 0 2.507813-.234375 3.730469-.726562 5.125-2.0625 7.605469-7.890625 5.542969-13.011719l-.105469-.261719c-2.0625-5.121094-7.886719-7.605468-13.011719-5.542968-5.121094 2.0625-7.601562 7.890624-5.542968 13.011718zm0 0"/><path d="m281.691406 111.722656c15.773438 12.519532 28.449219 28.804688 36.660156 47.101563 1.664063 3.707031 5.3125 5.90625 9.128907 5.90625 1.367187 0 2.757812-.28125 4.089843-.878907 5.039063-2.261718 7.289063-8.179687 5.027344-13.214843-9.515625-21.207031-24.203125-40.078125-42.476562-54.578125-4.324219-3.433594-10.613282-2.710938-14.046875 1.617187-3.433594 4.324219-2.710938 10.613281 1.617187 14.046875zm0 0"/><path d="m329.941406 197.015625.105469.261719c1.566406 3.898437 5.316406 6.269531 9.277344 6.269531 1.242187 0 2.507812-.234375 3.730469-.726563 5.125-2.0625 7.605468-7.886718 5.542968-13.011718l-.105468-.261719c-2.0625-5.121094-7.886719-7.605469-13.011719-5.539063-5.121094 2.058594-7.601563 7.886719-5.539063 13.007813zm0 0"/></symbol></svg>