<?xml version="1.0" encoding="utf-8"?>
<!-- Generator: Adobe Illustrator 14.0.0, SVG Export Plug-In . SVG Version: 6.00 Build 43363)  -->
<!DOCTYPE svg PUBLIC "-//W3C//DTD SVG 1.1//EN" "http://www.w3.org/Graphics/SVG/1.1/DTD/svg11.dtd">
<svg version="1.1" xmlns="http://www.w3.org/2000/svg" xmlns:xlink="http://www.w3.org/1999/xlink" x="0px" y="0px" width="2272px"
	 height="1872px" viewBox="0 0 2272 1872" enable-background="new 0 0 2272 1872" xml:space="preserve">
<g id="Back">
	<rect fill="#FFE2CC" width="2272" height="1872"/>
</g>
<g id="_x36_">
	<g>
		<g>
			<g>
				<g>
					<g>
						
							<rect x="1620.513" y="1340.31" transform="matrix(0.9444 0.3289 -0.3289 0.9444 543.3354 -458.5037)" fill="#75D5FF" width="12.561" height="72.576"/>
					</g>
				</g>
				<circle fill="#7A9AB3" cx="1612.592" cy="1415.25" r="16.051"/>
				<g>
					<g>
						
							<rect x="1578.475" y="1326.512" transform="matrix(0.754 0.6569 -0.6569 0.754 1285.1885 -705.7583)" fill="#75D5FF" width="12.561" height="72.576"/>
					</g>
				</g>
				<circle fill="#7A9AB3" cx="1557.183" cy="1393.385" r="16.051"/>
				<g>
					<g>
						
							<rect x="1661.678" y="1355.491" transform="matrix(-0.9989 0.0464 -0.0464 -0.9989 3398.7166 2704.6436)" fill="#75D5FF" width="12.561" height="72.576"/>
					</g>
				</g>
				<circle fill="#7A9AB3" cx="1670.566" cy="1432.875" r="16.05"/>
			</g>
			<path fill="#7A9AB3" d="M1930.754,1374.573c-41.401-35.391-139.686-84.121-258.773-125.597
				c-119.088-41.477-226.38-64.345-280.809-62.33l-28.746-10.013l-8.263,23.726c-10.648,30.573,114.379,101.909,279.257,159.333
				s307.17,79.19,317.818,48.617l8.263-23.725L1930.754,1374.573z"/>
			
				<ellipse transform="matrix(0.9444 0.3289 -0.3289 0.9444 513.6108 -475.0507)" fill="#75D5FF" cx="1660.963" cy="1280.609" rx="316.126" ry="58.62"/>
			
				<ellipse transform="matrix(0.9444 0.3289 -0.3289 0.9444 509.9341 -477.0659)" fill="#59B2D1" cx="1665.094" cy="1268.747" rx="173.116" ry="32.101"/>
			<g>
				<g>
					<g>
						<g>
							<g>
								
									<rect x="1738.967" y="1122.198" transform="matrix(-0.8336 0.5524 -0.5524 -0.8336 3858.8188 1090.9172)" fill="#B4D996" width="52.232" height="9.037"/>
							</g>
						</g>
						<g>
							<g>
								<circle fill="#FFFFFF" cx="1795.8" cy="1105.837" r="22.592"/>
							</g>
							<g>
								<path fill="#B4D996" d="M1787.329,1130.158c-13.411-4.671-20.521-19.381-15.851-32.792s19.381-20.521,32.792-15.851
									s20.521,19.381,15.851,32.792S1800.74,1134.829,1787.329,1130.158z M1802.189,1087.489
									c-10.117-3.523-21.214,1.841-24.737,11.957c-3.523,10.117,1.84,21.215,11.957,24.738s21.215-1.841,24.738-11.958
									C1817.671,1102.11,1812.307,1091.013,1802.189,1087.489z"/>
							</g>
						</g>
						<circle fill="#212121" cx="1796.078" cy="1106.412" r="3.163"/>
					</g>
					<g>
						<g>
							<g>
								
									<rect x="1638.016" y="1087.039" transform="matrix(0.3101 0.9507 -0.9507 0.3101 2185.874 -829.0206)" fill="#B4D996" width="52.233" height="9.037"/>
							</g>
						</g>
						<g>
							<g>
								<circle fill="#FFFFFF" cx="1653.033" cy="1056.114" r="22.591"/>
							</g>
							<g>
								<path fill="#B4D996" d="M1628.711,1047.643c4.671-13.41,19.382-20.521,32.792-15.851
									c13.411,4.671,20.521,19.382,15.851,32.792c-4.67,13.411-19.381,20.521-32.792,15.851
									C1631.151,1075.765,1624.04,1061.054,1628.711,1047.643z M1634.685,1049.724c-3.523,10.116,1.841,21.214,11.958,24.737
									c10.117,3.524,21.214-1.84,24.737-11.957c3.524-10.117-1.84-21.214-11.957-24.738
									C1649.306,1034.242,1638.208,1039.606,1634.685,1049.724z"/>
							</g>
						</g>
						<circle fill="#212121" cx="1652.458" cy="1056.392" r="3.163"/>
					</g>
				</g>
				<path fill="#B4D996" d="M1722.371,1293.129l43.839-125.873c12.296-35.306-6.356-73.894-41.661-86.189l0,0
					c-35.305-12.296-73.894,6.356-86.189,41.661l-43.84,125.873L1722.371,1293.129z"/>
				<g>
					<path fill="#212121" d="M1688.053,1185.956c25.859,9.006,54.123-4.655,63.129-30.515l-93.644-32.614
						C1648.531,1148.686,1662.193,1176.95,1688.053,1185.956z"/>
					<path fill="#ED8A6B" d="M1720.452,1186.018c-3.465-12.493-11.602-22.493-23.183-26.526c-11.58-4.033-24.169-1.252-34.645,6.387
						c5.781,9.035,14.512,16.276,25.428,20.078S1710.309,1189.507,1720.452,1186.018z"/>
				</g>
			</g>
			<g>
				<path opacity="0.3" fill="#98EDF4" d="M1775.268,952.416L1775.268,952.416c-90.629-31.564-189.686,16.316-221.249,106.944
					l-53.021,152.234l0.611,0.214c-5.83,16.742,62.637,55.807,152.927,87.254c90.29,31.446,168.212,43.366,174.043,26.623
					l0.612,0.214l53.021-152.235C1913.776,1083.036,1865.896,983.98,1775.268,952.416z"/>
				<g>
					<path fill="#FFFFFF" d="M1568.215,1103.47c-2.912-1.014-4.45-4.196-3.437-7.108c18.678-53.626,44.32-91.872,76.218-113.675
						c24.406-16.683,43.369-16.972,44.165-16.976c3.08-0.019,5.595,2.468,5.611,5.554c0.016,3.074-2.456,5.58-5.525,5.611
						c-0.263,0.005-17.06,0.485-38.747,15.578c-20.298,14.126-49.123,44.257-71.177,107.58
						C1574.309,1102.945,1571.126,1104.484,1568.215,1103.47z"/>
				</g>
				<g>
					<path fill="#FFFFFF" d="M1871.629,1123.424c0,0,2.163,36.224-23.425,101.208"/>
					<path fill="#FFFFFF" d="M1846.601,1229.246c-0.063-0.021-0.124-0.044-0.187-0.068c-2.51-0.989-3.744-3.824-2.756-6.335
						c24.905-63.249,23.115-98.776,23.096-99.128c-0.162-2.693,1.891-5.006,4.585-5.166c2.686-0.166,5.007,1.89,5.166,4.585
						c0.092,1.522,1.933,38.05-23.756,103.288C1851.785,1228.87,1849.063,1230.104,1846.601,1229.246z"/>
				</g>
			</g>
		</g>
		<ellipse fill="#919390" cx="1598.625" cy="1544.174" rx="125.233" ry="13.417"/>
	</g>
</g>
<g id="_x35__1_">
	<g>
		<g>
			<path opacity="0.5" fill="#FFE600" d="M1250.32,1187.405l-0.466-0.103c7.033-35.564-38.946-75.54-103.003-89.433
				c-63.757-13.828-121.46,3.381-129.652,38.455l-0.988-0.217l-127.765,411.593h375.645L1250.32,1187.405z"/>
			<g>
				<path fill="#FFF9B3" d="M1198.104,1349.639c1.754,8.279,2.604,16.443,3.269,24.583c0.619,8.135,0.858,16.222,0.888,24.281
					c0.038,16.116-1.011,32.095-2.796,47.979c-1.811,15.882-4.41,31.663-8.049,47.313c-3.751,15.635-8.122,31.19-15.09,46.417
					c-3.339-16.536-4.08-32.742-4.201-48.869c-0.01-16.113,1.022-32.094,2.841-47.975c1.844-15.877,4.426-31.661,8.094-47.307
					c1.844-7.821,3.898-15.616,6.333-23.362C1191.871,1364.958,1194.536,1357.241,1198.104,1349.639z"/>
				<path fill="#FFF9B3" d="M1034.874,1201.986c2.389,10.043,2.846,19.544,2.848,28.918c-0.081,9.351-0.948,18.481-2.384,27.453
					c-1.452,8.967-3.495,17.769-6.318,26.352c-2.908,8.56-6.28,16.988-11.602,24.872c-2.412-10.048-2.875-19.552-2.874-28.925
					c0.086-9.349,0.953-18.479,2.41-27.445c1.474-8.961,3.515-17.763,6.344-26.345
					C1026.21,1218.309,1029.575,1209.877,1034.874,1201.986z"/>
				<path fill="#FFF9B3" d="M1047.221,1427.76c2.39,10.042,2.846,19.543,2.848,28.917c-0.08,9.352-0.948,18.481-2.384,27.453
					c-1.452,8.967-3.495,17.769-6.318,26.352c-2.908,8.56-6.28,16.989-11.602,24.873c-2.412-10.049-2.875-19.552-2.874-28.925
					c0.086-9.35,0.953-18.48,2.41-27.446c1.473-8.961,3.515-17.763,6.344-26.344
					C1038.557,1444.081,1041.922,1435.649,1047.221,1427.76z"/>
				<path fill="#FFF9B3" d="M1131.206,1187.876c1.032,11.483,1.176,22.838,1.123,34.163c-0.094,11.319-0.567,22.583-1.25,33.817
					c-1.441,22.456-3.841,44.772-7.061,66.97c-3.214,22.198-7.285,44.271-12.309,66.205c-2.546,10.963-5.308,21.894-8.453,32.768
					c-3.188,10.869-6.572,21.709-10.855,32.418c-1.05-11.485-1.2-22.841-1.154-34.167c0.088-11.32,0.561-22.585,1.249-33.817
					c1.443-22.456,3.841-44.773,7.094-66.966c3.248-22.192,7.315-44.267,12.342-66.2c2.55-10.962,5.311-21.893,8.45-32.769
					C1123.562,1209.429,1126.939,1198.588,1131.206,1187.876z"/>
			</g>
		</g>
		<g>
			<path fill="#B4620E" d="M1187.753,1034.131c-0.815,4.827-14.199,7.461-29.895,5.883c-15.695-1.579-27.757-6.771-26.942-11.599
				c0.815-4.828,14.2-7.462,29.894-5.883C1176.506,1024.11,1188.568,1029.303,1187.753,1034.131z"/>
			<path opacity="0.5" fill="#09A2DC" d="M1022.507,1062.033l59.331-23.574c22.212-8.826,47.955-12.42,73.313-9.671
				c0.325,0.035,0.649,0.07,0.975,0.107c28.749,3.21,54.935,14.151,73.72,30.31l42.969,36.961L1022.507,1062.033z"/>
			<path fill="#FF7C00" d="M1162.292,1057.774c-94.782-12.877-180.504,3.383-191.465,36.318
				c-6.134,18.432,12.459,38.178,46.627,54.253c-4.528-4.114-6.442-8.202-5.164-12.044c5.265-15.82,62.289-21.479,127.366-12.637
				c65.077,8.841,113.563,28.833,108.299,44.653c-1.374,4.129-6.301,7.559-13.948,10.227c42.968-5.585,73.782-18.961,80.059-37.82
				C1325.025,1107.789,1257.075,1070.651,1162.292,1057.774z"/>
			<path fill="#FFC80B" d="M1162.292,1057.774c-94.782-12.877-180.504,3.383-191.465,36.318c-1.72,5.167-1.493,10.438,0.471,15.701
				c27.874-22.928,101.097-32.684,180.733-21.864c79.913,10.857,140.748,38.96,151.302,67.249c5.301-4.36,8.979-9.192,10.731-14.454
				C1325.025,1107.789,1257.075,1070.651,1162.292,1057.774z"/>
			<path fill="#B4620E" d="M1247.954,1168.318c5.265-15.82-43.222-35.813-108.299-44.653
				c-65.077-8.842-122.101-3.184-127.366,12.637c-1.278,3.842,0.636,7.93,5.164,12.044c26.885,12.648,63.407,23.026,105.145,28.697
				c40.508,5.503,79.337,5.669,111.407,1.502C1241.653,1175.877,1246.58,1172.447,1247.954,1168.318z"/>
			
				<ellipse transform="matrix(0.9936 0.1126 -0.1126 0.9936 139.1929 -120.2555)" fill="#FF7C00" cx="1134.572" cy="1172.556" rx="41.154" ry="15.66"/>
		</g>
	</g>
</g>
<g id="_x34_">
	<g>
		<g>
			<g>
				<path fill="#A0BE88" d="M524.583,1128.016c4.545-2.691,7.556-9.15,7.179-16.546c-0.485-9.527-6.396-16.97-13.201-16.623
					s-11.929,8.351-11.443,17.878c0.304,5.967,2.736,11.114,6.182,14.044c3.003,47.557,43.004,76.147,44.905,77.478l6.369-9.098
					C564.163,1194.861,528.419,1169.328,524.583,1128.016z"/>
				<path fill="#A0BE88" d="M693.898,1128.016c-4.545-2.691-7.555-9.15-7.179-16.546c0.485-9.527,6.396-16.97,13.201-16.623
					c6.806,0.347,11.929,8.351,11.444,17.878c-0.304,5.967-2.736,11.114-6.182,14.044c-3.003,47.557-43.004,76.147-44.905,77.478
					l-6.369-9.098C654.318,1194.861,690.062,1169.328,693.898,1128.016z"/>
			</g>
			<ellipse fill="#DF781B" cx="610.124" cy="1349.604" rx="120.296" ry="99.321"/>
			<path fill="#C1661B" d="M610.124,1249.049c-66.438,0-120.296,44.468-120.296,99.321c0,13.986,3.508,27.295,9.827,39.366
				c30.283,13.581,68.682,21.707,110.469,21.707s80.186-8.126,110.469-21.707c6.318-12.071,9.827-25.38,9.827-39.366
				C730.42,1293.517,676.562,1249.049,610.124,1249.049z"/>
			<ellipse fill="#FFC80B" cx="615.059" cy="1273.108" rx="279.457" ry="69.71"/>
			<g>
				<g>
					<g>
						<path fill="#DF781B" d="M335.603,1258.92"/>
					</g>
					<g>
						<path fill="#DF781B" d="M894.516,1258.92"/>
					</g>
					<g>
						<path fill="#DF781B" d="M615.059,1328.63c-154.339,0-279.457-31.21-279.457-69.71c0,60.986,125.117,110.426,279.457,110.426
							s279.457-49.439,279.457-110.426C894.516,1297.42,769.398,1328.63,615.059,1328.63z"/>
					</g>
				</g>
			</g>
			<ellipse fill="#F9CF58" cx="615.059" cy="1230.542" rx="153.036" ry="28.378"/>
			<g>
				<path fill="#B4D996" d="M669.963,1255.219V1137.39c0-33.048-26.791-59.839-59.839-59.839l0,0
					c-33.049,0-59.84,26.791-59.84,59.839v117.829H669.963z"/>
				<g>
					<path fill="#212121" d="M610.153,1175.727c24.206,0,43.829-19.624,43.829-43.83h-87.659
						C566.324,1156.103,585.947,1175.727,610.153,1175.727z"/>
					<path fill="#ED8A6B" d="M637.219,1166.357c-6.524-9.423-16.225-15.404-27.065-15.404s-20.541,5.981-27.065,15.404
						c7.454,5.862,16.847,9.369,27.065,9.369S629.765,1172.22,637.219,1166.357z"/>
				</g>
				<g>
					<g>
						<g>
							<circle fill="#FFFFFF" cx="611.175" cy="1072.46" r="26.931"/>
						</g>
						<g>
							<path fill="#B4D996" d="M586.713,1053.907c10.23-13.488,29.527-16.139,43.015-5.909c13.488,10.23,16.139,29.526,5.909,43.015
								c-10.23,13.489-29.526,16.14-43.015,5.91C579.134,1086.692,576.483,1067.396,586.713,1053.907z M592.721,1058.465
								c-7.717,10.175-5.718,24.731,4.458,32.449s24.733,5.718,32.45-4.458c7.717-10.175,5.718-24.732-4.458-32.449
								C614.995,1046.289,600.438,1048.289,592.721,1058.465z"/>
						</g>
					</g>
					<circle fill="#212121" cx="610.421" cy="1072.564" r="3.771"/>
				</g>
			</g>
			<g>
				<path opacity="0.3" fill="#98EDF4" d="M610.124,960.339L610.124,960.339c-84.836,0-153.609,68.773-153.609,153.608v142.505
					h0.573c0,15.673,68.516,28.378,153.036,28.378c84.519,0,153.036-12.705,153.036-28.378h0.573v-142.505
					C763.732,1029.112,694.959,960.339,610.124,960.339z"/>
				<g>
					<path fill="#FFFFFF" d="M481.191,1146.644c-2.726,0-4.935-2.21-4.935-4.936c0-50.198,10.287-89.583,30.576-117.058
						c15.525-21.024,31.271-26.779,31.935-27.014c2.566-0.911,5.388,0.434,6.299,3.005c0.907,2.562-0.428,5.372-2.981,6.291
						c-0.218,0.08-14.101,5.365-27.817,24.271c-12.838,17.694-28.142,51.229-28.142,110.505
						C486.126,1144.434,483.917,1146.644,481.191,1146.644z"/>
				</g>
				<g>
					<path fill="#FFFFFF" d="M740.29,1075.083c0,0,12.338,29.611,9.871,91.302"/>
					<path fill="#FFFFFF" d="M750.164,1170.703c-0.059,0-0.117-0.002-0.176-0.004c-2.383-0.096-4.238-2.104-4.143-4.487
						c2.401-60.043-9.422-89.181-9.542-89.469c-0.918-2.201,0.123-4.729,2.326-5.646c2.194-0.92,4.729,0.121,5.646,2.325
						c0.519,1.244,12.677,31.203,10.199,93.134C754.382,1168.881,752.469,1170.703,750.164,1170.703z"/>
				</g>
			</g>
		</g>
		<ellipse fill="#919390" cx="614.398" cy="1548.93" rx="181.677" ry="18.174"/>
	</g>
</g>
<g id="_x33_">
	<g>
		<g>
			<path fill="#41A2C9" d="M1454.08,673.631c-0.506-14.587,2.595-47.098,32.136-89.563l-11.032-7.675
				c-32.646,46.927-35.473,82.933-34.521,99.33c-2.634,3.205-4.311,7.998-4.311,13.362c0,9.649,5.415,17.47,12.095,17.47
				s12.095-7.821,12.095-17.47C1460.541,682.376,1457.92,676.558,1454.08,673.631z"/>
			<path fill="#41A2C9" d="M1881.822,681.014c0.951-16.396-1.876-52.402-34.521-99.33l-11.032,7.675
				c29.541,42.465,32.642,74.976,32.136,89.563c-3.841,2.927-6.461,8.745-6.461,15.454c0,9.649,5.415,17.471,12.095,17.471
				s12.095-7.822,12.095-17.471C1886.133,689.012,1884.456,684.219,1881.822,681.014z"/>
		</g>
		<g>
			<path fill="#41A2C9" d="M1585.399,689.554l-2.731-6.139l-2.647-6.176c-2.009,0.861-47.383,21.658-48.501,133.3
				c-3.543-1.355-7.637-2.142-12.015-2.142c-13.359,0-24.189,7.22-24.189,16.126h36.284c0.001,0.05,0.001,0.099,0.002,0.149
				l6.718-0.149h5.376c0-0.041-0.009-0.079-0.009-0.12l1.352-0.03C1542.512,710.691,1584.97,689.752,1585.399,689.554z"/>
			<path fill="#41A2C9" d="M1731.794,689.554l2.731-6.139l2.646-6.176c2.009,0.861,47.384,21.658,48.501,133.3
				c3.543-1.355,7.638-2.142,12.015-2.142c13.359,0,24.189,7.22,24.189,16.126h-36.283c-0.001,0.05-0.001,0.099-0.003,0.149
				l-6.718-0.149h-5.375c0-0.041,0.008-0.079,0.009-0.12l-1.352-0.03C1774.682,710.691,1732.223,689.752,1731.794,689.554z"/>
		</g>
		<g>
			<g>
				<g>
					
						<rect x="1763.297" y="487.237" transform="matrix(-0.8968 0.4425 -0.4425 -0.8968 3636.8081 139.4655)" fill="#50BDF5" width="77.677" height="13.44"/>
				</g>
			</g>
			<g>
				<circle fill="#FFFFFF" cx="1851.376" cy="468.934" r="33.597"/>
			</g>
			<g>
				<g>
					<path fill="#50BDF5" d="M1834.305,503.219c-18.905-9.414-26.627-32.452-17.214-51.357
						c9.413-18.905,32.452-26.627,51.357-17.214c18.904,9.414,26.627,32.453,17.214,51.357
						C1876.249,504.91,1853.21,512.632,1834.305,503.219z M1864.255,443.069c-14.263-7.102-31.642-1.276-38.743,12.986
						s-1.276,31.642,12.986,38.743c14.262,7.102,31.642,1.276,38.743-12.986C1884.342,467.55,1878.518,450.17,1864.255,443.069z"/>
				</g>
			</g>
			<circle fill="#212121" cx="1851.678" cy="469.834" r="4.704"/>
		</g>
		<g>
			<g>
				<g>
					
						<rect x="1472.608" y="490.764" transform="matrix(0.8968 0.4425 -0.4425 0.8968 376.1664 -617.4597)" fill="#50BDF5" width="77.678" height="13.44"/>
				</g>
			</g>
			<g>
				<circle fill="#FFFFFF" cx="1462.206" cy="472.461" r="33.597"/>
			</g>
			<g>
				<g>
					<path fill="#50BDF5" d="M1427.92,489.533c-9.412-18.905-1.69-41.944,17.215-51.357c18.905-9.413,41.943-1.691,51.357,17.214
						c9.413,18.905,1.69,41.944-17.215,51.357C1460.373,516.16,1437.334,508.438,1427.92,489.533z M1436.342,485.34
						c7.101,14.262,24.48,20.087,38.743,12.986c14.262-7.101,20.087-24.481,12.985-38.743c-7.101-14.262-24.48-20.087-38.743-12.986
						C1435.065,453.698,1429.24,471.078,1436.342,485.34z"/>
				</g>
			</g>
			<circle fill="#212121" cx="1461.904" cy="473.362" r="4.704"/>
		</g>
		<ellipse fill="#50BDF5" cx="1661.242" cy="622.563" rx="196.669" ry="161.392"/>
		<path fill="#41A2C9" d="M1661.242,746.821c-82.723,0-154.835-37.242-192.83-92.403c18.023,73.876,97.502,129.537,192.83,129.537
			s174.807-55.66,192.83-129.537C1816.077,709.579,1743.965,746.821,1661.242,746.821z"/>
		<g>
			<path fill="#212121" d="M1661.284,666.868c63.783,0,115.49-53.398,115.49-119.27h-230.98
				C1545.794,613.47,1597.501,666.868,1661.284,666.868z"/>
			<path fill="#ED8A6B" d="M1732.602,641.374c-17.192-25.641-42.754-41.919-71.317-41.919s-54.125,16.278-71.317,41.919
				c19.64,15.952,44.393,25.494,71.317,25.494S1712.961,657.326,1732.602,641.374z"/>
		</g>
	</g>
</g>
<g id="_x32_">
	<g>
		<g>
			<g>
				
					<rect x="1038.695" y="454.743" transform="matrix(0.6055 0.7958 -0.7958 0.6055 792.3048 -675.494)" fill="#B4D996" width="77.678" height="13.44"/>
			</g>
		</g>
		<g>
			<g>
				
					<rect x="1159.645" y="448.024" transform="matrix(-0.6055 0.7958 -0.7958 -0.6055 2286.0952 -223.6768)" fill="#B4D996" width="77.678" height="13.44"/>
			</g>
		</g>
		<g>
			<path fill="#A0BE88" d="M1016.645,705.38c-0.505-14.588,2.595-47.098,32.136-89.564l-11.032-7.675
				c-32.646,46.928-35.473,82.934-34.521,99.33c-2.634,3.205-4.311,7.998-4.311,13.362c0,9.648,5.415,17.47,12.095,17.47
				s12.095-7.822,12.095-17.47C1023.106,714.125,1020.486,708.308,1016.645,705.38z"/>
			<path fill="#A0BE88" d="M1276.822,707.472c0.951-16.396-1.877-52.402-34.521-99.33l-11.032,7.675
				c29.541,42.466,32.641,74.976,32.136,89.564c-3.841,2.927-6.462,8.745-6.462,15.454c0,9.648,5.415,17.47,12.096,17.47
				c6.68,0,12.095-7.822,12.095-17.47C1281.133,715.47,1279.456,710.677,1276.822,707.472z"/>
		</g>
		<g>
			<path fill="#A0BE88" d="M1115.458,693.964l-2.731-6.139l-2.647-6.176c-2.009,0.861-47.384,21.658-48.501,133.3
				c-3.542-1.355-7.637-2.143-12.014-2.143c-13.36,0-24.19,7.22-24.19,16.127h36.284c0.001,0.05,0.001,0.099,0.002,0.149
				l6.718-0.149h5.375c0-0.041-0.008-0.079-0.009-0.12l1.352-0.03C1072.57,715.102,1115.029,694.162,1115.458,693.964z"/>
			<path fill="#A0BE88" d="M1167.782,693.964l2.73-6.139l2.647-6.176c2.009,0.861,47.384,21.658,48.501,133.3
				c3.543-1.355,7.637-2.143,12.015-2.143c13.359,0,24.189,7.22,24.189,16.127h-36.283c-0.001,0.05-0.002,0.099-0.003,0.149
				l-6.718-0.149h-5.376c0-0.041,0.009-0.079,0.01-0.12l-1.352-0.03C1210.67,715.102,1168.211,694.162,1167.782,693.964z"/>
		</g>
		<g>
			<g>
				<circle fill="#FFFFFF" cx="1041.921" cy="417.116" r="33.597"/>
			</g>
			<g>
				<path fill="#B4D996" d="M1041.921,454.745c-20.749,0-37.628-16.88-37.628-37.629c0-20.749,16.88-37.629,37.628-37.629
					c20.749,0,37.629,16.88,37.629,37.629C1079.55,437.865,1062.67,454.745,1041.921,454.745z M1041.921,387.55
					c-16.302,0-29.565,13.263-29.565,29.565s13.263,29.565,29.565,29.565c16.303,0,29.565-13.263,29.565-29.565
					S1058.224,387.55,1041.921,387.55z"/>
			</g>
		</g>
		<g>
			<g>
				<circle fill="#FFFFFF" cx="1231.409" cy="410.396" r="33.597"/>
			</g>
			<g>
				<path fill="#B4D996" d="M1231.409,448.697c-21.119,0-38.301-17.181-38.301-38.3s17.182-38.301,38.301-38.301
					c21.118,0,38.301,17.182,38.301,38.301S1252.527,448.697,1231.409,448.697z M1231.409,381.503
					c-15.933,0-28.894,12.962-28.894,28.894s12.961,28.894,28.894,28.894s28.894-12.962,28.894-28.894
					S1247.342,381.503,1231.409,381.503z"/>
			</g>
		</g>
		<path fill="#B4D996" d="M1262.318,552.176c0,66.427-53.851,218.381-120.277,218.381c-66.428,0-120.278-151.954-120.278-218.381
			c0-66.428,53.851-120.278,120.278-120.278C1208.468,431.898,1262.318,485.749,1262.318,552.176z"/>
		<path fill="#A0BE88" d="M1142.041,718.656c-46.449,0-87.997-59.109-115.73-125.935c14.302,73.552,60.7,177.836,115.73,177.836
			c55.03,0,101.428-104.284,115.729-177.836C1230.037,659.547,1188.488,718.656,1142.041,718.656z"/>
		<circle fill="#212121" cx="1041.249" cy="415.1" r="4.704"/>
		<circle fill="#212121" cx="1232.081" cy="411.068" r="4.704"/>
		<g>
			<path fill="#212121" d="M1142.713,590.477c38.595,0,69.882-31.288,69.882-69.882h-139.764
				C1072.831,559.189,1104.118,590.477,1142.713,590.477z"/>
			<path fill="#ED8A6B" d="M1185.865,575.539c-10.402-15.023-25.869-24.561-43.152-24.561c-17.284,0-32.751,9.538-43.154,24.561
				c11.884,9.347,26.861,14.938,43.154,14.938C1159.005,590.477,1173.981,584.886,1185.865,575.539z"/>
		</g>
	</g>
</g>
<g id="_x31_">
	<g>
		<g>
			<g>
				<g>
					<g>
						<path fill="#BC5037" d="M530.618,827.393c-3.522-110.958,24.686-209.348,24.971-210.329l13.549,3.94
							c-0.279,0.96-27.865,97.303-24.417,205.94L530.618,827.393z"/>
					</g>
					<g>
						<path fill="#BC5037" d="M514.74,808.716c-16.561,0-29.985,8.261-29.985,18.453h59.971
							C544.726,816.978,531.301,808.716,514.74,808.716z"/>
					</g>
				</g>
			</g>
			<g>
				<g>
					<g>
						<path fill="#BC5037" d="M704.952,827.393c3.522-110.958-24.685-209.348-24.971-210.329l-13.549,3.94
							c0.279,0.96,27.865,97.303,24.417,205.94L704.952,827.393z"/>
					</g>
					<g>
						<path fill="#BC5037" d="M720.83,808.716c16.561,0,29.986,8.261,29.986,18.453h-59.971
							C690.844,816.978,704.27,808.716,720.83,808.716z"/>
					</g>
				</g>
			</g>
		</g>
		<g>
			<g>
				<path fill="#BC5037" d="M525.851,471.757l-3.173-5.296l-3.13-5.321c-2.506,1.474-59.874,37.089-62.883,195.14
					c-2.743,2.868-4.542,7.628-4.542,13.024c0,8.767,4.738,15.875,10.583,15.875s10.583-7.107,10.583-15.875
					c0-5.221-1.688-9.838-4.281-12.731C471.89,506.48,525.296,472.095,525.851,471.757z"/>
				<path fill="#BC5037" d="M706.118,471.757l3.173-5.296l3.13-5.321c2.506,1.474,59.874,37.089,62.883,195.14
					c2.743,2.868,4.542,7.628,4.542,13.024c0,8.767-4.738,15.875-10.583,15.875c-5.845,0-10.583-7.107-10.583-15.875
					c0-5.221,1.688-9.838,4.281-12.731C760.078,506.48,706.672,472.095,706.118,471.757z"/>
			</g>
		</g>
		<g>
			<g>
				
					<rect x="582.745" y="304.608" transform="matrix(0.0076 1 -1 0.0076 928.1901 -312.5981)" fill="#E26644" width="77.678" height="13.44"/>
			</g>
		</g>
		<g>
			<g>
				<circle fill="#FFFFFF" cx="619.664" cy="254.483" r="33.597"/>
			</g>
			<g>
				<g>
					<path fill="#E26644" d="M597.107,284.601c-16.607-12.438-19.999-36.068-7.561-52.675c12.438-16.607,36.068-19.999,52.676-7.561
						c16.607,12.439,19.999,36.068,7.56,52.675C637.344,293.647,613.714,297.039,597.107,284.601z M637.388,230.819
						c-13.048-9.773-31.615-7.108-41.388,5.94s-7.108,31.615,5.94,41.388c13.049,9.773,31.615,7.108,41.388-5.94
						S650.437,240.592,637.388,230.819z"/>
				</g>
			</g>
		</g>
		<circle fill="#212121" cx="620.335" cy="252.467" r="4.703"/>
		<path fill="#E26644" d="M619.689,739.858L619.689,739.858c-64.294,0-116.414-103.129-116.414-154.24V387.912
			c0-51.11,52.12-92.543,116.414-92.543h0c64.293,0,116.414,41.433,116.414,92.543v197.707
			C736.104,636.729,683.983,739.858,619.689,739.858z"/>
		<path fill="#BC5037" d="M619.689,681.651L619.689,681.651c-48.018,0-90.361-40.15-115.418-82.762
			c7.475,53.771,56.298,140.969,115.418,140.969l0,0c59.12,0,107.943-87.197,115.418-140.969
			C710.05,641.501,667.707,681.651,619.689,681.651z"/>
		<g>
			<g>
				<g>
					<circle fill="#FFFFFF" cx="503.947" cy="387.13" r="33.597"/>
				</g>
				<g>
					<g>
						<path fill="#E26644" d="M503.947,424.759c-20.749,0-37.629-16.88-37.629-37.629c0-20.749,16.88-37.629,37.629-37.629
							s37.628,16.88,37.628,37.629C541.576,407.879,524.696,424.759,503.947,424.759z M503.947,357.565
							c-16.303,0-29.565,13.263-29.565,29.565s13.263,29.565,29.565,29.565c16.302,0,29.565-13.263,29.565-29.565
							S520.25,357.565,503.947,357.565z"/>
					</g>
				</g>
			</g>
			<circle fill="#212121" cx="503.275" cy="385.114" r="4.704"/>
		</g>
		<g>
			<g>
				<g>
					<circle fill="#FFFFFF" cx="735.011" cy="387.13" r="33.597"/>
				</g>
				<g>
					<g>
						<path fill="#E26644" d="M735.011,424.759c-20.749,0-37.628-16.88-37.628-37.629c0-20.749,16.88-37.629,37.628-37.629
							c20.749,0,37.629,16.88,37.629,37.629C772.64,407.879,755.76,424.759,735.011,424.759z M735.011,357.565
							c-16.302,0-29.565,13.263-29.565,29.565s13.263,29.565,29.565,29.565c16.303,0,29.565-13.263,29.565-29.565
							S751.314,357.565,735.011,357.565z"/>
					</g>
				</g>
			</g>
			<circle fill="#212121" cx="734.339" cy="385.114" r="4.704"/>
		</g>
		<g>
			<path fill="#212121" d="M618.849,474.609c38.595,0,69.882-31.288,69.882-69.882H548.967
				C548.967,443.321,580.254,474.609,618.849,474.609z"/>
			<path fill="#ED8A6B" d="M662.002,459.671c-10.403-15.023-25.87-24.561-43.153-24.561s-32.75,9.538-43.153,24.561
				c11.884,9.347,26.861,14.938,43.153,14.938C635.142,474.609,650.119,469.018,662.002,459.671z"/>
		</g>
	</g>
</g>
</svg>
