<?xml version="1.0" encoding="utf-8"?>
<!-- Generator: Adobe Illustrator 23.0.2, SVG Export Plug-In . SVG Version: 6.00 Build 0)  -->
<svg version="1.1" id="Layer_1" xmlns="http://www.w3.org/2000/svg" xmlns:xlink="http://www.w3.org/1999/xlink" x="0px" y="0px"
	 viewBox="0 0 1782 211" style="enable-background:new 0 0 1782 211;" xml:space="preserve">
<style type="text/css">
	.st0{fill-rule:evenodd;clip-rule:evenodd;fill:#50435D;}
	.st1{fill-rule:evenodd;clip-rule:evenodd;fill:#5A5066;}
	.st2{fill:#50435D;}
	.st3{clip-path:url(#SVGID_2_);}
	.st4{clip-path:url(#SVGID_4_);}
</style>
<title>Page 1</title>
<desc>Created with Sketch.</desc>
<polygon class="st0" points="173.2,205.2 177.1,198.9 183.7,193.8 197.2,187.5 207.9,173 222.4,169.8 226.8,169.8 231.6,169.8 
	236.5,172.2 248.6,178.5 257.1,183.1 262.9,182.7 271.8,190.4 279.4,194.8 280.8,202 286.4,203.5 287.3,206.2 289.8,211 165,211 "/>
<polygon class="st1" points="215.5,211 214,207.2 212.8,201.3 207,199.1 204.9,197 204.1,195.6 215,188.2 226.7,175 224.9,172.3 
	225.4,169.8 222.4,169.8 207.9,173 197.2,187.5 183.7,193.8 177.1,198.9 173.2,205.2 165,211 "/>
<g>
	<path class="st2" d="M366.3,90.2c-2.1-4-7.7-5.2-11.6-6.2c-4.8-1.2-9.7-1.7-14.6-2c-7.6-0.6-16-3.4-22.9,1.6
		c-0.4,0.3-0.7,0.6-1,0.9c-2.7,0.2-5.2,1.4-6.4,3.9c-2.6,5.8,3.8,8.5,8.2,9.1c5.3,0.7,10.7-0.2,16,0.8c8.1,1.4,15.9,4.5,24.2,2.5
		C362.8,99.5,369.3,96,366.3,90.2z"/>
	<path class="st2" d="M315.9,50.1c-7.5-6.7-18.3-6.7-28.5-5.5c-8.4-2.4-17.4-4.4-26.2-3.5c-4.4,0.5-8.7,1.2-13,0.3
		c-3.6-0.7-7.2-1.6-10.8-2.1c-7.4-1.1-15.3-0.2-20,6.5c-4.2,6,0.4,11.5,6.4,12.9c7.7,1.7,15.8,2.4,23.6,3c9.7,0.7,19-0.5,28.6-0.9
		c8.1-0.3,16.1,0.9,24.1,1c6.3,0.1,12.6-1.2,16.5-6.5C317.6,53.9,317.2,51.3,315.9,50.1z M297.4,52.8c1.7,0,3.5,0.1,5.2,0.3
		C300.7,53.2,298.9,53,297.4,52.8z"/>
	<path class="st2" d="M343.4,27c0.2-1.1,0.1-2.2-0.5-3.3c-3.5-5.8-11.3-6.5-17.3-7.2c-6.1-0.7-12.3-0.9-18.5-1
		c-5.6-0.1-13.7-0.1-16,6.2c-2.9,7.8,5.9,11.5,11.8,11.9c3,0.2,6.1-0.2,9.1-0.4c5.1-0.4,10.3,1,15.3,1.4
		C330.5,34.8,347,34.7,343.4,27z"/>
	<path class="st2" d="M344.6,56.7c-14.9,2.8-28.5,9.7-42.2,16c-0.2-6.7-0.5-13.5-0.9-20.2c-0.3-5.4-0.6-10.7-0.8-16.1
		c1.7-0.9,3.5-1.9,5.2-2.8c2.5-1.4,5.1-2.3,7.3-4.2c0.4-0.4,0-1-0.5-0.9c-2.7,0.5-5.2,1.7-7.8,2.7c-1.4,0.5-2.8,1.1-4.2,1.7
		c0-1.3,0-2.6,0-3.9c0-6.7-0.5-13.3-3.4-19.5c-0.3-0.6-1.3-0.2-1.1,0.5c1.9,7.2,1.6,14.8,1.2,22.2c0,0.6-0.1,1.2-0.1,1.8
		c-4.4-2.9-9.9-4.9-15-5.9c-0.8-0.2-1.1,1-0.3,1.3c5.2,1.8,9.5,4.9,14.3,7.4c0.1,0.5,0.4,0.9,0.8,1.1c-0.4,6.2-0.9,12.4-1.1,18.6
		c-0.2,5.7-0.3,11.4-0.4,17.1c-16.1-7.7-35-9.3-49.6-20.2c-0.4-0.3-1,0.4-0.6,0.7c14.6,12.2,33.8,14.5,50.1,23.4
		c-0.1,10.4,0.1,20.8,0.6,31.3c-4.4-3.2-9.7-5.8-14.4-8c-5.4-2.6-11.5-5.3-17.6-5.5c-0.6,0-0.7,0.9-0.1,1
		c12.2,2.9,21.5,11.3,32.3,17.1c0.8,17,1.7,34,2.2,51c0.3,8.7,0.2,17.3,0.1,26c-0.1,8.2-0.9,18.1,2.7,25.7c1.8,3.9,7,1.6,7.3-2
		c0.3-4.2-0.6-8.5-0.8-12.7c-0.2-4.3-0.2-8.5-0.1-12.8c0.1-9.3,0-18.6-0.5-27.8c-0.7-15.4-2.1-30.8-3.1-46.2c4.7-2.1,9.2-6,13.3-8.6
		c5.9-3.8,12-7.2,18-10.8c0.8-0.5,0.3-1.7-0.6-1.4c-6.3,1.7-12.1,5-17.7,8.3c-3.3,1.9-6.5,3.9-9.7,5.9c-1.1,0.7-2.3,1.3-3.5,2
		c-0.1-1.1-0.1-2.1-0.2-3.2c-0.5-9.9-0.8-19.8-1.1-29.8c14-6.7,27.4-14.8,42.5-18.5C346.1,58.1,345.6,56.6,344.6,56.7z"/>
	<path class="st2" d="M371,57.2c-5.1-5.1-15.3-4-21.8-4.1c-11.6-0.1-22.9-4.1-34.6-2.3c-7,1-23.7,8.5-13.4,17.5
		c0.1,0.1,0.2,0.2,0.3,0.2c0.3,0.6,0.8,1.1,1.7,1.2c3.3,1.8,7.1,1.9,10.8,1c0.9-0.2,1.8-0.5,2.7-0.9c1.9,0,3.8,0.1,5.7,0.3
		c7,0.6,14,1.6,21,2.4c7.2,0.9,15.3,1.8,22.4-0.2C372,70.7,376.5,62.7,371,57.2z"/>
	<path class="st2" d="M300,20.1c-6.2-2.9-13.8-3.3-20.5-4c-5.7-0.6-16-2.6-19.8,3.3c-0.6,1-1,1.9-1.2,2.8c-0.5,0.8-1,1.7-1.4,2.7
		c-1.5,4,2.1,6.3,5.3,5.8c2,1.3,4.8,1.8,7.3,2c7.1,2.1,15.4,2.5,18.7,1.2c0.1-0.1,0.2-0.1,0.4-0.2c5.3,0.4,10.5-1.2,12.9-7
		C302.6,24.5,302.5,21.3,300,20.1z"/>
	<path class="st2" d="M308.8,72.1c-6-2.9-12.4-3.8-19-4.5c-5.4-0.6-11.1-1.5-16,1.5c-3.6,2.3-4.8,6.8-2.7,10.6
		c2.6,4.6,9.1,5.1,13.6,4.1c0.7-0.1,1.3-0.4,1.7-0.8c2.1,0.3,4.1,0.6,5.7,0.8c5.8,0.7,17.1,1,18.5-6.9C311,75.2,310.6,73,308.8,72.1
		z"/>
	<path class="st2" d="M289.5,87.1c-0.6-0.8-1.3-1.4-2-2c-2.6-3.6-7.6-4.6-11.7-5.4c-6.2-1.2-12.6-1.5-18.9-1.4
		c-7.8,0.2-24.8,1.2-22.7,13.2c0.8,4.4,5.5,5.8,9.2,6.4c5.8,0.9,11.8,1,17.7,0.8c6-0.2,11.9-0.7,17.8-1.6c3.3-0.5,8.3-0.8,10.7-3.6
		C291.2,91.6,291.2,89.1,289.5,87.1z"/>
	<path class="st2" d="M253.5,53.3L253.5,53.3c-3-0.5-5.9-0.7-8.3-0.7c-4.3-0.1-12.1,1.5-12.1,7.3c0,6.2,9.4,8.3,13.9,7.2
		c3.8-0.9,7.3-2.8,11.1-3.7c5-1.2,10.7,1.2,15.9,0.5c2.2-0.3,4.4-1.8,4.2-4.3C277.5,45.1,261.9,52,253.5,53.3z"/>
</g>
<path class="st2" d="M619.2,208.7"/>
<path class="st0" d="M1312.4,191.4c1.7-4.8,2-8.2,3.9-14.1c1.9-5.8,3.8-10.4,5.1-13.3c2-2.6,4-5.2,6-7.8c0.6-2.6,1.3-5.1,1.9-7.7
	c6.9-7.3,13.7-14.5,20.6-21.8c2.2-1.3,4.4-2.6,6.6-3.9c2.1,0.3,4.2,0.7,6.4,1c2,2.3,3.9,4.6,5.9,6.8c3.3,1.5,6.7,3.1,10,4.6
	c2.7,1.1,5.3,2.3,8,3.4c2.1,2.1,4.2,4.1,6.3,6.2l9,18.1l7.5,10.2l1.5,17l5.6,3.4l1,6.2l2.4,11.3c-38.2,0-76.4,0-114.5,0
	C1307.8,204.5,1310.1,198,1312.4,191.4z"/>
<path class="st1" d="M1356.4,211.2l-1.5-3.8l-1.2-5.9l-5.8-2.2l-2.1-2.1c-2.5-5-5-10-7.5-15c2.9-2.2,5.8-4.5,8.7-6.7
	c2.8-4.3,5.5-8.7,8.3-13c-1.1-4.5-2.1-8.9-3.2-13.4c0.3-4.1,0.5-8.2,0.8-12.2c1.2-2.7,2.3-5.4,3.5-8.1c-0.3-1.9-0.6-3.7-0.9-5.6
	c-2.1,1.2-4.2,2.5-6.3,3.7c-6.9,7.3-13.7,14.5-20.6,21.8c-0.6,2.6-1.3,5.1-1.9,7.7c-2,2.6-4,5.2-6,7.8c-1.3,3-3.2,7.5-5.1,13.3
	c-1.9,5.9-2.2,9.2-3.9,14.1c-2.3,6.5-4.7,13.1-7,19.6C1321.9,211.2,1339.2,211.2,1356.4,211.2z"/>
<polygon class="st0" points="1364.6,205.4 1368.5,199.1 1375,194 1388.6,187.7 1399.3,173.2 1413.8,170 1418.2,170 1423,170 
	1427.9,172.4 1440,178.7 1448.5,183.3 1454.3,182.8 1463.2,190.6 1470.7,195 1472.2,202.2 1477.8,203.7 1478.7,206.4 1481.2,211.2 
	1356.4,211.2 "/>
<g>
	<path class="st2" d="M1258.2,148.5c-2.5,1.9-5.3,3.5-8,5.1c-2.6,1.5-4.7,3.4-6.8,5.5c-1.3,1.3-2.5,2.8-3.5,4.4
		c-0.1-2.1-0.2-4.2-0.4-6.3c-0.3-4.2-0.6-8.4-1-12.6c0-0.8-0.1-1.5-0.1-2.3c0.1-4.6,0.2-9.2,0.1-13.8c0-2.7-0.2-5.3-0.3-8
		c0-0.1,0-0.3,0-0.4c1.8-3,3.3-6.2,5.3-9.1c2.3-3.5,5.1-6.9,8-10c0.2-0.2,0-0.4-0.2-0.3c-3.6,2.3-6.3,5.3-8.9,8.6
		c-1.6,2-3.4,4.2-4.8,6.5c-0.2-1-0.4-2.1-0.5-3.2c-0.7-5.4-2-10.5-4.1-15.5c-0.1-0.1-0.3-0.1-0.2,0.1c1.5,5.2,2.4,10.7,2.9,16.1
		c0.1,1.2-0.2,2.4-0.2,3.6c0,1.4,0,2.9,0,4.3c0,2.9-0.1,5.8-0.3,8.7c-0.3,6.6-0.6,13.2-0.9,19.9c0-0.1-0.1-0.2-0.1-0.3
		c-1-2-2.2-4-3.5-5.9c-1.3-1.8-2.7-3.1-4.4-4.5c-3-2.5-6.2-4.7-9.7-6.5c-1.7-0.8-3.4-1.6-5.2-2.1c-1.2-0.4-2.9-1-4.2-0.5
		c-0.2,0.1-0.2,0.3,0,0.4c1.3,0.4,2.6,0.6,3.9,1c1.8,0.6,3.6,1.5,5.4,2.4c3.2,1.6,6.4,3.6,9,6.1c1.2,1.2,2.2,3.3,3.1,4.9
		c1,1.8,2,3.7,2.8,5.6c1.1,2.4,1.9,4.9,2.7,7.4c-0.1,2-0.1,4.1-0.2,6.1c-0.4,11.4-0.7,22.8-1.2,34.2c-0.3,5.4-0.3,10.9-1.2,16.2
		c-0.4,2.4-0.9,4.9-1,7.3c0,1.4-0.5,3.2,0.7,4.3c0.5,0.5,1.4,0.8,2.1,0.6c0.5-0.2,0.8-0.4,1.2-0.7c0.1,0,0.2,0.1,0.3,0.1
		c1.5,0.6,3,0.5,4.6,0.3c1-0.2,1.6-1.2,1.7-2.1c0.2,0.2,0.5,0.4,0.7,0.5c2.1,1,4.7-1.8,2.7-3.4c-0.1-0.3-0.2-0.6-0.3-0.9
		c-0.3-1-0.5-2.1-0.6-3.1c-0.4-2.8-0.6-5.7-0.7-8.5c-0.5-7.2-1.5-14.3-1.8-21.5c-0.3-5.6-0.4-11.2-0.5-16.8
		c1.5-3.5,3.1-6.9,4.7-10.3c1.4-2.9,4.4-4.5,7-6.1c2.6-1.6,4.9-3,6.6-5.4C1258.4,148.6,1258.3,148.4,1258.2,148.5z"/>
	<g>
		<path class="st2" d="M1257,143.3c0-0.4-0.5-0.5-0.7-0.2c-1.3,1.8-1.9,4.5-0.1,6.2c0,0,0.1,0.1,0.1,0.1c0.1,0.1,0.2,0.1,0.3,0
			C1258.5,148.9,1257,144.5,1257,143.3z"/>
		<path class="st2" d="M1260.6,156.2c-0.7-2.4-2.9-4.8-5.6-4.3c0,0-0.1-0.1-0.1-0.1c-0.3-0.2-0.7,0.1-0.6,0.5c0.4,1.1,1.6,2,2.5,2.7
			c0.9,0.6,2.2,0.6,2.8,1.6C1259.9,157.1,1260.8,156.8,1260.6,156.2z"/>
		<path class="st2" d="M1262.2,143c-0.1-0.4-0.6-0.3-0.8,0c-0.7,1.8-1.8,3.4-2.8,5c0,0,0,0.1,0,0.1c0,0,0,0-0.1,0
			c-0.5,0.3-0.2,1,0.4,0.9C1262,148.6,1262.7,145.6,1262.2,143z"/>
		<path class="st2" d="M1238.4,97.5c0-0.6-0.8-0.7-1-0.2c-0.4,0.4-0.6,0.9-0.8,1.4c-1.2,1.9-1.5,4.1-1.5,6.3c0,0.6,0.8,0.6,1,0.1
			C1237.1,102.7,1238.5,100.2,1238.4,97.5z M1236.7,100.7c0.1-0.3,0.2-0.7,0.3-1c0,0,0,0,0,0c0,0.1-0.1,0.3-0.1,0.4
			C1236.9,100.3,1236.8,100.5,1236.7,100.7z"/>
		<path class="st2" d="M1246.3,109.6c-0.5-0.3-1-0.5-1.6-0.7c-0.6-0.2-0.9,0.6-0.6,1c1.6,2,4.5,2.8,5.6,5.3c0.2,0.5,0.8,0.3,1-0.1
			C1251.5,112.3,1248.8,110.3,1246.3,109.6z"/>
		<path class="st2" d="M1247.9,96.6c-2,1.7-0.9,3.7-0.7,5.8c0,0,0,0,0,0.1c-0.2,0.6,0.7,0.8,0.9,0.3c0.7-1.8-0.6-4,0.5-5.6
			C1248.9,96.7,1248.3,96.3,1247.9,96.6z"/>
		<path class="st2" d="M1235.3,126.3c-0.5-0.8-0.6-1.8-1.2-2.5c-0.7-0.8-1.9-1.2-2.3-2.2c-0.1-0.3-0.7-0.5-0.8,0
			c-0.3,2.4,1.4,6,4.2,5.6c0.2,0,0.2-0.3,0.1-0.4C1235.4,126.7,1235.4,126.5,1235.3,126.3z"/>
		<path class="st2" d="M1225,131.4c0.1-0.5-0.6-0.9-0.9-0.4c-1.1,2.1-0.9,4.2-0.2,6.4c0.1,0.3,0.4,0.2,0.5,0c0.1,0,0.3-0.1,0.4-0.2
			C1226,135.3,1224.5,133.4,1225,131.4z"/>
		<path class="st2" d="M1217.5,134.1c-1.1-0.1-2.4-0.1-3.4,0.4c-1.2,0.5-1.7,1.7-1.9,3c-0.1,0.5,0.5,0.9,0.9,0.5
			c0.9-0.7,1.8-1.3,2.9-1.4c0.8-0.1,1.3-0.5,1.6-1.3c0-0.2,0-0.4-0.1-0.5c0,0,0,0,0.1,0C1217.9,134.6,1217.8,134.1,1217.5,134.1z"/>
	</g>
	<g>
		<defs>
			<path id="SVGID_1_" d="M1257.8,148.5c-2.5,1.9-5.3,3.5-8,5.1c-2.6,1.5-4.7,3.4-6.8,5.5c-1.3,1.3-2.5,2.8-3.5,4.4
				c-0.1-2.1-0.2-4.2-0.4-6.3c-0.3-4.2-0.6-8.4-1-12.6c0-0.8-0.1-1.5-0.1-2.3c0.1-4.6,0.2-9.2,0.1-13.8c0-2.7-0.2-5.3-0.3-8
				c0-0.1,0-0.3,0-0.4c1.8-3,3.3-6.2,5.3-9.1c2.3-3.5,5.1-6.9,8-10c0.2-0.2,0-0.4-0.2-0.3c-3.6,2.3-6.3,5.3-8.9,8.6
				c-1.6,2-3.4,4.2-4.8,6.5c-0.2-1-0.4-2.1-0.5-3.2c-0.7-5.4-2-10.5-4.1-15.5c-0.1-0.1-0.3-0.1-0.2,0.1c1.5,5.2,2.4,10.7,2.9,16.1
				c0.1,1.2-0.2,2.4-0.2,3.6c0,1.4,0,2.9,0,4.3c0,2.9-0.1,5.8-0.3,8.7c-0.3,6.6-0.6,13.2-0.9,19.9c0-0.1-0.1-0.2-0.1-0.3
				c-1-2-2.2-4-3.5-5.9c-1.3-1.8-2.7-3.1-4.4-4.5c-3-2.5-6.2-4.7-9.7-6.5c-1.7-0.8-3.4-1.6-5.2-2.1c-1.2-0.4-2.9-1-4.2-0.5
				c-0.2,0.1-0.2,0.3,0,0.4c1.3,0.4,2.6,0.6,3.9,1c1.8,0.6,3.6,1.5,5.4,2.4c3.2,1.6,6.4,3.6,9,6.1c1.2,1.2,2.2,3.3,3.1,4.9
				c1,1.8,2,3.7,2.8,5.6c1.1,2.4,1.9,4.9,2.7,7.4c-0.1,2-0.1,4.1-0.2,6.1c-0.4,11.4-0.7,22.8-1.2,34.2c-0.3,5.4-0.3,10.9-1.2,16.2
				c-0.4,2.4-0.9,4.9-1,7.3c0,1.4-0.5,3.2,0.7,4.3c0.5,0.5,1.4,0.8,2.1,0.6c0.5-0.2,0.8-0.4,1.2-0.7c0.1,0,0.2,0.1,0.3,0.1
				c1.5,0.6,3,0.5,4.6,0.3c1-0.2,1.6-1.2,1.7-2.1c0.2,0.2,0.5,0.4,0.7,0.5c2.1,1,4.7-1.8,2.7-3.4c-0.1-0.3-0.2-0.6-0.3-0.9
				c-0.3-1-0.5-2.1-0.6-3.1c-0.4-2.8-0.6-5.7-0.7-8.5c-0.5-7.2-1.5-14.3-1.8-21.5c-0.3-5.6-0.4-11.2-0.5-16.8
				c1.5-3.5,3.1-6.9,4.7-10.3c1.4-2.9,4.4-4.5,7-6.1c2.6-1.6,4.9-3,6.6-5.4C1258,148.6,1257.9,148.4,1257.8,148.5z"/>
		</defs>
		<use xlink:href="#SVGID_1_"  style="overflow:visible;fill:#50435D;"/>
		<clipPath id="SVGID_2_">
			<use xlink:href="#SVGID_1_"  style="overflow:visible;"/>
		</clipPath>
		<g class="st3">
			<path class="st2" d="M1246.6,217.3c-8.4,0-16.7,1-25,0.3c-0.2,0-0.2,0.3,0,0.4c8.3,0.8,16.7-0.2,25-0.2
				C1246.9,217.7,1246.9,217.3,1246.6,217.3z"/>
			<path class="st2" d="M1250.7,211.4c-10.1-0.2-20.3-0.5-30.3,1.6c-0.2,0-0.1,0.4,0.1,0.3c9.9-2,20.1-1.4,30.2-1.5
				C1251,211.7,1251,211.4,1250.7,211.4z"/>
			<path class="st2" d="M1249.9,204.2c-4.7,0.8-9.5,1.6-14.2,2.6c-0.1,0-0.1,0.2,0.1,0.2c4.7-1,9.5-1.8,14.2-2.5
				C1250.1,204.4,1250.1,204.2,1249.9,204.2z"/>
			<path class="st2" d="M1246.7,200.9c-7.3,1.3-14.4,3.6-21.9,3.7c-0.4,0-0.4,0.5,0,0.5c7.5,0,14.7-2.2,22-3.6
				C1247.4,201.5,1247.2,200.8,1246.7,200.9z"/>
			<path class="st2" d="M1240.5,198.1c-4.5,0.7-9,1-13.6,1c-0.4,0-0.4,0.7,0,0.7c4.6,0,9.2-0.3,13.8-1
				C1241.2,198.6,1241,198,1240.5,198.1z"/>
			<path class="st2" d="M1238.3,194.6c-1.5,0.2-3.1,0.3-4.6,0.3c-0.3,0-0.3,0.4,0,0.4c1.6,0,3.1,0,4.7-0.3
				C1238.6,194.9,1238.5,194.5,1238.3,194.6z"/>
			<path class="st2" d="M1244.8,190.4c-5.1,0.6-10.1,1.5-15.2,1.7c-0.5,0-0.5,0.7,0,0.7c5.1,0.1,10.3-0.5,15.4-1.4
				C1245.4,191.3,1245.3,190.4,1244.8,190.4z"/>
			<path class="st2" d="M1243,186.5c-2.3,0.2-4.6,0.7-7,1c-0.5,0.1-0.5,0.8,0,0.7c2.4-0.3,4.7-0.7,7.1-1.1
				C1243.4,187,1243.3,186.4,1243,186.5z"/>
			<path class="st2" d="M1243.6,183c-2.4,0.5-4.9,1-7.4,1c-0.6,0-0.6,1,0,1c2.6-0.1,5.1-0.6,7.6-1.1
				C1244.4,183.7,1244.2,182.9,1243.6,183z"/>
			<path class="st2" d="M1239,179.8c-1.1,0.2-2.3,0.5-3.4,0.2c-0.4-0.1-0.6,0.6-0.2,0.7c1.3,0.2,2.5,0,3.8-0.3
				C1239.5,180.3,1239.4,179.7,1239,179.8z"/>
			<path class="st2" d="M1237.8,170.8c-3.6,0.3-7.2,1-10.8,0.7c-0.1,0-0.2,0.2,0,0.2c3.7,0.5,7.2-0.1,10.9-0.4
				C1238.1,171.2,1238.1,170.7,1237.8,170.8z"/>
			<path class="st2" d="M1237,167.9c-1.8,0-3.6,0-5.4,0c-0.3,0-0.3,0.5,0,0.5c1.8,0,3.6,0,5.4,0
				C1237.4,168.5,1237.4,167.9,1237,167.9z"/>
			<path class="st2" d="M1234,165.1c-1.2,0.2-2.5,0.2-3.7,0.2c-0.7,0-0.7,1.1,0,1.1c1.4,0,2.7,0,4-0.3
				C1235,166,1234.7,164.9,1234,165.1z"/>
			<path class="st2" d="M1231.8,144.4c0.1,2.9-2.6,4.9-3.9,7.3c-0.2,0.4,0.3,0.8,0.6,0.4c1.9-2.2,4.6-4.6,4.5-7.7
				C1232.9,143.7,1231.8,143.7,1231.8,144.4z"/>
			<path class="st2" d="M1229.2,143.1c-0.7,1.6-1.8,3-2.7,4.6c-0.1,0.2,0.2,0.4,0.3,0.2c0.8-1.6,2-3,2.5-4.7
				C1229.4,143.1,1229.2,143,1229.2,143.1z"/>
			<path class="st2" d="M1243.8,167.8c-0.6-2.8-1.3-5.7-3-8c-0.1-0.2-0.4,0-0.3,0.2c1.3,2.5,1.7,5.4,2.7,8
				C1243.3,168.4,1243.9,168.2,1243.8,167.8z"/>
			<path class="st2" d="M1245.5,160.3c-0.6-0.8-1-1.7-1.6-2.5c-0.1-0.1-0.3,0-0.2,0.1c0.5,0.9,0.9,1.8,1.5,2.6
				C1245.2,160.8,1245.7,160.6,1245.5,160.3z"/>
			<path class="st2" d="M1241.2,153.1c-1.4,0.9-2.8,1.8-4.4,1.9c-0.4,0-0.4,0.6,0,0.6c1.8,0,3.3-0.8,4.9-1.7
				C1242.1,153.6,1241.7,152.8,1241.2,153.1z"/>
			<path class="st2" d="M1241.1,149.7c-1.5,0.7-3.1,1.2-4.6,1.8c-0.2,0.1-0.1,0.4,0.1,0.4c1.6-0.5,3.2-1.1,4.7-1.9
				C1241.4,149.9,1241.3,149.6,1241.1,149.7z"/>
			<path class="st2" d="M1242.7,135c-3.1,0-6.2,0.1-9.3,0c-0.2,0-0.2,0.3,0,0.3c3.1,0.4,6.2,0.5,9.3,0.5
				C1243.2,135.8,1243.2,135,1242.7,135z"/>
			<path class="st2" d="M1241.4,131.9c-2.7-0.1-5.3,0.3-8,0.4c-0.3,0-0.3,0.5,0,0.5c2.7,0,5.3-0.1,8-0.2
				C1241.9,132.6,1241.9,132,1241.4,131.9z"/>
			<path class="st2" d="M1235.7,129.4c-1,0-2,0.3-3,0.5c-0.7,0.2-0.4,1.3,0.3,1.1c0.9-0.2,1.8-0.4,2.7-0.5
				C1236.4,130.5,1236.4,129.5,1235.7,129.4z"/>
			<path class="st2" d="M1237,120c-0.9,0-1.9,0-2.8-0.3c-0.3-0.1-0.4,0.3-0.1,0.4c1,0.2,1.9,0.3,2.9,0.3
				C1237.3,120.4,1237.3,120,1237,120z"/>
			<path class="st2" d="M1241.5,117.5c-1-1.5-1.8-3-2.6-4.6c0,0-0.1,0-0.1,0c0.8,1.6,1.6,3.2,2.5,4.7
				C1241.4,117.7,1241.6,117.6,1241.5,117.5z"/>
			<path class="st2" d="M1242.5,117c-1.2-1.8-2.3-3.6-3.6-5.2c-0.1-0.1-0.2,0-0.1,0.1c1.3,1.6,2.3,3.5,3.6,5.1
				C1242.4,117.2,1242.6,117.1,1242.5,117z"/>
		</g>
	</g>
</g>
<g>
	<path class="st2" d="M1575.4,117.3c-1.6-3.1-5.9-4-8.9-4.8c-3.7-0.9-7.5-1.3-11.2-1.5c-5.9-0.5-12.3-2.6-17.6,1.2
		c-0.3,0.2-0.5,0.5-0.8,0.7c-2.1,0.2-4,1.1-4.9,3c-2,4.5,2.9,6.5,6.3,7c4.1,0.5,8.2-0.2,12.3,0.6c6.2,1.1,12.3,3.5,18.6,1.9
		C1572.7,124.4,1577.7,121.7,1575.4,117.3z"/>
	<path class="st2" d="M1536.6,86.4c-5.8-5.2-14.1-5.2-22-4.2c-6.5-1.8-13.4-3.4-20.2-2.7c-3.4,0.4-6.7,0.9-10,0.2
		c-2.8-0.5-5.5-1.2-8.3-1.6c-5.7-0.8-11.8-0.2-15.4,5c-3.2,4.6,0.3,8.9,4.9,9.9c5.9,1.3,12.2,1.8,18.2,2.3c7.5,0.5,14.6-0.4,22-0.7
		c6.2-0.2,12.4,0.7,18.6,0.8c4.9,0.1,9.7-0.9,12.7-5C1537.9,89.3,1537.6,87.3,1536.6,86.4z M1522.3,88.4c1.3,0,2.7,0.1,4,0.2
		C1524.8,88.8,1523.5,88.6,1522.3,88.4z"/>
	<path class="st2" d="M1557.7,68.6c0.2-0.8,0.1-1.7-0.4-2.5c-2.7-4.5-8.7-5-13.3-5.5c-4.7-0.5-9.5-0.7-14.3-0.8
		c-4.3-0.1-10.6-0.1-12.3,4.8c-2.2,6,4.5,8.9,9.1,9.2c2.3,0.2,4.7-0.2,7-0.3c3.9-0.3,7.9,0.8,11.8,1.1
		C1547.8,74.6,1560.5,74.5,1557.7,68.6z"/>
	<path class="st2" d="M1558.7,91.5c-11.5,2.2-22,7.5-32.5,12.3c-0.2-5.2-0.4-10.4-0.7-15.6c-0.2-4.2-0.5-8.2-0.6-12.4
		c1.3-0.7,2.7-1.5,4-2.2c1.9-1.1,3.9-1.8,5.6-3.2c0.3-0.3,0-0.8-0.4-0.7c-2.1,0.4-4,1.3-6,2.1c-1.1,0.4-2.2,0.8-3.2,1.3c0-1,0-2,0-3
		c0-5.2-0.4-10.2-2.6-15c-0.2-0.5-1-0.2-0.8,0.4c1.5,5.5,1.2,11.4,0.9,17.1c0,0.5-0.1,0.9-0.1,1.4c-3.4-2.2-7.6-3.8-11.6-4.5
		c-0.6-0.2-0.8,0.8-0.2,1c4,1.4,7.3,3.8,11,5.7c0.1,0.4,0.3,0.7,0.6,0.8c-0.3,4.8-0.7,9.6-0.8,14.3c-0.2,4.4-0.2,8.8-0.3,13.2
		c-12.4-5.9-27-7.2-38.2-15.6c-0.3-0.2-0.8,0.3-0.5,0.5c11.2,9.4,26,11.2,38.6,18c-0.1,8,0.1,16,0.5,24.1c-3.4-2.5-7.5-4.5-11.1-6.2
		c-4.2-2-8.9-4.1-13.6-4.2c-0.5,0-0.5,0.7-0.1,0.8c9.4,2.2,16.6,8.7,24.9,13.2c0.6,13.1,1.3,26.2,1.7,39.3c0.2,6.7,0.2,13.3,0.1,20
		c-0.1,6.3-0.7,13.9,2.1,19.8c1.4,3,5.4,1.2,5.6-1.5c0.2-3.2-0.5-6.5-0.6-9.8c-0.2-3.3-0.2-6.5-0.1-9.9c0.1-7.2,0-14.3-0.4-21.4
		c-0.5-11.9-1.6-23.7-2.4-35.6c3.6-1.6,7.1-4.6,10.2-6.6c4.5-2.9,9.2-5.5,13.9-8.3c0.6-0.4,0.2-1.3-0.5-1.1
		c-4.9,1.3-9.3,3.9-13.6,6.4c-2.5,1.5-5,3-7.5,4.5c-0.8,0.5-1.8,1-2.7,1.5c-0.1-0.8-0.1-1.6-0.2-2.5c-0.4-7.6-0.6-15.3-0.8-23
		c10.8-5.2,21.1-11.4,32.7-14.3C1559.8,92.5,1559.4,91.4,1558.7,91.5z"/>
	<path class="st2" d="M1579,91.8c-3.9-3.9-11.8-3.1-16.8-3.2c-8.9-0.1-17.6-3.2-26.7-1.8c-5.4,0.8-18.3,6.5-10.3,13.5
		c0.1,0.1,0.2,0.2,0.2,0.2c0.2,0.5,0.6,0.8,1.3,0.9c2.5,1.4,5.5,1.5,8.3,0.8c0.7-0.2,1.4-0.4,2.1-0.7c1.5,0,2.9,0.1,4.4,0.2
		c5.4,0.5,10.8,1.2,16.2,1.8c5.5,0.7,11.8,1.4,17.3-0.2C1579.8,102.2,1583.2,96.1,1579,91.8z"/>
	<path class="st2" d="M1524.3,63.3c-4.8-2.2-10.6-2.5-15.8-3.1c-4.4-0.5-12.3-2-15.3,2.5c-0.5,0.8-0.8,1.5-0.9,2.2
		c-0.4,0.6-0.8,1.3-1.1,2.1c-1.2,3.1,1.6,4.9,4.1,4.5c1.5,1,3.7,1.4,5.6,1.5c5.5,1.6,11.9,1.9,14.4,0.9c0.1-0.1,0.2-0.1,0.3-0.2
		c4.1,0.3,8.1-0.9,9.9-5.4C1526.3,66.6,1526.2,64.2,1524.3,63.3z"/>
	<path class="st2" d="M1531.1,103.3c-4.6-2.2-9.6-2.9-14.6-3.5c-4.2-0.5-8.6-1.2-12.3,1.2c-2.8,1.8-3.7,5.2-2.1,8.2
		c2,3.5,7,3.9,10.5,3.2c0.5-0.1,1-0.3,1.3-0.6c1.6,0.2,3.2,0.5,4.4,0.6c4.5,0.5,13.2,0.8,14.3-5.3
		C1532.8,105.7,1532.5,104,1531.1,103.3z"/>
	<path class="st2" d="M1516.2,114.9c-0.5-0.6-1-1.1-1.5-1.5c-2-2.8-5.9-3.5-9-4.2c-4.8-0.9-9.7-1.2-14.6-1.1
		c-6,0.2-19.1,0.9-17.5,10.2c0.6,3.4,4.2,4.5,7.1,4.9c4.5,0.7,9.1,0.8,13.6,0.6c4.6-0.2,9.2-0.5,13.7-1.2c2.5-0.4,6.4-0.6,8.2-2.8
		C1517.5,118.3,1517.5,116.4,1516.2,114.9z"/>
	<path class="st2" d="M1488.5,88.8L1488.5,88.8c-2.3-0.4-4.5-0.5-6.4-0.5c-3.3-0.1-9.3,1.2-9.3,5.6c0,4.8,7.2,6.4,10.7,5.5
		c2.9-0.7,5.6-2.2,8.6-2.9c3.9-0.9,8.2,0.9,12.3,0.4c1.7-0.2,3.4-1.4,3.2-3.3C1507,82.5,1494.9,87.8,1488.5,88.8z"/>
</g>
<path class="st2" d="M470.2,211.7c7.2-1,14.4-1.9,21.7-2.9c12.5-0.5,25-1.1,37.5-1.6l42.6-5.8l56.4-1.3c0.9-0.5,1.8-1.1,2.8-1.6
	c13.3-1.2,26.6-2.3,39.8-3.5c3.4-0.7,6.7-1.5,10.1-2.2c20.9-0.3,41.9-0.6,62.8-0.8l59.1,4l56.4,5.3l77,2.3l74.2,3.5l41.2,4.5H470.2z
	"/>
<g>
	<path class="st2" d="M696.4,155.8c-1.4,1.1-3,2-4.5,2.9c-1.4,0.9-2.6,1.9-3.8,3.1c-0.8,0.8-1.4,1.6-2,2.5c-0.1-1.2-0.1-2.4-0.2-3.6
		c-0.2-2.4-0.4-4.7-0.6-7.1c0-0.4,0-0.8,0-1.3c0.1-2.6,0.1-5.2,0.1-7.8c0-1.5-0.1-3-0.2-4.5c0-0.1,0-0.2,0-0.2c1-1.7,1.9-3.5,3-5.2
		c1.3-2,2.9-3.9,4.5-5.6c0.1-0.1,0-0.2-0.1-0.2c-2,1.3-3.6,3-5,4.9c-0.9,1.1-1.9,2.4-2.7,3.7c-0.1-0.6-0.2-1.2-0.3-1.8
		c-0.4-3-1.2-5.9-2.3-8.7c0-0.1-0.2-0.1-0.1,0c0.9,3,1.4,6,1.6,9.1c0.1,0.7-0.1,1.3-0.1,2c0,0.8,0,1.6,0,2.4c0,1.6-0.1,3.3-0.1,4.9
		c-0.2,3.7-0.4,7.5-0.5,11.2c0-0.1-0.1-0.1-0.1-0.2c-0.6-1.1-1.2-2.3-2-3.3c-0.7-1-1.5-1.7-2.5-2.5c-1.7-1.4-3.5-2.6-5.5-3.7
		c-0.9-0.5-1.9-0.9-2.9-1.2c-0.7-0.2-1.6-0.6-2.4-0.3c-0.1,0-0.1,0.2,0,0.2c0.7,0.2,1.5,0.3,2.2,0.6c1,0.3,2,0.8,3,1.3
		c1.8,0.9,3.6,2,5,3.5c0.7,0.7,1.3,1.9,1.7,2.7c0.6,1,1.1,2.1,1.6,3.2c0.6,1.4,1.1,2.8,1.5,4.2c0,1.1-0.1,2.3-0.1,3.4
		c-0.2,6.4-0.4,12.9-0.7,19.3c-0.1,3-0.2,6.1-0.7,9.1c-0.2,1.3-0.5,2.7-0.6,4.1c0,0.8-0.3,1.8,0.4,2.4c0.3,0.3,0.8,0.5,1.2,0.3
		c0.3-0.1,0.5-0.2,0.7-0.4c0.1,0,0.1,0.1,0.2,0.1c0.9,0.4,1.7,0.3,2.6,0.1c0.5-0.1,0.9-0.6,0.9-1.2c0.1,0.1,0.3,0.2,0.4,0.3
		c1.2,0.6,2.7-1,1.5-1.9c-0.1-0.2-0.1-0.3-0.2-0.5c-0.2-0.6-0.3-1.2-0.3-1.7c-0.2-1.6-0.3-3.2-0.4-4.8c-0.3-4-0.8-8-1-12.1
		c-0.2-3.2-0.2-6.3-0.3-9.4c0.9-1.9,1.7-3.9,2.6-5.8c0.8-1.6,2.5-2.5,3.9-3.4c1.4-0.9,2.7-1.7,3.7-3
		C696.5,155.9,696.4,155.8,696.4,155.8z"/>
	<g>
		<path class="st2" d="M695.7,152.9c0-0.2-0.3-0.3-0.4-0.1c-0.7,1-1,2.5-0.1,3.5c0,0,0.1,0,0.1,0c0,0,0.1,0,0.2,0
			C696.5,156,695.7,153.6,695.7,152.9z"/>
		<path class="st2" d="M697.7,160.2c-0.4-1.3-1.7-2.7-3.2-2.4c0,0-0.1,0-0.1-0.1c-0.2-0.1-0.4,0.1-0.3,0.3c0.2,0.6,0.9,1.1,1.4,1.5
			c0.5,0.4,1.2,0.3,1.6,0.9C697.3,160.7,697.8,160.5,697.7,160.2z"/>
		<path class="st2" d="M698.6,152.7c0-0.2-0.4-0.2-0.4,0c-0.4,1-1,1.9-1.6,2.8c0,0,0,0,0,0.1c0,0,0,0,0,0c-0.3,0.2-0.1,0.6,0.2,0.5
			C698.5,155.9,698.9,154.2,698.6,152.7z"/>
		<path class="st2" d="M685.2,127.1c0-0.3-0.5-0.4-0.6-0.1c-0.2,0.2-0.4,0.5-0.4,0.8c-0.6,1.1-0.8,2.3-0.8,3.6
			c0,0.3,0.4,0.4,0.6,0.1C684.5,130,685.3,128.6,685.2,127.1z M684.3,128.9c0.1-0.2,0.1-0.4,0.2-0.6c0,0,0,0,0,0
			c0,0.1,0,0.2-0.1,0.2C684.4,128.7,684.3,128.8,684.3,128.9z"/>
		<path class="st2" d="M689.6,133.9c-0.3-0.2-0.6-0.3-0.9-0.4c-0.3-0.1-0.5,0.3-0.3,0.6c0.9,1.1,2.5,1.6,3.1,3
			c0.1,0.3,0.5,0.1,0.6-0.1C692.6,135.4,691.1,134.3,689.6,133.9z"/>
		<path class="st2" d="M690.6,126.6c-1.1,0.9-0.5,2.1-0.4,3.3c0,0,0,0,0,0c-0.1,0.3,0.4,0.5,0.5,0.1c0.4-1-0.3-2.2,0.3-3.2
			C691.2,126.6,690.8,126.4,690.6,126.6z"/>
		<path class="st2" d="M683.5,143.3c-0.3-0.4-0.4-1-0.7-1.4c-0.4-0.4-1.1-0.7-1.3-1.3c-0.1-0.2-0.4-0.3-0.5,0
			c-0.2,1.3,0.8,3.4,2.4,3.1c0.1,0,0.1-0.1,0.1-0.2C683.5,143.5,683.5,143.4,683.5,143.3z"/>
		<path class="st2" d="M677.7,146.2c0.1-0.3-0.4-0.5-0.5-0.2c-0.6,1.2-0.5,2.4-0.1,3.6c0,0.2,0.2,0.1,0.3,0c0.1,0,0.2,0,0.2-0.1
			C678.2,148.4,677.4,147.3,677.7,146.2z"/>
		<path class="st2" d="M673.4,147.7c-0.6-0.1-1.3,0-1.9,0.2c-0.7,0.3-1,1-1,1.7c0,0.3,0.3,0.5,0.5,0.3c0.5-0.4,1-0.7,1.6-0.8
			c0.5-0.1,0.8-0.3,0.9-0.7c0-0.1,0-0.2-0.1-0.3c0,0,0,0,0,0C673.7,148,673.6,147.7,673.4,147.7z"/>
	</g>
	<g>
		<defs>
			<path id="SVGID_3_" d="M696.1,155.8c-1.4,1.1-3,2-4.5,2.9c-1.4,0.9-2.6,1.9-3.8,3.1c-0.8,0.8-1.4,1.6-2,2.5
				c-0.1-1.2-0.1-2.4-0.2-3.6c-0.2-2.4-0.4-4.7-0.6-7.1c0-0.4,0-0.8,0-1.3c0.1-2.6,0.1-5.2,0.1-7.8c0-1.5-0.1-3-0.2-4.5
				c0-0.1,0-0.2,0-0.2c1-1.7,1.9-3.5,3-5.2c1.3-2,2.9-3.9,4.5-5.6c0.1-0.1,0-0.2-0.1-0.2c-2,1.3-3.6,3-5,4.9
				c-0.9,1.1-1.9,2.4-2.7,3.7c-0.1-0.6-0.2-1.2-0.3-1.8c-0.4-3-1.2-5.9-2.3-8.7c0-0.1-0.2-0.1-0.1,0c0.9,3,1.4,6,1.6,9.1
				c0.1,0.7-0.1,1.3-0.1,2c0,0.8,0,1.6,0,2.4c0,1.6-0.1,3.3-0.1,4.9c-0.2,3.7-0.4,7.5-0.5,11.2c0-0.1-0.1-0.1-0.1-0.2
				c-0.6-1.1-1.2-2.3-2-3.3c-0.7-1-1.5-1.7-2.5-2.5c-1.7-1.4-3.5-2.6-5.5-3.7c-0.9-0.5-1.9-0.9-2.9-1.2c-0.7-0.2-1.6-0.6-2.4-0.3
				c-0.1,0-0.1,0.2,0,0.2c0.7,0.2,1.5,0.3,2.2,0.6c1,0.3,2,0.8,3,1.3c1.8,0.9,3.6,2,5,3.5c0.7,0.7,1.3,1.9,1.7,2.7
				c0.6,1,1.1,2.1,1.6,3.2c0.6,1.4,1.1,2.8,1.5,4.2c0,1.1-0.1,2.3-0.1,3.4c-0.2,6.4-0.4,12.9-0.7,19.3c-0.1,3-0.2,6.1-0.7,9.1
				c-0.2,1.3-0.5,2.7-0.6,4.1c0,0.8-0.3,1.8,0.4,2.4c0.3,0.3,0.8,0.5,1.2,0.3c0.3-0.1,0.5-0.2,0.7-0.4c0.1,0,0.1,0.1,0.2,0.1
				c0.9,0.4,1.7,0.3,2.6,0.1c0.5-0.1,0.9-0.6,0.9-1.2c0.1,0.1,0.3,0.2,0.4,0.3c1.2,0.6,2.7-1,1.5-1.9c-0.1-0.2-0.1-0.3-0.2-0.5
				c-0.2-0.6-0.3-1.2-0.3-1.7c-0.2-1.6-0.3-3.2-0.4-4.8c-0.3-4-0.8-8-1-12.1c-0.2-3.2-0.2-6.3-0.3-9.4c0.9-1.9,1.7-3.9,2.6-5.8
				c0.8-1.6,2.5-2.5,3.9-3.4c1.4-0.9,2.7-1.7,3.7-3C696.3,155.9,696.2,155.8,696.1,155.8z"/>
		</defs>
		<use xlink:href="#SVGID_3_"  style="overflow:visible;fill:#50435D;"/>
		<clipPath id="SVGID_4_">
			<use xlink:href="#SVGID_3_"  style="overflow:visible;"/>
		</clipPath>
		<g class="st4">
			<path class="st2" d="M689.8,194.6c-4.7,0-9.4,0.6-14.1,0.2c-0.1,0-0.1,0.2,0,0.2c4.7,0.4,9.4-0.1,14.1-0.1
				C690,194.8,690,194.6,689.8,194.6z"/>
			<path class="st2" d="M692.2,191.2c-5.7-0.1-11.5-0.3-17,0.9c-0.1,0-0.1,0.2,0.1,0.2c5.6-1.2,11.3-0.8,17-0.9
				C692.3,191.5,692.3,191.2,692.2,191.2z"/>
			<path class="st2" d="M691.7,187.2c-2.7,0.5-5.3,0.9-8,1.5c-0.1,0,0,0.1,0,0.1c2.7-0.6,5.3-1,8-1.4
				C691.8,187.3,691.8,187.2,691.7,187.2z"/>
			<path class="st2" d="M689.9,185.3c-4.1,0.8-8.1,2-12.3,2.1c-0.2,0-0.2,0.3,0,0.3c4.2,0,8.3-1.3,12.4-2
				C690.3,185.7,690.2,185.3,689.9,185.3z"/>
			<path class="st2" d="M686.4,183.7c-2.5,0.4-5.1,0.6-7.7,0.6c-0.2,0-0.2,0.4,0,0.4c2.6,0,5.2-0.2,7.8-0.6
				C686.8,184.1,686.7,183.7,686.4,183.7z"/>
			<path class="st2" d="M685.1,181.8c-0.9,0.1-1.7,0.1-2.6,0.1c-0.1,0-0.1,0.2,0,0.2c0.9,0,1.8,0,2.6-0.1
				C685.4,182,685.3,181.8,685.1,181.8z"/>
			<path class="st2" d="M688.8,179.4c-2.9,0.3-5.7,0.9-8.6,0.9c-0.3,0-0.3,0.4,0,0.4c2.9,0,5.8-0.3,8.7-0.8
				C689.2,179.9,689.1,179.4,688.8,179.4z"/>
			<path class="st2" d="M687.8,177.2c-1.3,0.1-2.6,0.4-3.9,0.6c-0.3,0-0.3,0.5,0,0.4c1.3-0.2,2.7-0.4,4-0.6
				C688,177.5,688,177.2,687.8,177.2z"/>
			<path class="st2" d="M688.2,175.3c-1.4,0.3-2.7,0.6-4.2,0.5c-0.4,0-0.4,0.6,0,0.6c1.4-0.1,2.9-0.3,4.3-0.6
				C688.6,175.7,688.5,175.2,688.2,175.3z"/>
			<path class="st2" d="M685.6,173.4c-0.6,0.1-1.3,0.3-1.9,0.1c-0.3-0.1-0.4,0.3-0.1,0.4c0.7,0.1,1.4,0,2.1-0.2
				C685.9,173.7,685.8,173.4,685.6,173.4z"/>
			<path class="st2" d="M684.9,168.4c-2,0.2-4.1,0.6-6.1,0.4c-0.1,0-0.1,0.1,0,0.1c2.1,0.3,4.1-0.1,6.1-0.2
				C685.1,168.6,685.1,168.4,684.9,168.4z"/>
			<path class="st2" d="M684.4,166.7c-1,0-2,0-3.1,0c-0.2,0-0.2,0.3,0,0.3c1,0,2,0,3.1,0C684.7,167.1,684.7,166.7,684.4,166.7z"/>
			<path class="st2" d="M682.8,165.1c-0.7,0.1-1.4,0.1-2.1,0.1c-0.4,0-0.4,0.6,0,0.6c0.8,0,1.5,0,2.3-0.2
				C683.3,165.7,683.2,165.1,682.8,165.1z"/>
			<path class="st2" d="M681.5,153.5c0.1,1.6-1.5,2.8-2.2,4.1c-0.1,0.2,0.2,0.4,0.3,0.2c1.1-1.2,2.6-2.6,2.5-4.4
				C682.1,153.1,681.5,153.1,681.5,153.5z"/>
			<path class="st2" d="M680,152.8c-0.4,0.9-1,1.7-1.5,2.6c-0.1,0.1,0.1,0.2,0.2,0.1C679.2,154.6,679.9,153.8,680,152.8
				C680.1,152.8,680.1,152.7,680,152.8z"/>
			<path class="st2" d="M688.3,166.7c-0.4-1.6-0.7-3.2-1.7-4.5c-0.1-0.1-0.2,0-0.2,0.1c0.7,1.4,1,3,1.5,4.5
				C688,167,688.3,166.9,688.3,166.7z"/>
			<path class="st2" d="M689.2,162.5c-0.3-0.5-0.6-1-0.9-1.4c-0.1-0.1-0.2,0-0.1,0.1c0.3,0.5,0.5,1,0.8,1.5
				C689.1,162.8,689.3,162.6,689.2,162.5z"/>
			<path class="st2" d="M686.8,158.4c-0.8,0.5-1.6,1-2.5,1.1c-0.2,0-0.2,0.3,0,0.3c1,0,1.9-0.5,2.7-1
				C687.3,158.7,687.1,158.2,686.8,158.4z"/>
			<path class="st2" d="M686.7,156.5c-0.9,0.4-1.7,0.7-2.6,1c-0.1,0-0.1,0.3,0.1,0.2c0.9-0.3,1.8-0.6,2.6-1
				C686.9,156.6,686.8,156.5,686.7,156.5z"/>
			<path class="st2" d="M687.6,148.2c-1.7,0-3.5,0.1-5.2,0c-0.1,0-0.1,0.2,0,0.2c1.7,0.2,3.5,0.3,5.2,0.3
				C688,148.7,688,148.2,687.6,148.2z"/>
			<path class="st2" d="M686.9,146.5c-1.5,0-3,0.2-4.5,0.2c-0.2,0-0.2,0.3,0,0.3c1.5,0,3,0,4.5-0.1
				C687.2,146.9,687.2,146.5,686.9,146.5z"/>
			<path class="st2" d="M683.7,145.1c-0.6,0-1.1,0.1-1.7,0.3c-0.4,0.1-0.2,0.7,0.2,0.6c0.5-0.1,1-0.3,1.5-0.3
				C684.1,145.6,684.1,145.1,683.7,145.1z"/>
			<path class="st2" d="M684.4,139.7c-0.5,0-1,0-1.6-0.1c-0.1,0-0.2,0.2-0.1,0.2c0.5,0.1,1.1,0.1,1.6,0.1
				C684.6,140,684.6,139.7,684.4,139.7z"/>
			<path class="st2" d="M687,138.4c-0.6-0.8-1-1.7-1.5-2.6c0,0,0,0,0,0C685.9,136.7,686.3,137.6,687,138.4
				C686.9,138.5,687,138.4,687,138.4z"/>
			<path class="st2" d="M687.5,138.1c-0.6-1-1.3-2-2-2.9c0-0.1-0.1,0-0.1,0.1C686.2,136.2,686.8,137.2,687.5,138.1
				C687.5,138.2,687.6,138.1,687.5,138.1z"/>
		</g>
	</g>
</g>
</svg>
