<?xml version="1.0" encoding="utf-8"?>
<!-- Generator: Adobe Illustrator 23.0.2, SVG Export Plug-In . SVG Version: 6.00 Build 0)  -->
<svg version="1.1" id="Layer_1" xmlns="http://www.w3.org/2000/svg" xmlns:xlink="http://www.w3.org/1999/xlink" x="0px" y="0px"
	 viewBox="0 0 54 180" style="enable-background:new 0 0 54 180;" xml:space="preserve">
<style type="text/css">
	.st0{fill-rule:evenodd;clip-rule:evenodd;fill:#EC8E9E;}
</style>
<title>Slice</title>
<desc>Created with Sketch.</desc>
<g>
	<g id="wave4">
		<g id="Page-1">
			<g id="Water">
				<path id="Page-1-Copy-8" class="st0" d="M15.5,4.9L15.5,4.9c8-5.3,18.7-5.3,26.7,0c8,5.3,18.9,5.3,26.9,0c8-5.3,18.7-5.3,26.7,0
					h0c8,5.3,18.9,5.3,26.9,0c8-5.3,18.7-5.3,26.7,0c8,5.3,18.9,5.3,26.9,0h0c8-5.3,18.7-5.3,26.7,0c8,5.3,18.9,5.3,26.9,0
					c8-5.3,18.7-5.3,26.7,0h0c8,5.3,18.9,5.3,26.9,0c8-5.3,18.7-5.3,26.7,0c8,5.3,18.9,5.3,26.9,0c8-5.3,18.7-5.3,26.7,0
					c8,5.3,18.9,5.3,26.9,0c8-5.3,18.7-5.3,26.7,0c8,5.3,18.9,5.3,26.9,0c8-5.3,18.7-5.3,26.7,0c8,5.3,18.9,5.3,26.9,0
					c8-5.3,18.7-5.3,26.7,0c8,5.3,18.9,5.3,26.9,0l1.2-0.8c7.3-4.8,17.1-4.8,24.3,0l0,0c8.7,5.8,20.5,5.8,29.2,0l0,0
					c7.3-4.8,17.1-4.8,24.3,0l0,0c8.7,5.8,20.5,5.8,29.2,0l0,0c7.7-3.8,16.7-3.8,24.3,0l0,0c8.6,5.7,20.1,5.7,28.8,0.1l0,0
					c7.5-4.9,17.7-4.8,25.1,0.1c8.4,5.5,19.6,5.6,28.1,0.1l0,0c7.8-5,18.2-5,25.9,0.1l0,0c8.1,5.4,19.1,5.4,27.3,0.1l2.6-1.7
					c6.4-4.2,15.1-4.1,21.4,0.2l7.4,5c4.9,3.3,11.6,3.3,16.5,0l3.8-2.5c8.8-5.8,20.7-5.8,29.6,0c7.2,4.7,16.8,4.7,24,0l0.8-0.5
					c8.4-5.5,19.6-5.5,28,0c7.6,5.1,18,5.1,25.6,0h0c8.4-5.5,19.6-5.5,28,0l4.6,3c4.9,3.2,11.5,3.2,16.4,0v0c11.1-7.3,26-7.3,37.1,0
					v0c4.9,3.2,11.5,3.2,16.4,0l5.1-3.3c8.1-5.3,19-5.3,27,0l0,0c7.3,7.3,19.3,7.3,26.6,0l0,0c8.1-5.3,19-5.3,27,0l2.4,1.6
					c6.5,4.3,15.3,4.3,21.8,0c9.5-6.3,22.3-6.3,31.8,0l0,0c6.5,4.3,15.3,4.3,21.8,0l0.7-0.5c9.1-6,21.3-6,30.3,0l0,0
					c6.9,4.6,16.3,4.6,23.3,0c9.1-6,21.3-6,30.3,0c6.9,4.6,16.3,4.6,23.3,0h0c9.1-6,21.3-6,30.3,0c6.9,4.6,16.3,4.6,23.3,0
					c9.1-6,21.3-6,30.3,0l0.6,0.4c6.6,4.3,15.4,4.3,22,0v0c9.4-6.2,22.2-6.2,31.6,0v0c6.6,4.3,15.4,4.3,22,0l2.8-1.9
					c7.9-5.2,18.1-5.2,26,0l0.3,0.2c8,5.3,18.9,5.3,26.9,0c8-5.3,18.7-5.3,26.7,0l0,0c8,5.3,18.9,5.3,26.9,0l0,0
					c8-5.3,18.7-5.3,26.7,0l0,0c8,5.3,18.9,5.3,26.9,0l0,0c8-5.3,18.7-5.3,26.7,0l0,0c8,5.3,18.9,5.3,26.9,0h0
					c8-5.3,18.7-5.3,26.7,0c8,5.3,18.9,5.3,26.9,0c8-5.3,18.7-5.3,26.7,0c8,5.3,18.9,5.3,26.9,0c8-5.3,18.7-5.3,26.7,0
					c8,5.3,18.9,5.3,26.9,0c8-5.3,18.7-5.3,26.7,0l0,0c8,5.3,18.9,5.3,26.9,0l0,0c8-5.3,18.7-5.3,26.7,0l0,0c8,5.3,18.9,5.3,26.9,0
					l0,0c8-5.3,18.7-5.3,26.7,0l0,0c8,5.3,18.9,5.3,26.9,0l0,0c8-5.3,18.7-5.3,26.7,0c8,5.3,18.9,5.3,26.9,0l1.2-0.8
					c7.3-4.8,17.1-4.8,24.3,0l0,0c8.7,5.8,20.5,5.8,29.2,0l0,0c7.3-4.8,17.1-4.8,24.3,0l0,0c8.7,5.8,20.5,5.8,29.2,0l0,0
					c7.3-4.8,17.1-4.8,24.3,0l0,0c8.6,5.7,20.1,5.7,28.8,0.1l0,0c7.6-4.9,17.7-4.8,25.1,0.1c4.2,2.8,9.1,4.2,14,4.2V242H0L0,8.5
					C0,8.5,7.4,10.2,15.5,4.9"/>
			</g>
		</g>
	</g>
</g>
</svg>
