<?xml version="1.0" encoding="utf-8"?>
<!-- Generator: Adobe Illustrator 23.0.2, SVG Export Plug-In . SVG Version: 6.00 Build 0)  -->
<svg version="1.1" id="Layer_1" xmlns="http://www.w3.org/2000/svg" xmlns:xlink="http://www.w3.org/1999/xlink" x="0px" y="0px"
	 viewBox="0 0 128 128" style="enable-background:new 0 0 128 128;" xml:space="preserve">
<style type="text/css">
	.st0{fill:#F47F60;}
	.st1{fill:#D8634C;}
	.st2{fill:#A6F7FF;}
	.st3{fill:#88D0D3;}
	.st4{fill:#FFB864;}
</style>
<path class="st0" d="M0.1,10.2c0,0,5.9-2.4,13.2-1.6l29.3,14.7c0,0,3.4,2.2,6.8,11.4L0.1,10.2z"/>
<path class="st1" d="M0.1,10.2c0,0,3.2,8.3,7.4,11.9L37,36.9c0,0,8.9,0.4,12.5-2.3L0.1,10.2z"/>
<path class="st2" d="M42.6,23.3c0-0.1,0.1-0.2,0.1-0.2c3.8-7.6,0.4-17.1-7.6-21.1c-8-4-17.6-1.1-21.4,6.6c0,0.1-0.1,0.2-0.1,0.3
	L42.6,23.3z"/>
<path class="st3" d="M42.7,23c2-4,2-8.5,0.4-12.5c-5.5,3.9-12.8,4.2-19.7,1.5c-3-1.2-6.2-2.9-8.8-5.1c-0.3,0.5-0.7,1.1-1,1.6
	c0,0.1-0.1,0.2-0.1,0.3l29,14.5C42.6,23.2,42.7,23.1,42.7,23z"/>
<circle class="st3" cx="23.9" cy="6.7" r="3.9"/>
<path class="st3" d="M32.2,8.1c-0.4,0.6-1.2,0.7-1.7,0.4c-0.6-0.4-0.7-1.2-0.4-1.7c0.4-0.6,1.2-0.7,1.7-0.4
	C32.4,6.8,32.5,7.6,32.2,8.1z"/>
<path class="st3" d="M30.7,3.7C30.5,3.9,30.2,4,30,3.8c-0.2-0.2-0.3-0.5-0.1-0.7C30,2.9,30.3,2.8,30.6,3C30.8,3.1,30.9,3.5,30.7,3.7
	z"/>
<path class="st0" d="M37.7,34.8c0.7,1.5,1.4,4.1-0.2,6.7c0,0-2.7-1.8-3.6-5.4c-0.3-1.2,0.7-2.4,1.9-2.4l0,0
	C36.6,33.6,37.4,34.1,37.7,34.8z"/>
<path class="st0" d="M8.4,20c-1.6,0.4-4.1,1.6-5,4.4c0,0,3.1,0.9,6.5-0.7c1.1-0.5,1.4-2,0.7-3l0,0C10,20,9.2,19.8,8.4,20z"/>
<path class="st0" d="M20.7,27.6c-0.9,1.4-2,3.8-0.9,6.6c0,0,2.9-1.3,4.4-4.8c0.5-1.2-0.3-2.5-1.5-2.7l0,0
	C22,26.6,21.1,26.9,20.7,27.6z"/>
<circle class="st4" cx="14.4" cy="13.5" r="2.1"/>
<path class="st4" d="M27.7,20.3c-0.7,1-2,1.3-3,0.6c-1-0.7-1.3-2-0.6-3c0.7-1,2-1.3,3-0.6C28.1,18,28.4,19.3,27.7,20.3z"/>
<path class="st4" d="M38.6,25.8c-0.7,1-2,1.3-3,0.6c-1-0.7-1.3-2-0.6-3c0.7-1,2-1.3,3-0.6C39,23.5,39.3,24.8,38.6,25.8z"/>
</svg>
